<svg width="264" height="248" fill="none" xmlns="http://www.w3.org/2000/svg"><g filter="url(#filter0_d_156_6446)"><path fill="#fff" d="M30 53h204v161H30z"/><path fill="#0460A9" d="M30 53h204v27H30z"/><path fill="#fff" d="M30 26h204v27H30zm23.55 44v-7h-5.5v7h.85v-6.2h3.8V70h.85zm5.868 0v-4.5h-.8v1.85h-2.5V65.5h-.8V70h.8v-1.9h2.5V70h.8zm44.502-1.32c-.51.41-1.1.62-1.79.62-.81 0-1.47-.26-1.98-.77-.5-.52-.75-1.2-.75-2.03 0-.83.24-1.5.73-2.02s1.11-.78 1.87-.78c.69 0 1.26.17 1.73.52l.39-.64c-.53-.45-1.24-.68-2.13-.68-1.07 0-1.92.34-2.55 1.03-.63.68-.94 1.54-.94 2.57 0 1.09.33 1.96.98 2.62.66.65 1.52.98 2.57.98.88 0 1.74-.3 2.21-.78l-.34-.64zm2.163 3.32v-2.21c.31.21.74.31 1.27.31.69 0 1.26-.23 1.69-.69.43-.46.65-1.04.65-1.73 0-.67-.19-1.22-.57-1.64-.37-.43-.88-.64-1.51-.64-.61 0-1.21.26-1.53.63v-.53h-.8V72h.8zm1.3-5.85c.91 0 1.46.63 1.46 1.56 0 .96-.61 1.64-1.56 1.64-.45 0-.85-.12-1.2-.35v-2.23c.33-.41.77-.62 1.3-.62zM75.05 69.99c.55.03 1.17.04 1.88.04 1.53 0 2.54-.67 2.54-2.03 0-.93-.56-1.51-1.45-1.66v-.02c.72-.24 1.2-.78 1.2-1.62 0-1.05-.68-1.73-2.25-1.73-.24 0-.88.01-1.92.04v6.98zm1.98-3.18c1.01 0 1.59.41 1.59 1.14 0 .84-.59 1.28-1.64 1.28-.41 0-.77-.01-1.08-.04v-2.38h1.13zm-.08-3.04c.95 0 1.42.37 1.42 1.12 0 .73-.58 1.17-1.35 1.17H75.9V63.8c.5-.02.85-.03 1.05-.03zm5.022 2.53V70h.8v-3.7h1.65v-.8h-4.1v.8h1.65zM128.6 63v3.15c-.52.35-1.06.53-1.63.53-.91 0-1.47-.51-1.47-1.66V63h-.85v2.25c0 .77.2 1.33.59 1.69.39.36.9.54 1.51.54.73 0 1.35-.18 1.85-.54V70h.85v-7h-.85zm3.704 3.3V70h.8v-3.7h1.65v-.8h-4.1v.8h1.65zm47.616 2.38c-.51.41-1.1.62-1.79.62-.81 0-1.47-.26-1.98-.77-.5-.52-.75-1.2-.75-2.03 0-.83.24-1.5.73-2.02s1.11-.78 1.87-.78c.69 0 1.26.17 1.73.52l.39-.64c-.53-.45-1.24-.68-2.13-.68-1.07 0-1.92.34-2.55 1.03-.63.68-.94 1.54-.94 2.57 0 1.09.33 1.96.98 2.62.66.65 1.52.98 2.57.98.88 0 1.74-.3 2.21-.78l-.34-.64zm4.843-5.78c-.27.35-.62.41-1.25.52-.311.05-.61.13-.88.25-1.11.47-1.67 1.68-1.67 3.63 0 .87.21 1.55.64 2.05.429.5 1.01.75 1.74.75.67 0 1.23-.22 1.66-.67.43-.45.65-1 .65-1.64 0-1.36-.81-2.24-2.09-2.24-.76 0-1.49.42-1.78 1.05h-.02c.08-1.14.46-1.86 1.14-2.17.25-.11.54-.2.87-.25.33-.05.61-.12.84-.2.23-.08.42-.23.58-.45l-.43-.63zm-2.951 4.55c.07-.31.251-.58.531-.81.28-.23.62-.34 1.02-.34.91 0 1.44.62 1.44 1.53 0 .43-.14.79-.42 1.08-.27.29-.63.44-1.06.44-.89 0-1.511-.75-1.511-1.9zm19.238 2.54c.55.03 1.17.04 1.88.04 1.53 0 2.54-.67 2.54-2.03 0-.93-.56-1.51-1.45-1.66v-.02c.72-.24 1.2-.78 1.2-1.62 0-1.05-.68-1.73-2.25-1.73-.24 0-.88.01-1.92.04v6.98zm1.98-3.18c1.01 0 1.59.41 1.59 1.14 0 .84-.59 1.28-1.64 1.28-.41 0-.77-.01-1.08-.04v-2.38h1.13zm-.08-3.04c.95 0 1.42.37 1.42 1.12 0 .73-.58 1.17-1.35 1.17h-1.12V63.8c.5-.02.85-.03 1.05-.03zm7.402 5c-.34.39-.77.58-1.29.58-.46 0-.85-.15-1.16-.44-.31-.29-.46-.68-.46-1.16 0-.46.15-.84.45-1.14.31-.31.67-.46 1.09-.46.52 0 .95.16 1.29.47l.37-.63c-.39-.39-.98-.59-1.77-.59-.65 0-1.2.23-1.63.68-.43.45-.65 1.01-.65 1.67 0 .71.22 1.28.66 1.71.45.43 1.03.64 1.75.64.71 0 1.36-.27 1.73-.75l-.38-.58zM154.55 70v-7h-5.5v7h.85v-6.2h3.8V70h.85zm2.848-3.7V70h.8v-3.7h1.65v-.8h-4.1v.8h1.65z"/><path d="M104.72 100v-.75h-3.23c.25-.22.49-.44.72-.67.23-.23.54-.57.93-1.02.77-.91 1.29-1.96 1.29-2.87 0-.48-.17-.89-.5-1.24-.33-.35-.81-.53-1.42-.53-1.01 0-1.84.63-2 1.64l.68.28c.13-.72.65-1.12 1.25-1.12.73 0 1.14.48 1.14 1.13 0 .65-.38 1.44-1.13 2.38-.39.48-1.05 1.19-2 2.12v.65h4.27zm-27.95-5.09l1.02-.8V100h.8v-7.04h-.56l-1.68 1.3.42.65zm51.7 5.19c.64 0 1.17-.18 1.58-.55.41-.37.62-.87.62-1.48 0-.85-.52-1.56-1.36-1.69v-.03c.71-.29 1.09-.91 1.09-1.68 0-1.09-.76-1.77-1.93-1.77-.91 0-1.63.41-1.95 1.12l.45.55c.33-.58.81-.87 1.44-.87.71 0 1.14.42 1.14 1.11 0 .35-.12.64-.37.87-.24.23-.52.34-.84.34h-.5v.8h.55c.85 0 1.43.47 1.43 1.22 0 .73-.53 1.26-1.38 1.26-.67 0-1.3-.34-1.63-.97l-.46.57c.36.77 1.13 1.2 2.12 1.2zm46.52-3.58c.31-.12.67-.18 1.1-.18.51 0 .92.14 1.23.42.31.28.47.63.47 1.06 0 .43-.14.78-.41 1.06-.27.28-.6.42-1 .42-.6 0-1.24-.32-1.57-.85l-.46.59c.4.69 1.21 1.06 2.01 1.06.64 0 1.18-.21 1.62-.63.44-.42.66-.98.66-1.68 0-.65-.21-1.18-.62-1.57-.41-.4-.94-.6-1.59-.6-.2 0-.39.02-.56.07l.26-1.89h2.46V93h-3.16l-.44 3.52zm25.51 1c0 .73.22 1.34.65 1.84.43.49 1.03.74 1.78.74.57 0 1.08-.21 1.51-.63.43-.43.65-.97.65-1.63 0-.63-.19-1.15-.57-1.55-.37-.4-.85-.6-1.43-.6-.77 0-1.32.31-1.65.93.15-.82.48-1.5 1-2.04.53-.54 1.12-.9 1.79-1.07l-.33-.61c-.8.19-1.6.71-2.28 1.48-.67.76-1.12 1.91-1.12 3.14zm.85 0c.19-.57.72-1.08 1.47-1.08.91 0 1.42.61 1.42 1.46 0 .38-.13.71-.38.99-.25.27-.56.41-.94.41-.5 0-.89-.17-1.16-.51-.27-.34-.41-.76-.41-1.27zM152.23 100v-1.75h.97v-.8h-.97V95.5h-.8v1.95h-2.18l2.77-4.45h-.92l-2.9 4.68v.57h3.23V100h.8zM57.35 41.34l-3.29-1.96 3.29-1.94v-.87l-4.4 2.64v.34l4.4 2.66v-.87zm48.205 1.74v-.92h.03c1 0 1.8-.24 2.41-.73.61-.49.92-1.16.92-2.03 0-.86-.3-1.53-.91-2.02-.61-.49-1.42-.73-2.45-.74v-.72h-.85v.72c-1.02.01-1.83.25-2.43.74-.6.48-.9 1.15-.9 2.02 0 .87.3 1.54.9 2.03.61.49 1.41.73 2.42.73h.01v.92h.85zm.01-5.65c1.55 0 2.45.73 2.45 1.97 0 1.29-.91 1.98-2.44 1.98h-.02v-3.95h.01zm-3.29 1.97c0-1.23.91-1.97 2.43-1.97v3.95h-.01c-1.49 0-2.42-.7-2.42-1.98zm11.222 2.48c-.33.31-.79.47-1.38.47-.89 0-1.5-.51-1.57-1.35h3.46c.03-.15.05-.33.05-.54 0-.61-.2-1.1-.6-1.48-.4-.39-.9-.58-1.49-.58-.72 0-1.29.22-1.7.67-.41.44-.62 1-.62 1.68 0 .71.22 1.28.66 1.71.44.43 1.02.64 1.75.64.69 0 1.26-.2 1.69-.59l-.25-.63zm-1.57-2.73c.77 0 1.26.45 1.3 1.2h-2.73c.09-.71.63-1.2 1.43-1.2zm3.215 3.85c.13 0 .38.01.77.02s.68.02.88.02c1.38 0 2.07-.44 2.07-1.31 0-.58-.35-.93-1.05-1.06v-.02c.53-.08.9-.5.9-1.03 0-.77-.65-1.16-1.94-1.16-.24 0-.55.01-.92.02s-.6.02-.71.02V43zm1.76-2.02c.74 0 1.11.23 1.11.69 0 .48-.38.72-1.15.72-.13 0-.44-.01-.92-.03v-1.38h.96zm-.07-1.87c.69 0 1.03.22 1.03.67 0 .43-.36.7-.91.7h-1.01v-1.34c.4-.02.7-.03.89-.03zm4.051 5.89v-2.21c.31.21.74.31 1.27.31.69 0 1.26-.23 1.69-.69.43-.46.65-1.04.65-1.73 0-.67-.19-1.22-.57-1.64-.37-.43-.88-.64-1.51-.64-.61 0-1.21.26-1.53.63v-.53h-.8V45h.8zm1.3-5.85c.91 0 1.46.63 1.46 1.56 0 .96-.61 1.64-1.56 1.64-.45 0-.85-.12-1.2-.35v-2.23c.33-.41.77-.62 1.3-.62zm3.697.3c.42-.22.83-.33 1.24-.33.83 0 1.02.46 1.02 1.42-.27-.19-.64-.29-1.12-.29-1 0-1.7.54-1.7 1.43 0 .85.55 1.39 1.38 1.39.61 0 1.09-.22 1.44-.65V43h.76v-2.76c0-1.23-.49-1.84-1.73-1.84-.56 0-1.06.14-1.5.41l.21.64zm1.1 2.9c-.51 0-.81-.27-.81-.71 0-.48.43-.74.96-.74.39 0 .73.1 1.01.3v.57c-.33.39-.71.58-1.16.58zm7.14.65v-4.5h-3.13l-.08 1.4c-.11 2.08-.76 2.41-1.09 2.38l.06.78c.94 0 1.6-.44 1.81-3l.05-.76h1.58V43h.8zm2.962 0c.65 0 1.13-.15 1.43-.46.3-.31.45-.69.45-1.14 0-.91-.5-1.55-1.78-1.55h-.82V38.5h-.8V43h1.52zm-.05-2.4c.72 0 1.08.28 1.08.83 0 .55-.36.82-1.09.82h-.66V40.6h.67zm9.249 2.4v-.75h-3.23c.25-.22.49-.44.72-.67.23-.23.54-.57.93-1.02.77-.91 1.29-1.96 1.29-2.87 0-.48-.17-.89-.5-1.24-.33-.35-.81-.53-1.42-.53-1.01 0-1.84.63-2 1.64l.68.28c.13-.72.65-1.12 1.25-1.12.73 0 1.14.48 1.14 1.13 0 .65-.38 1.44-1.13 2.38-.39.48-1.05 1.19-2 2.12V43h4.27zm5.643-3.5c0-1.1-.19-1.97-.57-2.61-.37-.65-.94-.97-1.7-.97s-1.33.32-1.71.97c-.37.64-.56 1.51-.56 2.61 0 1.1.19 1.97.57 2.62.39.64.96.96 1.72.96 1.52 0 2.25-1.37 2.25-3.58zm-2.25 2.83c-.96 0-1.44-.94-1.44-2.83 0-1.89.47-2.83 1.42-2.83.99 0 1.42.96 1.42 2.83 0 1.88-.41 2.83-1.4 2.83zm7.525.67v-.75h-3.23c.25-.22.49-.44.72-.67.23-.23.54-.57.93-1.02.77-.91 1.29-1.96 1.29-2.87 0-.48-.17-.89-.5-1.24-.33-.35-.81-.53-1.42-.53-1.01 0-1.84.63-2 1.64l.68.28c.13-.72.65-1.12 1.25-1.12.73 0 1.14.48 1.14 1.13 0 .65-.38 1.44-1.13 2.38-.39.48-1.05 1.19-2 2.12V43h4.27zm5.273 0v-.75h-3.23c.25-.22.49-.44.72-.67.23-.23.54-.57.93-1.02.77-.91 1.29-1.96 1.29-2.87 0-.48-.17-.89-.5-1.24-.33-.35-.81-.53-1.42-.53-1.01 0-1.84.63-2 1.64l.68.28c.13-.72.65-1.12 1.25-1.12.73 0 1.14.48 1.14 1.13 0 .65-.38 1.44-1.13 2.38-.39.48-1.05 1.19-2 2.12V43h4.27zm48.569-3.79l-4.39-2.64v.87l3.29 1.94-3.29 1.96v.87l4.39-2.66v-.34zM55.53 113.8l-2.49 6.2h.88l2.58-6.48V113h-4.2v.8h3.23zm49.48 1.73c0-.77-.21-1.4-.63-1.89-.41-.49-1-.74-1.75-.74-.58 0-1.1.21-1.55.64-.45.42-.68.96-.68 1.62 0 .61.2 1.13.59 1.54.39.41.89.61 1.5.61.74 0 1.27-.29 1.58-.87-.21 1.64-1.26 2.72-2.83 3.03l.27.63c1.02-.13 1.86-.6 2.51-1.41.66-.82.99-1.87.99-3.16zm-.85 0a1.51 1.51 0 01-1.47 1.03c-.89 0-1.44-.65-1.44-1.46 0-.38.14-.71.41-.98.27-.28.6-.42.98-.42.49 0 .87.18 1.13.53.26.35.39.79.39 1.3zm-25.31.47c-.3 0-.56-.11-.79-.34-.23-.23-.34-.5-.34-.81 0-.68.53-1.15 1.24-1.15s1.27.44 1.27 1.15c0 .31-.11.58-.34.81-.22.23-.48.34-.78.34h-.26zm.25.8c.76 0 1.34.48 1.35 1.24 0 .76-.59 1.26-1.48 1.26-.85 0-1.47-.53-1.47-1.26 0-.36.13-.66.4-.89.27-.23.6-.35.98-.35h.22zm-2.45 1.39c0 .58.22 1.04.67 1.39.45.35 1.01.52 1.66.52.65 0 1.2-.18 1.65-.53.45-.35.67-.83.67-1.44 0-.91-.58-1.59-1.37-1.72v-.03c.71-.28 1.15-.96 1.15-1.65 0-.54-.2-.98-.61-1.32-.41-.34-.91-.51-1.5-.51s-1.09.17-1.5.51c-.4.34-.6.78-.6 1.32 0 .76.47 1.45 1.1 1.66v.03c-.79.23-1.32.92-1.32 1.77zm48.12-3.28l1.02-.8V120h.8v-7.04h-.56l-1.68 1.3.42.65zm8.109 1.59c0-1.1-.19-1.97-.57-2.61-.37-.65-.94-.97-1.7-.97s-1.33.32-1.71.97c-.37.64-.56 1.51-.56 2.61 0 1.1.19 1.97.57 2.62.39.64.96.96 1.72.96 1.52 0 2.25-1.37 2.25-3.58zm-2.25 2.83c-.96 0-1.44-.94-1.44-2.83 0-1.89.47-2.83 1.42-2.83.99 0 1.42.96 1.42 2.83 0 1.88-.41 2.83-1.4 2.83zm44.141-4.42l1.02-.8V120h.8v-7.04h-.56l-1.68 1.3.42.65zm7.739 5.09v-.75h-3.23c.25-.22.49-.44.72-.67.23-.23.54-.57.93-1.02.77-.91 1.29-1.96 1.29-2.87 0-.48-.17-.89-.5-1.24-.33-.35-.81-.53-1.42-.53-1.01 0-1.84.63-2 1.64l.68.28c.13-.72.65-1.12 1.25-1.12.73 0 1.14.48 1.14 1.13 0 .65-.38 1.44-1.13 2.38-.39.48-1.05 1.19-2 2.12v.65h4.27zm18.261-5.09l1.02-.8V120h.8v-7.04h-.56l-1.68 1.3.42.65zm5.489 5.19c.64 0 1.17-.18 1.58-.55.41-.37.62-.87.62-1.48 0-.85-.52-1.56-1.36-1.69v-.03c.71-.29 1.09-.91 1.09-1.68 0-1.09-.76-1.77-1.93-1.77-.91 0-1.63.41-1.95 1.12l.45.55c.33-.58.81-.87 1.44-.87.71 0 1.14.42 1.14 1.11 0 .35-.12.64-.37.87-.24.23-.52.34-.84.34h-.5v.8h.55c.85 0 1.43.47 1.43 1.22 0 .73-.53 1.26-1.38 1.26-.67 0-1.3-.34-1.63-.97l-.46.57c.36.77 1.13 1.2 2.12 1.2zm-57.489-5.19l1.02-.8V120h.8v-7.04h-.56l-1.68 1.3.42.65zm3.789 0l1.02-.8V120h.8v-7.04h-.56l-1.68 1.3.42.65z" fill="#202F4E"/><path d="M55.53 193.8l-2.49 6.2h.88l2.58-6.48V193h-4.2v.8h3.23zm49.48 1.73c0-.77-.21-1.4-.63-1.89-.41-.49-1-.74-1.75-.74-.58 0-1.1.21-1.55.64-.45.42-.68.96-.68 1.62 0 .61.2 1.13.59 1.54.39.41.89.61 1.5.61.74 0 1.27-.29 1.58-.87-.21 1.64-1.26 2.72-2.83 3.03l.27.63c1.02-.13 1.86-.6 2.51-1.41.66-.82.99-1.87.99-3.16zm-.85 0a1.51 1.51 0 01-1.47 1.03c-.89 0-1.44-.65-1.44-1.46 0-.38.14-.71.41-.98.27-.28.6-.42.98-.42.49 0 .87.18 1.13.53.26.35.39.79.39 1.3zm-25.31.47c-.3 0-.56-.11-.79-.34-.23-.23-.34-.5-.34-.81 0-.68.53-1.15 1.24-1.15s1.27.44 1.27 1.15c0 .31-.11.58-.34.81-.22.23-.48.34-.78.34h-.26zm.25.8c.76 0 1.34.48 1.35 1.24 0 .76-.59 1.26-1.48 1.26-.85 0-1.47-.53-1.47-1.26 0-.36.13-.66.4-.89.27-.23.6-.35.98-.35h.22zm-2.45 1.39c0 .58.22 1.04.67 1.39.45.35 1.01.52 1.66.52.65 0 1.2-.18 1.65-.53.45-.35.67-.83.67-1.44 0-.91-.58-1.59-1.37-1.72v-.03c.71-.28 1.15-.96 1.15-1.65 0-.54-.2-.98-.61-1.32-.41-.34-.91-.51-1.5-.51s-1.09.17-1.5.51c-.4.34-.6.78-.6 1.32 0 .76.47 1.45 1.1 1.66v.03c-.79.23-1.32.92-1.32 1.77zm48.12-3.28l1.02-.8V200h.8v-7.04h-.56l-1.68 1.3.42.65zm8.109 1.59c0-1.1-.19-1.97-.57-2.61-.37-.65-.94-.97-1.7-.97s-1.33.32-1.71.97c-.37.64-.56 1.51-.56 2.61 0 1.1.19 1.97.57 2.62.39.64.96.96 1.72.96 1.52 0 2.25-1.37 2.25-3.58zm-2.25 2.83c-.96 0-1.44-.94-1.44-2.83 0-1.89.47-2.83 1.42-2.83.99 0 1.42.96 1.42 2.83 0 1.88-.41 2.83-1.4 2.83zm44.141-4.42l1.02-.8V200h.8v-7.04h-.56l-1.68 1.3.42.65zm7.739 5.09v-.75h-3.23c.25-.22.49-.44.72-.67.23-.23.54-.57.93-1.02.77-.91 1.29-1.96 1.29-2.87 0-.48-.17-.89-.5-1.24-.33-.35-.81-.53-1.42-.53-1.01 0-1.84.63-2 1.64l.68.28c.13-.72.65-1.12 1.25-1.12.73 0 1.14.48 1.14 1.13 0 .65-.38 1.44-1.13 2.38-.39.48-1.05 1.19-2 2.12v.65h4.27zm18.261-5.09l1.02-.8V200h.8v-7.04h-.56l-1.68 1.3.42.65zm5.489 5.19c.64 0 1.17-.18 1.58-.55.41-.37.62-.87.62-1.48 0-.85-.52-1.56-1.36-1.69v-.03c.71-.29 1.09-.91 1.09-1.68 0-1.09-.76-1.77-1.93-1.77-.91 0-1.63.41-1.95 1.12l.45.55c.33-.58.81-.87 1.44-.87.71 0 1.14.42 1.14 1.11 0 .35-.12.64-.37.87-.24.23-.52.34-.84.34h-.5v.8h.55c.85 0 1.43.47 1.43 1.22 0 .73-.53 1.26-1.38 1.26-.67 0-1.3-.34-1.63-.97l-.46.57c.36.77 1.13 1.2 2.12 1.2zm-57.489-5.19l1.02-.8V200h.8v-7.04h-.56l-1.68 1.3.42.65zm3.789 0l1.02-.8V200h.8v-7.04h-.56l-1.68 1.3.42.65z" opacity=".2" fill="#202F4E"/><path d="M49.77 134.91l1.02-.8V140h.8v-7.04h-.56l-1.68 1.3.42.65zm7.25 5.09v-1.75h.97v-.8h-.97v-1.95h-.8v1.95h-2.18l2.77-4.45h-.92l-2.9 4.68v.57h3.23V140h.8zm43.75-5.09l1.02-.8V140h.8v-7.04h-.56l-1.68 1.3.42.65zm3.519 2.61c0 .73.22 1.34.65 1.84.43.49 1.03.74 1.78.74.57 0 1.08-.21 1.51-.63.43-.43.65-.97.65-1.63 0-.63-.19-1.15-.57-1.55-.37-.4-.85-.6-1.43-.6-.77 0-1.32.31-1.65.93.15-.82.48-1.5 1-2.04.53-.54 1.12-.9 1.79-1.07l-.33-.61c-.8.19-1.6.71-2.28 1.48-.67.76-1.12 1.91-1.12 3.14zm.85 0c.19-.57.72-1.08 1.47-1.08.91 0 1.42.61 1.42 1.46 0 .38-.13.71-.38.99-.25.27-.56.41-.94.41-.5 0-.89-.17-1.16-.51-.27-.34-.41-.76-.41-1.27zm-28.369-2.61l1.02-.8V140h.8v-7.04h-.56l-1.68 1.3.42.65zm4.01 1.61c.31-.12.67-.18 1.1-.18.51 0 .92.14 1.23.42.31.28.47.63.47 1.06 0 .43-.14.78-.41 1.06-.27.28-.6.42-1 .42-.6 0-1.24-.32-1.57-.85l-.46.59c.4.69 1.21 1.06 2.01 1.06.64 0 1.18-.21 1.62-.63.44-.42.66-.98.66-1.68 0-.65-.21-1.18-.62-1.57-.41-.4-.94-.6-1.59-.6-.2 0-.39.02-.56.07l.26-1.89h2.46v-.8h-3.16l-.44 3.52zm43.99-1.61l1.02-.8V140h.8v-7.04h-.56l-1.68 1.3.42.65zm6.549-1.11l-2.49 6.2h.88l2.58-6.48V133h-4.2v.8h3.23zm43.451 1.11l1.02-.8V140h.8v-7.04h-.56l-1.68 1.3.42.65zm8.029.62c0-.77-.21-1.4-.63-1.89-.41-.49-1-.74-1.75-.74-.58 0-1.1.21-1.55.64-.45.42-.68.96-.68 1.62 0 .61.2 1.13.59 1.54.39.41.89.61 1.5.61.74 0 1.27-.29 1.58-.87-.21 1.64-1.26 2.72-2.83 3.03l.27.63c1.02-.13 1.86-.6 2.51-1.41.66-.82.99-1.87.99-3.16zm-.85 0a1.51 1.51 0 01-1.47 1.03c-.89 0-1.44-.65-1.44-1.46 0-.38.14-.71.41-.98.27-.28.6-.42.98-.42.49 0 .87.18 1.13.53.26.35.39.79.39 1.3zM204.72 140v-.75h-3.23c.25-.22.49-.44.72-.67.23-.23.54-.57.93-1.02.77-.91 1.29-1.96 1.29-2.87 0-.48-.17-.89-.5-1.24-.33-.35-.81-.53-1.42-.53-1.01 0-1.84.63-2 1.64l.68.28c.13-.72.65-1.12 1.25-1.12.73 0 1.14.48 1.14 1.13 0 .65-.38 1.44-1.13 2.38-.39.48-1.05 1.19-2 2.12v.65h4.27zm5.643-3.5c0-1.1-.19-1.97-.57-2.61-.37-.65-.94-.97-1.7-.97s-1.33.32-1.71.97c-.37.64-.56 1.51-.56 2.61 0 1.1.19 1.97.57 2.62.39.64.96.96 1.72.96 1.52 0 2.25-1.37 2.25-3.58zm-2.25 2.83c-.96 0-1.44-.94-1.44-2.83 0-1.89.47-2.83 1.42-2.83.99 0 1.42.96 1.42 2.83 0 1.88-.41 2.83-1.4 2.83zm-59.343-4.42l1.02-.8V140h.8v-7.04h-.56l-1.68 1.3.42.65zm5.869 1.09c-.3 0-.56-.11-.79-.34-.23-.23-.34-.5-.34-.81 0-.68.53-1.15 1.24-1.15s1.27.44 1.27 1.15c0 .31-.11.58-.34.81-.22.23-.48.34-.78.34h-.26zm.25.8c.76 0 1.34.48 1.35 1.24 0 .76-.59 1.26-1.48 1.26-.85 0-1.47-.53-1.47-1.26 0-.36.13-.66.4-.89.27-.23.6-.35.98-.35h.22zm-2.45 1.39c0 .58.22 1.04.67 1.39.45.35 1.01.52 1.66.52.65 0 1.2-.18 1.65-.53.45-.35.67-.83.67-1.44 0-.91-.58-1.59-1.37-1.72v-.03c.71-.28 1.15-.96 1.15-1.65 0-.54-.2-.98-.61-1.32-.41-.34-.91-.51-1.5-.51s-1.09.17-1.5.51c-.4.34-.6.78-.6 1.32 0 .76.47 1.45 1.1 1.66v.03c-.79.23-1.32.92-1.32 1.77zM53.72 160v-.75h-3.23c.25-.22.49-.44.72-.67.23-.23.54-.57.93-1.02.77-.91 1.29-1.96 1.29-2.87 0-.48-.17-.89-.5-1.24-.33-.35-.81-.53-1.42-.53-1.01 0-1.84.63-2 1.64l.68.28c.13-.72.65-1.12 1.25-1.12.73 0 1.14.48 1.14 1.13 0 .65-.38 1.44-1.13 2.38-.39.48-1.05 1.19-2 2.12v.65h4.27zm1.323-5.09l1.02-.8V160h.8v-7.04h-.56l-1.68 1.3.42.65zM104.72 160v-.75h-3.23c.25-.22.49-.44.72-.67.23-.23.54-.57.93-1.02.77-.91 1.29-1.96 1.29-2.87 0-.48-.17-.89-.5-1.24-.33-.35-.81-.53-1.42-.53-1.01 0-1.84.63-2 1.64l.68.28c.13-.72.65-1.12 1.25-1.12.73 0 1.14.48 1.14 1.13 0 .65-.38 1.44-1.13 2.38-.39.48-1.05 1.19-2 2.12v.65h4.27zm3.023.1c.64 0 1.17-.18 1.58-.55.41-.37.62-.87.62-1.48 0-.85-.52-1.56-1.36-1.69v-.03c.71-.29 1.09-.91 1.09-1.68 0-1.09-.76-1.77-1.93-1.77-.91 0-1.63.41-1.95 1.12l.45.55c.33-.58.81-.87 1.44-.87.71 0 1.14.42 1.14 1.11 0 .35-.12.64-.37.87-.24.23-.52.34-.84.34h-.5v.8h.55c.85 0 1.43.47 1.43 1.22 0 .73-.53 1.26-1.38 1.26-.67 0-1.3-.34-1.63-.97l-.46.57c.36.77 1.13 1.2 2.12 1.2zM80.72 160v-.75h-3.23c.25-.22.49-.44.72-.67.23-.23.54-.57.93-1.02.77-.91 1.29-1.96 1.29-2.87 0-.48-.17-.89-.5-1.24-.33-.35-.81-.53-1.42-.53-1.01 0-1.84.63-2 1.64l.68.28c.13-.72.65-1.12 1.25-1.12.73 0 1.14.48 1.14 1.13 0 .65-.38 1.44-1.13 2.38-.39.48-1.05 1.19-2 2.12v.65h4.27zm5.273 0v-.75h-3.23c.25-.22.49-.44.72-.67.23-.23.54-.57.93-1.02.77-.91 1.29-1.96 1.29-2.87 0-.48-.17-.89-.5-1.24-.33-.35-.81-.53-1.42-.53-1.01 0-1.84.63-2 1.64l.68.28c.13-.72.65-1.12 1.25-1.12.73 0 1.14.48 1.14 1.13 0 .65-.38 1.44-1.13 2.38-.39.48-1.05 1.19-2 2.12v.65h4.27zm42.727 0v-.75h-3.23c.25-.22.49-.44.72-.67.23-.23.54-.57.93-1.02.77-.91 1.29-1.96 1.29-2.87 0-.48-.17-.89-.5-1.24-.33-.35-.81-.53-1.42-.53-1.01 0-1.84.63-2 1.64l.68.28c.13-.72.65-1.12 1.25-1.12.73 0 1.14.48 1.14 1.13 0 .65-.38 1.44-1.13 2.38-.39.48-1.05 1.19-2 2.12v.65h4.27zm4.783 0v-1.75h.97v-.8h-.97v-1.95h-.8v1.95h-2.18l2.77-4.45h-.92l-2.9 4.68v.57h3.23V160h.8zm45.217 0v-.75h-3.23c.25-.22.49-.44.72-.67.23-.23.54-.57.93-1.02.77-.91 1.29-1.96 1.29-2.87 0-.48-.17-.89-.5-1.24-.33-.35-.81-.53-1.42-.53-1.01 0-1.84.63-2 1.64l.68.28c.13-.72.65-1.12 1.25-1.12.73 0 1.14.48 1.14 1.13 0 .65-.38 1.44-1.13 2.38-.39.48-1.05 1.19-2 2.12v.65h4.27zm1.053-2.48c0 .73.22 1.34.65 1.84.43.49 1.03.74 1.78.74.57 0 1.08-.21 1.51-.63.43-.43.65-.97.65-1.63 0-.63-.19-1.15-.57-1.55-.37-.4-.85-.6-1.43-.6-.77 0-1.32.31-1.65.93.15-.82.48-1.5 1-2.04.53-.54 1.12-.9 1.79-1.07l-.33-.61c-.8.19-1.6.71-2.28 1.48-.67.76-1.12 1.91-1.12 3.14zm.85 0c.19-.57.72-1.08 1.47-1.08.91 0 1.42.61 1.42 1.46 0 .38-.13.71-.38.99-.25.27-.56.41-.94.41-.5 0-.89-.17-1.16-.51-.27-.34-.41-.76-.41-1.27zM204.72 160v-.75h-3.23c.25-.22.49-.44.72-.67.23-.23.54-.57.93-1.02.77-.91 1.29-1.96 1.29-2.87 0-.48-.17-.89-.5-1.24-.33-.35-.81-.53-1.42-.53-1.01 0-1.84.63-2 1.64l.68.28c.13-.72.65-1.12 1.25-1.12.73 0 1.14.48 1.14 1.13 0 .65-.38 1.44-1.13 2.38-.39.48-1.05 1.19-2 2.12v.65h4.27zm4.083-6.2l-2.49 6.2h.88l2.58-6.48V153h-4.2v.8h3.23zM152.72 160v-.75h-3.23c.25-.22.49-.44.72-.67.23-.23.54-.57.93-1.02.77-.91 1.29-1.96 1.29-2.87 0-.48-.17-.89-.5-1.24-.33-.35-.81-.53-1.42-.53-1.01 0-1.84.63-2 1.64l.68.28c.13-.72.65-1.12 1.25-1.12.73 0 1.14.48 1.14 1.13 0 .65-.38 1.44-1.13 2.38-.39.48-1.05 1.19-2 2.12v.65h4.27zm1.543-3.48c.31-.12.67-.18 1.1-.18.51 0 .92.14 1.23.42.31.28.47.63.47 1.06 0 .43-.14.78-.41 1.06-.27.28-.6.42-1 .42-.6 0-1.24-.32-1.57-.85l-.46.59c.4.69 1.21 1.06 2.01 1.06.64 0 1.18-.21 1.62-.63.44-.42.66-.98.66-1.68 0-.65-.21-1.18-.62-1.57-.41-.4-.94-.6-1.59-.6-.2 0-.39.02-.56.07l.26-1.89h2.46v-.8h-3.16l-.44 3.52zM53.72 180v-.75h-3.23c.25-.22.49-.44.72-.67.23-.23.54-.57.93-1.02.77-.91 1.29-1.96 1.29-2.87 0-.48-.17-.89-.5-1.24-.33-.35-.81-.53-1.42-.53-1.01 0-1.84.63-2 1.64l.68.28c.13-.72.65-1.12 1.25-1.12.73 0 1.14.48 1.14 1.13 0 .65-.38 1.44-1.13 2.38-.39.48-1.05 1.19-2 2.12v.65h4.27zm3.403-4c-.3 0-.56-.11-.79-.34-.23-.23-.34-.5-.34-.81 0-.68.53-1.15 1.24-1.15s1.27.44 1.27 1.15c0 .31-.11.58-.34.81-.22.23-.48.34-.78.34h-.26zm.25.8c.76 0 1.34.48 1.35 1.24 0 .76-.59 1.26-1.48 1.26-.85 0-1.47-.53-1.47-1.26 0-.36.13-.66.4-.89.27-.23.6-.35.98-.35h.22zm-2.45 1.39c0 .58.22 1.04.67 1.39.45.35 1.01.52 1.66.52.65 0 1.2-.18 1.65-.53.45-.35.67-.83.67-1.44 0-.91-.58-1.59-1.37-1.72v-.03c.71-.28 1.15-.96 1.15-1.65 0-.54-.2-.98-.61-1.32-.41-.34-.91-.51-1.5-.51s-1.09.17-1.5.51c-.4.34-.6.78-.6 1.32 0 .76.47 1.45 1.1 1.66v.03c-.79.23-1.32.92-1.32 1.77z" fill="#202F4E"/><path opacity=".2" d="M106.72 180v-.75h-3.23c.25-.22.49-.44.72-.67.23-.23.54-.57.93-1.02.77-.91 1.29-1.96 1.29-2.87 0-.48-.17-.89-.5-1.24-.33-.35-.81-.53-1.42-.53-1.01 0-1.84.63-2 1.64l.68.28c.13-.72.65-1.12 1.25-1.12.73 0 1.14.48 1.14 1.13 0 .65-.38 1.44-1.13 2.38-.39.48-1.05 1.19-2 2.12v.65h4.27zm-26.95-5.09l1.02-.8V180h.8v-7.04h-.56l-1.68 1.3.42.65zm48.7 5.19c.64 0 1.17-.18 1.58-.55.41-.37.62-.87.62-1.48 0-.85-.52-1.56-1.36-1.69v-.03c.71-.29 1.09-.91 1.09-1.68 0-1.09-.76-1.77-1.93-1.77-.91 0-1.63.41-1.95 1.12l.45.55c.33-.58.81-.87 1.44-.87.71 0 1.14.42 1.14 1.11 0 .35-.12.64-.37.87-.24.23-.52.34-.84.34h-.5v.8h.55c.85 0 1.43.47 1.43 1.22 0 .73-.53 1.26-1.38 1.26-.67 0-1.3-.34-1.63-.97l-.46.57c.36.77 1.13 1.2 2.12 1.2zm48.52-3.58c.31-.12.67-.18 1.1-.18.51 0 .92.14 1.23.42.31.28.47.63.47 1.06 0 .43-.14.78-.41 1.06-.27.28-.6.42-1 .42-.6 0-1.24-.32-1.57-.85l-.46.59c.4.69 1.21 1.06 2.01 1.06.64 0 1.18-.21 1.62-.63.44-.42.66-.98.66-1.68 0-.65-.21-1.18-.62-1.57-.41-.4-.94-.6-1.59-.6-.2 0-.39.02-.56.07l.26-1.89h2.46v-.8h-3.16l-.44 3.52zm25.51 1c0 .73.22 1.34.65 1.84.43.49 1.03.74 1.78.74.57 0 1.08-.21 1.51-.63.43-.43.65-.97.65-1.63 0-.63-.19-1.15-.57-1.55-.37-.4-.85-.6-1.43-.6-.77 0-1.32.31-1.65.93.15-.82.48-1.5 1-2.04.53-.54 1.12-.9 1.79-1.07l-.33-.61c-.8.19-1.6.71-2.28 1.48-.67.76-1.12 1.91-1.12 3.14zm.85 0c.19-.57.72-1.08 1.47-1.08.91 0 1.42.61 1.42 1.46 0 .38-.13.71-.38.99-.25.27-.56.41-.94.41-.5 0-.89-.17-1.16-.51-.27-.34-.41-.76-.41-1.27zM154.23 180v-1.75h.97v-.8h-.97v-1.95h-.8v1.95h-2.18l2.77-4.45h-.92l-2.9 4.68v.57h3.23V180h.8z" fill="#202F4E"/><path fill="#E3F0F1" d="M30 126h204v20H30zm0 20h135v20H30zm135-40h69v20h-69z"/></g><defs><filter id="filter0_d_156_6446" x="0" y="0" width="264" height="248" filterUnits="userSpaceOnUse" color-interpolation-filters="sRGB"><feFlood flood-opacity="0" result="BackgroundImageFix"/><feColorMatrix in="SourceAlpha" values="0 0 0 0 0 0 0 0 0 0 0 0 0 0 0 0 0 0 127 0" result="hardAlpha"/><feOffset dy="4"/><feGaussianBlur stdDeviation="15"/><feComposite in2="hardAlpha" operator="out"/><feColorMatrix values="0 0 0 0 0 0 0 0 0 0 0 0 0 0 0 0 0 0 0.1 0"/><feBlend in2="BackgroundImageFix" result="effect1_dropShadow_156_6446"/><feBlend in="SourceGraphic" in2="effect1_dropShadow_156_6446" result="shape"/></filter></defs></svg>