<svg width="20" height="17" fill="none" xmlns="http://www.w3.org/2000/svg"><path d="M19.1 3.424H6.9c-.1 0-.3-.107-.3-.321 0-.107.1-.321.3-.321h12.3c.1 0 .3.107.3.32-.1.215-.2.322-.4.322z" fill="#fff"/><path d="M19.1 3.53H6.9c-.2 0-.4-.213-.4-.427s.2-.428.4-.428h12.3c.2 0 .4.214.4.428-.1.214-.3.428-.5.428zM6.9 2.89c-.1 0-.2.107-.2.214s.1.214.2.214h12.3c.1 0 .2-.107.2-.214s-.1-.214-.2-.214H6.9zM5 3.424H.4c-.1 0-.3-.107-.3-.321 0-.107.1-.321.3-.321H5c.1 0 .3.107.3.32-.1.215-.2.322-.3.322z" fill="#fff"/><path d="M5 3.53H.4c-.2 0-.4-.213-.4-.427s.2-.428.4-.428H5c.2 0 .4.214.4.428-.1.214-.2.428-.4.428zM.4 2.89c-.1 0-.2.107-.2.214s.1.214.2.214H5s.1-.107.1-.214S5 2.89 5 2.89H.4zm18.7 5.562h-4.8c-.1 0-.3-.107-.3-.32 0-.108.1-.322.3-.322h4.8c.1 0 .3.107.3.321 0 .214-.1.321-.3.321z" fill="#fff"/><path d="M19.1 8.56h-4.8c-.2 0-.3-.215-.3-.429s.2-.428.4-.428h4.8c.2 0 .4.214.4.428-.1.214-.3.428-.5.428zm-4.8-.536c-.1 0-.2.107-.2.214s.1.214.2.214h4.8c.1 0 .2-.107.2-.214s-.1-.214-.2-.214h-4.8zm-1.3.428H.4c-.1 0-.3-.107-.3-.32 0-.108.1-.322.3-.322H13c.1 0 .3.107.3.321 0 .214-.2.321-.3.321z" fill="#fff"/><path d="M13 8.56H.4c-.2 0-.4-.215-.4-.429s.2-.428.4-.428H13c.2 0 .4.214.4.428s-.2.428-.4.428zM.4 8.023c-.1 0-.2.107-.2.214s.1.214.2.214H13c.1 0 .2-.107.2-.214s-.1-.214-.2-.214H.4zm18.7 5.457H6.3c-.1 0-.3-.106-.3-.32 0-.107.1-.321.3-.321h12.9c.1 0 .3.107.3.32-.1.215-.2.322-.4.322z" fill="#fff"/><path d="M19.1 13.588H6.3c-.2 0-.4-.214-.4-.428s.2-.321.4-.321h12.9c.2 0 .4.214.4.428s-.3.32-.5.32zm-12.8-.535c-.1 0-.2.107-.2.214s.1.214.2.214h12.9c.1 0 .2-.107.2-.214s-.1-.214-.2-.214H6.3zM5 13.48H.4c-.1 0-.3-.106-.3-.32 0-.107.1-.321.3-.321H5c.1 0 .3.107.3.32-.1.215-.2.322-.3.322z" fill="#fff"/><path d="M5 13.588H.4c-.2 0-.4-.214-.4-.428s.2-.321.4-.321H5c.2 0 .4.214.4.428s-.2.32-.4.32zm-4.6-.535c-.1 0-.2.107-.2.214s.1.214.2.214H5c.1 0 .2-.107.2-.214s-.1-.214-.2-.214H.4zM5 5.67c-.2 0-.3-.107-.3-.32V.427c0-.107.1-.321.3-.321.1 0 .3.107.3.321v4.921c-.1.214-.2.321-.3.321z" fill="#fff"/><path d="M5 5.777c-.2 0-.4-.214-.4-.428V.428C4.6.214 4.8 0 5 0s.4.214.4.428v4.921c-.1.214-.2.428-.4.428zM5 .214c-.1 0-.2.107-.2.214v4.921c0 .107.1.214.2.214s.1-.107.1-.213V.428C5.1.321 5 .214 5 .214zm0 15.834c-.1 0-.3-.106-.3-.32v-5.029c0-.107.1-.321.3-.321.1 0 .3.107.3.321v5.028c-.1.214-.2.321-.3.321z" fill="#fff"/><path d="M5 16.155c-.2 0-.4-.214-.4-.428V10.7c0-.214.2-.428.4-.428s.4.214.4.428v5.028c-.1.214-.2.428-.4.428zm0-5.563c-.1 0-.2.107-.2.214v5.029c0 .106.1.213.2.213s.2-.106.2-.213v-5.029l-.2-.214zm9.3.107c-.1 0-.3-.107-.3-.321V5.349c0-.106.1-.32.3-.32.1 0 .3.107.3.32v5.029c0 .214-.1.321-.3.321z" fill="#fff"/><path d="M14.3 10.806c-.2 0-.4-.214-.4-.428V5.349c0-.213.2-.427.4-.427s.4.214.4.428v5.028c0 .214-.2.428-.4.428zm0-5.67c-.1 0-.2.107-.2.213v5.029c0 .107.1.214.2.214s.2-.107.2-.214V5.349c0-.106-.1-.213-.2-.213z" fill="#fff"/></svg>