<svg width="389" height="352" fill="none" xmlns="http://www.w3.org/2000/svg"><path d="M149 73h90.499s-8.336-39.955-45.888-39.955C160.115 33.045 149 73 149 73z" fill="#7CAB87"/><path d="M195.188 0h-1.952v33.045h1.952V0z" fill="#000"/><path d="M114.058 176.289L63 210.454l50.294 75.212 51.058-34.165-50.294-75.212z" fill="#F5F5F5"/><path d="M137.921 247.925l-.546 3.596-25.39-3.641.592-3.596 25.344 3.641z" fill="#E0E0E0"/><path d="M125.181 235.135l3.64.546-4.05 24.989-3.64-.546 4.05-24.989z" fill="#E0E0E0"/><path d="M101.793 203.365c.045.046-5.096 3.55-11.421 7.783-6.37 4.233-11.512 7.647-11.558 7.602-.045-.046 5.097-3.551 11.421-7.784 6.325-4.233 11.512-7.646 11.558-7.601zm18.746-4.733c.046.045-8.463 5.826-19.019 12.835-10.511 7.055-19.11 12.699-19.156 12.654-.046-.046 8.463-5.826 19.019-12.836 10.557-7.009 19.156-12.699 19.156-12.653zm3.777 5.644c.046.045-8.463 5.826-19.02 12.835-10.51 7.055-19.11 12.699-19.156 12.654-.045-.046 8.463-5.826 19.02-12.836 10.556-7.055 19.111-12.699 19.156-12.653zm3.777 5.644c.045.045-8.464 5.826-19.02 12.835-10.51 7.055-19.11 12.699-19.156 12.654-.046-.046 8.463-5.826 19.02-12.836 10.556-7.055 19.11-12.699 19.156-12.653zm3.776 5.598c.046.045-8.463 5.826-19.019 12.835-10.511 7.055-19.111 12.699-19.156 12.654-.046-.046 8.463-5.826 19.019-12.836 10.511-7.009 19.111-12.699 19.156-12.653z" fill="#7E9BFB"/><path d="M284.77 226.684l-42.889 28.698 42.223 63.144 42.889-28.699-42.223-63.143z" fill="#F5F5F5"/><path d="M304.821 286.842l-.455 3.049-21.34-3.095.5-3.004 21.295 3.05z" fill="#5379F9"/><path d="M294.082 276.1l3.095.455-3.413 20.983-3.049-.455 3.367-20.983z" fill="#5379F9"/><path d="M274.471 249.427c.046.046-4.277 3.004-9.601 6.555-5.323 3.55-9.691 6.417-9.737 6.372-.045-.046 4.277-3.004 9.601-6.554 5.324-3.596 9.692-6.418 9.737-6.373zm15.744-3.96c.045.046-7.098 4.916-15.926 10.833-8.827 5.917-16.062 10.651-16.062 10.605-.045-.045 7.098-4.916 15.971-10.833 8.782-5.917 16.017-10.65 16.017-10.605zm3.185 4.734c.045.046-7.098 4.916-15.926 10.833-8.827 5.917-16.062 10.651-16.062 10.605-.045-.045 7.099-4.916 15.971-10.833 8.782-5.917 15.971-10.651 16.017-10.605zm3.139 4.733c.046.046-7.098 4.916-15.925 10.833-8.827 5.917-16.062 10.651-16.062 10.605-.046-.045 7.098-4.915 15.971-10.832 8.782-5.917 16.016-10.651 16.016-10.606zm3.186 4.734c.045.046-7.099 4.916-15.926 10.833s-16.062 10.651-16.062 10.605c-.045-.045 7.098-4.915 15.971-10.832 8.782-5.918 15.971-10.697 16.017-10.606z" fill="#E0E0E0"/><path d="M216.92 179.029L170.136 154l-36.845 68.914 46.784 25.028 36.845-68.913z" fill="#F5F5F5"/><path d="M172.047 226.396l-2.957 1.047-7.508-20.846 2.957-1.002 7.508 20.801z" fill="#A79A9A"/><path d="M176.597 211.467l1.092 3.004-20.657 7.055-1.092-2.959 20.657-7.1zm14.743-30.723c-.046.091-4.778-2.413-10.602-5.508-5.824-3.095-10.511-5.689-10.465-5.78.045-.092 4.777 2.412 10.601 5.507 5.779 3.095 10.466 5.689 10.466 5.781zm11.193 12.38c-.045.091-7.872-4.051-17.518-9.24-9.646-5.143-17.473-9.376-17.427-9.467.045-.092 7.872 4.05 17.518 9.239 9.692 5.144 17.473 9.377 17.427 9.468zm-2.73 5.143c-.045.091-7.872-4.051-17.518-9.24-9.646-5.143-17.427-9.421-17.427-9.467.045-.091 7.872 4.051 17.518 9.24 9.646 5.143 17.427 9.422 17.427 9.467zm-2.776 5.143c-.045.091-7.871-4.051-17.518-9.24-9.646-5.143-17.427-9.421-17.427-9.467.046-.091 7.872 4.051 17.518 9.24 9.692 5.189 17.473 9.422 17.427 9.467zm-2.775 5.189c-.046.091-7.872-4.051-17.518-9.24-9.647-5.143-17.427-9.421-17.427-9.467.045-.091 7.871 4.051 17.518 9.24 9.692 5.143 17.472 9.376 17.427 9.467z" fill="#A79A9A"/><path d="M85.412 280.561c2.23.091 4.277 1.274 5.733 2.958 1.457 1.684 2.367 3.778 2.913 5.917 1.091 4.142.409 9.012-.774 13.154-4.46-1.593-7.235-6.372-8.509-8.875-1.91-4.051-3.048-12.426.637-13.154zm14.378 26.99c-1.41-2.048-1.455-4.87-.318-7.055 1.138-2.184 3.276-3.777 5.642-4.506 1.092-.318 2.366-.455 3.322.137.91.592 1.274 1.775 1.138 2.822-.137 1.047-.637 2.048-1.275 2.913-2.229 2.959-4.868 5.416-8.508 5.689z" fill="#E8505B"/><path d="M100.246 321.389s-.091-.319-.182-.865c-.137-.592-.273-1.411-.455-2.367-.364-2.003-.91-4.825-.5-7.92.409-3.095 1.637-5.78 2.957-7.328a10.211 10.211 0 011.683-1.729c.228-.183.41-.319.546-.365.137-.091.182-.136.182-.091.046.046-1.046.729-2.275 2.367-1.228 1.593-2.411 4.188-2.82 7.237-.41 3.05.09 5.872.409 7.829.182 1.001.273 1.821.364 2.367.091.546.136.865.091.865z" fill="#263238"/><path d="M86.868 286.842s.091.091.182.318c.137.274.273.592.455 1.002.41.865.956 2.139 1.638 3.687 1.365 3.14 3.14 7.51 5.051 12.334 1.866 4.871 3.504 9.286 4.596 12.517.546 1.593 1 2.913 1.274 3.824.136.409.227.774.318 1.047.091.227.091.364.091.364s-.045-.137-.136-.364c-.091-.273-.228-.592-.364-1.047-.319-.911-.82-2.231-1.365-3.778-1.183-3.186-2.821-7.647-4.687-12.472a430.965 430.965 0 00-4.96-12.38c-.637-1.547-1.137-2.822-1.547-3.732-.182-.41-.318-.774-.41-1.002-.136-.182-.181-.273-.136-.318z" fill="#263238"/><path d="M94.968 312.24c-2.64-4.506-7.554-7.556-12.786-7.92-1.32-.091-2.913.137-3.504 1.32-.591 1.184.182 2.595 1.092 3.596 3.731 4.051 10.101 5.462 15.243 3.414" fill="#E8505B"/><path d="M84.184 307.87s.318 0 .819.046c.273 0 .591.045.955.091.364.091.82.091 1.274.227.455.137 1.001.228 1.502.41.546.182 1.092.41 1.683.637 1.138.546 2.367 1.229 3.55 2.094 1.137.91 2.138 1.912 2.912 2.913.364.501.728 1.001 1.046 1.456.319.456.546.956.774 1.366.227.41.364.819.546 1.183.136.364.273.683.318.911.137.5.228.773.228.819-.046.045-.364-1.138-1.274-2.777-.228-.409-.455-.864-.774-1.32a12.745 12.745 0 00-1.046-1.456 17.238 17.238 0 00-2.913-2.822c-1.137-.865-2.366-1.548-3.458-2.094-.591-.273-1.137-.5-1.638-.637-.5-.182-1-.319-1.501-.455-1.82-.501-3.003-.546-3.003-.592z" fill="#263238"/><path d="M149.308 73L0 322h389L239.193 73h-89.885z" fill="url(#paint0_linear_218_808)" opacity=".75"/><ellipse cx="180.5" cy="333" rx="80.5" ry="19" fill="#C9CBB4"/><path d="M152.492 240.074l-16.107 82.748-2.093 10.833 107.429-.546c4.823-.046 9.1-4.324 10.647-10.651l19.065-78.106c1.183-4.824-1.41-9.831-5.05-9.831l-108.704.137c-2.457-.046-4.55 2.184-5.187 5.416z" fill="#E8505B"/><path d="M152.492 240.074l-16.107 82.748-2.093 10.833 107.429-.546c4.823-.046 9.1-4.324 10.647-10.651l19.065-78.106c1.183-4.824-1.41-9.831-5.05-9.831l-108.704.137c-2.457-.046-4.55 2.184-5.187 5.416z" fill="#732713"/><path d="M231.392 317.224l-11.376-91.67c-.455-3.778-3.458-6.554-7.007-6.554l-24.935.091c-1.865 0-3.594.774-4.914 2.185l-11.83 12.608-69.345.364c-4.231 0-7.507 4.051-6.916 8.557l10.557 84.751c.455 3.732 3.458 6.554 6.961 6.554l120.852-.227c13.469.273 14.743-3.687 14.743-3.687-15.425 3.323-16.79-12.972-16.79-12.972z" fill="#E74A21"/><g opacity=".5" fill="#fff"><path opacity=".5" d="M179.293 298.881l-4.096 4.37-31.396-28.266 4.096-4.369 31.396 28.265z"/><path opacity=".5" d="M173.514 269.66l4.505 4.051-28.439 30.495-4.505-4.051 28.439-30.495z"/></g><defs><linearGradient id="paint0_linear_218_808" x1="195" y1="21.5" x2="195" y2="362.5" gradientUnits="userSpaceOnUse"><stop stop-color="#FFF964"/><stop offset="1" stop-color="#FFFCB7" stop-opacity="0"/></linearGradient></defs></svg>