<?xml version="1.0" encoding="utf-8"?>
<!-- Generator: Adobe Illustrator 23.0.2, SVG Export Plug-In . SVG Version: 6.00 Build 0)  -->
<svg version="1.1" id="Layer_1" xmlns="http://www.w3.org/2000/svg" xmlns:xlink="http://www.w3.org/1999/xlink" x="0px" y="0px"
	 viewBox="0 0 38 38" style="enable-background:new 0 0 38 38;" xml:space="preserve">
<style type="text/css">
	.st0{fill:#EEB02F;}
	.st1{fill:#DF6549;}
	.st2{fill:#FFFFFF;}
	.st3{fill:#547AF8;}
</style>
<circle class="st0" cx="29.8" cy="15.1" r="8.1"/>
<circle class="st1" cx="10.8" cy="25.4" r="10.9"/>
<path class="st2" d="M32.9,13.2c-1.2-1.1-2.8-0.6-4,0.1c-1.1,0.7-2.5,1.5-3.5,0.1c-0.8-1.1,0.1-2.7,1.4-2.8c1.6-0.2,1.5-2.7-0.1-2.5
	c-3.4,0.4-5.4,4.6-2.8,7.2c1.2,1.2,3,1.7,4.5,1.1c0.8-0.3,1.4-0.8,2.1-1.2c0.3-0.1,0.6-0.4,0.9-0.2c0.4,0.2,0.3,1.1,0.3,1.4
	c-0.1,0.9-0.3,1.8-0.3,2.7c0.1,1,0.6,1.9,1.2,2.7c0.5,0.7,1.3,1.4,1.5,2.3c0.2,0.9,0.1,1.9-0.3,2.6c-1.9,3.5-5.9,8.3-10.3,8.5
	c-2.6,0.1-4.3-1.9-5.9-3.6C16.8,31,16,30,15,29.7c-0.5-0.2-1-0.2-1.5,0c-0.1,0-0.3,0.1-0.4,0.2c0.1-1.1,1.6-2.3,2.1-3
	c0.7-1,1.1-2.3,0-3.3c-1.1-0.9-2.7-0.6-3.8,0.2c-0.5,0.4-2.6,2.9-3.2,2.3c-0.2-0.2,2.2-2.5,2.6-2.9c0.8-1,1.7-2.4,1.5-3.8
	c-0.2-1.3-1.4-2.1-2.7-2c-1.4,0.1-2.1,1.2-3.2,1.8c-1.8-1.7-3.6-3.6-3.8-6.1c-0.2-2.8,2.4-4.6,4.2-6.3c1.8-1.7,3.7-4.4,6.5-4.2
	C15.9,2.8,16.9,4,18.5,6c1,1.2,3.1-0.1,2.1-1.4c-2.1-2.5-3.4-4-6.9-4.5C10-0.4,7.6,2.4,5.1,4.8C2.8,7.1-0.1,9.4,0,13
	c0.2,3.6,2.8,6.3,5.2,8.6C5.6,21.9,6,22,6.5,21.8c0.8-0.2,1.3-0.6,1.9-1.2c0.3-0.2,0.5-0.5,0.9-0.7c0.1-0.1,0.2-0.1,0.4-0.2
	c0.3,0,0.1,0,0.1,0c0.2,0.6-0.8,1.6-1.2,2.1C8,22.5,7.4,23,6.9,23.6c-0.9,1-1.8,2.3-0.9,3.7c0.7,1.1,2.1,1.5,3.3,1.2
	c1.6-0.4,2.3-1.9,3.6-2.7c-0.1,0.1-0.2,0.2-0.3,0.3c-0.5,0.6-1.1,1.2-1.4,1.9c-0.6,1.1-0.8,2.8,0,3.9c0.4,0.5,1,0.6,1.6,0.6
	c0.3,0,0.5-0.1,0.8-0.2c0.5-0.2,0.5-0.3,0.9-0.1c0.6,0.3,1.2,1.2,1.7,1.7c0.6,0.7,1.2,1.3,1.9,1.9c0.9,0.8,2,1.4,3.2,1.8
	c1.4,0.4,2.6,0.3,3.9,0c0.8-0.2,1.6-0.4,2.3-0.8c0.5-0.2,0.9-0.5,1.3-0.9c1.8-1.3,3.5-2.7,4.9-4.3c0.7-0.8,1.4-1.7,2-2.6
	c0.5-0.8,1.3-1.8,1.5-2.8c0.3-1.5-0.8-3.2-1.7-4.3c-0.4-0.6-1-1.1-1.4-1.8c-0.5-0.8-0.4-1.4-0.3-2.3C34.2,16.1,34.3,14.4,32.9,13.2z
	"/>
<path class="st3" d="M25.5,2.8c-1.6,1.7-3.3,3.4-5,4.9c-0.4,0.4-0.9,0.7-1.2,1.1c-0.1,0.1-0.2,0.2-0.3,0.3c-0.2-0.1-0.4-0.4-0.4-0.4
	c-1-0.9-1.9-1.7-2.8-2.6c-1.2-1.1-2.8,0.7-1.7,1.8c1.1,1.1,2.2,2.2,3.5,3.2c1.1,0.9,2.1,0.7,3.1-0.2c2.3-2,4.6-4.2,6.7-6.4
	C28.5,3.3,26.6,1.6,25.5,2.8z"/>
</svg>
