<svg xmlns="http://www.w3.org/2000/svg" viewBox="0 0 38 38"><circle cx="29.8" cy="15.1" r="8.1" fill="#eeb02f"/><circle cx="10.8" cy="25.4" r="10.9" fill="#df6549"/><path d="M32.9 13.2c-1.2-1.1-2.8-.6-4 .1-1.1.7-2.5 1.5-3.5.1-.8-1.1.1-2.7 1.4-2.8 1.6-.2 1.5-2.7-.1-2.5-3.4.4-5.4 4.6-2.8 7.2 1.2 1.2 3 1.7 4.5 1.1.8-.3 1.4-.8 2.1-1.2.3-.1.6-.4.9-.2.4.2.3 1.1.3 1.4-.1.9-.3 1.8-.3 2.7.1 1 .6 1.9 1.2 2.7.5.7 1.3 1.4 1.5 2.3.2.9.1 1.9-.3 2.6-1.9 3.5-5.9 8.3-10.3 8.5-2.6.1-4.3-1.9-5.9-3.6-.8-.6-1.6-1.6-2.6-1.9-.5-.2-1-.2-1.5 0-.1 0-.3.1-.4.2.1-1.1 1.6-2.3 2.1-3 .7-1 1.1-2.3 0-3.3-1.1-.9-2.7-.6-3.8.2-.5.4-2.6 2.9-3.2 2.3-.2-.2 2.2-2.5 2.6-2.9.8-1 1.7-2.4 1.5-3.8-.2-1.3-1.4-2.1-2.7-2-1.4.1-2.1 1.2-3.2 1.8-1.8-1.7-3.6-3.6-3.8-6.1-.2-2.8 2.4-4.6 4.2-6.3 1.8-1.7 3.7-4.4 6.5-4.2 2.6.2 3.6 1.4 5.2 3.4 1 1.2 3.1-.1 2.1-1.4-2.1-2.5-3.4-4-6.9-4.5C10-.4 7.6 2.4 5.1 4.8 2.8 7.1-.1 9.4 0 13c.2 3.6 2.8 6.3 5.2 8.6.4.3.8.4 1.3.2.8-.2 1.3-.6 1.9-1.2.3-.2.5-.5.9-.7.1-.1.2-.1.4-.2h.1c.2.6-.8 1.6-1.2 2.1-.6.7-1.2 1.2-1.7 1.8-.9 1-1.8 2.3-.9 3.7.7 1.1 2.1 1.5 3.3 1.2 1.6-.4 2.3-1.9 3.6-2.7l-.3.3c-.5.6-1.1 1.2-1.4 1.9-.6 1.1-.8 2.8 0 3.9.4.5 1 .6 1.6.6.3 0 .5-.1.8-.2.5-.2.5-.3.9-.1.6.3 1.2 1.2 1.7 1.7.6.7 1.2 1.3 1.9 1.9.9.8 2 1.4 3.2 1.8 1.4.4 2.6.3 3.9 0 .8-.2 1.6-.4 2.3-.8.5-.2.9-.5 1.3-.9 1.8-1.3 3.5-2.7 4.9-4.3.7-.8 1.4-1.7 2-2.6.5-.8 1.3-1.8 1.5-2.8.3-1.5-.8-3.2-1.7-4.3-.4-.6-1-1.1-1.4-1.8-.5-.8-.4-1.4-.3-2.3.4-1.7.5-3.4-.9-4.6z" fill="#fff"/><path d="M25.5 2.8c-1.6 1.7-3.3 3.4-5 4.9-.4.4-.9.7-1.2 1.1l-.3.3c-.2-.1-.4-.4-.4-.4-1-.9-1.9-1.7-2.8-2.6-1.2-1.1-2.8.7-1.7 1.8 1.1 1.1 2.2 2.2 3.5 3.2 1.1.9 2.1.7 3.1-.2 2.3-2 4.6-4.2 6.7-6.4 1.1-1.2-.8-2.9-1.9-1.7z" fill="#547af8"/></svg>