<svg version="1.1" id="Layer_1" xmlns="http://www.w3.org/2000/svg" x="0" y="0" viewBox="0 0 195.6 89.5" xml:space="preserve"><style>.st0{fill:#fff}</style><path class="st0" d="M89.5 31.8v17h-2.4v-6.6c0-1.9.1-3.7.2-5.5h-.1c-.5 1.4-1.1 2.9-1.7 4.5L84.1 45h-2.4l-1.5-3.9c-.6-1.6-1.2-3.1-1.7-4.5h-.1c.1 1.8.1 3.6.2 5.5v6.6h-2.4v-17h2.5l2.9 6.9c.4 1 1 2.6 1.2 3.4h.1c.3-.8.9-2.4 1.2-3.4l2.9-6.9h2.5zm2.4 12.3h2.5c0 1.8 1 2.6 2.5 2.6 1.6 0 2.4-1 2.4-2.3 0-3.4-7.1-3.6-7.1-8.6 0-2.5 1.8-4.3 4.7-4.3 2.9 0 4.7 1.9 4.7 4.8h-2.5c0-1.6-.9-2.4-2.2-2.4-1.4 0-2.2.8-2.2 2 0 3.3 7.2 3.3 7.2 8.6 0 2.5-1.8 4.7-5 4.7-3.1-.1-5-1.9-5-5.1zM117.6 32v17h-2.5v-7.5h-4.8V49h-2.5V32h2.5v7.3h4.8V32h2.5zm12 14.8v2.3H121V32h8.4v2.3h-5.9v4.9h5.4v2.3h-5.4v5.2h6.1zm10.7-.1V49h-8.1V32h2.5v14.7h5.6zm11.6-9.2c0 3.6-1.9 5.6-5.2 5.6h-2v6h-2.5V32h4.5c3.3 0 5.2 2.1 5.2 5.5zm-2.5 0c0-2.1-.9-3.2-2.8-3.2h-2v6.4h2c1.9.1 2.8-1 2.8-3.2zm13.2 9.3v2.3H154V32h8.4v2.3h-5.9v4.9h5.4v2.3h-5.4v5.2h6.1zm6.6-3.9h-1.5v6.2h-2.5V32h4.4c3.3 0 5.1 1.9 5.1 5.3 0 2.7-1.1 4.5-3.1 5.2l3.7 6.5h-2.7l-3.4-6.1zm-1.5-2.3h1.9c1.7 0 2.6-1.1 2.6-3.1s-.9-3-2.6-3h-1.9v6.1zM77.4 52.9h.5v2.6h-.5v-1.1h-1v1.1h-.5v-2.6h.5v1h1v-1zm3.4 2.2c-.3.3-.6.4-.9.4-.4 0-.7-.1-.9-.4-.3-.3-.4-.6-.4-.9s.1-.7.4-.9c.3-.3.6-.4.9-.4.4 0 .7.1.9.4.3.3.4.6.4.9s-.1.6-.4.9zm-1.5-.4c.2.2.4.2.6.2s.4-.1.6-.2c.2-.2.2-.4.2-.6s-.1-.4-.2-.6c-.2-.2-.4-.2-.6-.2s-.4.1-.6.2c-.2.2-.2.4-.2.6s0 .5.2.6zm4-.6c.2.1.3.3.3.6 0 .2-.1.4-.2.5-.2.1-.3.2-.6.2h-1.1v-2.6h1c.2 0 .4.1.6.2.2.1.2.3.2.5.1.3 0 .5-.2.6zm-.5-.8h-.5v.6h.5c.1 0 .1 0 .2-.1s.1-.1.1-.2 0-.1-.1-.2c0 0-.1-.1-.2-.1zm.1 1.6c.1 0 .2 0 .2-.1.1-.1.1-.1.1-.2s0-.2-.1-.2c-.1-.1-.1-.1-.2-.1h-.6v.6h.6zm3.1.5l-.2-.4h-1.1l-.2.5H84l.9-2.6h.6l.9 2.6H86zm-1.1-.9h.7l-.4-1-.3 1zm3-1.6c.2 0 .5.1.6.2.2.2.3.4.3.6 0 .2-.1.4-.3.6-.2.2-.4.2-.6.2h-.5v.8H87v-2.6h.9zm0 1.2c.1 0 .2 0 .3-.1.1-.1.1-.2.1-.3 0-.1 0-.2-.1-.3-.1-.1-.2-.1-.3-.1h-.5v.8h.5zm3.1-1.2v.5h-.7v2.1h-.5v-2.1h-.7v-.5H91zm2.1 2.5v-1.6L92 55.4h-.4v-2.6h.5v1.6l1.1-1.6h.4v2.6h-.5zm2.4.1c-.4 0-.7-.1-1-.4-.3-.3-.4-.6-.4-.9 0-.4.1-.7.4-1 .3-.3.6-.4 1-.4.2 0 .4.1.6.2.2.1.4.3.5.4l-.4.3-.3-.3c-.1-.1-.2-.1-.4-.1s-.5.1-.6.2c-.2.2-.2.4-.2.6 0 .2.1.4.2.6.2.2.4.2.6.2.1 0 .3 0 .4-.1l.3-.3.4.3c-.1.2-.3.3-.5.4s-.3.3-.6.3zm2.9-1V54h1.4v.5h-1.4zm4.2-1.6c.2 0 .5.1.6.2.2.2.3.4.3.6 0 .2-.1.4-.3.6-.2.2-.4.2-.6.2h-.5v.8h-.5v-2.6h1zm0 1.2c.1 0 .2 0 .3-.1.1-.1.1-.2.1-.3 0-.1 0-.2-.1-.3-.1-.1-.2-.1-.3-.1h-.5v.8h.5zm2 .8h1.1v.5h-1.6v-2.6h1.6v.5h-1.1v.5h1v.5h-1v.6zm2.9.6c-.4 0-.7-.1-1-.4-.3-.3-.4-.6-.4-.9 0-.4.1-.7.4-1 .3-.3.6-.4 1-.4.2 0 .4.1.6.2.2.1.4.3.5.4l-.4.3-.3-.3c-.1-.1-.2-.1-.4-.1s-.5.1-.6.2c-.2.2-.2.4-.2.6 0 .2.1.4.2.6.2.2.4.2.6.2.1 0 .3 0 .4-.1l.3-.3.4.3c-.1.2-.3.3-.5.4s-.4.3-.6.3zm3-2.6h.5l-.8 1.9c-.2.5-.5.7-1 .7V55c.1 0 .2 0 .3-.1s.2-.1.2-.2l-.8-1.8h.5l.6 1.2.5-1.2zm2 0c.2 0 .5.1.6.2.2.2.3.4.3.6 0 .2-.1.4-.3.6-.2.2-.4.2-.6.2h-.5v.8h-.5v-2.6h1zm0 1.2c.1 0 .2 0 .3-.1.1-.1.1-.2.1-.3 0-.1 0-.2-.1-.3-.1-.1-.2-.1-.3-.1h-.5v.8h.5zm2.7 1.4c-.4 0-.7-.1-1-.4-.3-.3-.4-.6-.4-.9 0-.4.1-.7.4-1 .3-.3.6-.4 1-.4.2 0 .4.1.6.2.2.1.4.3.5.4l-.4.3-.3-.3c-.1-.1-.2-.1-.4-.1s-.5.1-.6.2-.2.4-.2.6c0 .2.1.4.2.6s.4.2.6.2c.1 0 .3 0 .4-.1l.3-.3.4.3c-.1.2-.3.3-.5.4s-.4.3-.6.3zm4.8-2.6v2.6h-.5v-2.1h-.9v2.1h-.5v-2.6h1.9zm2.9 2.2c-.3.3-.6.4-.9.4s-.7-.1-.9-.4c-.3-.3-.4-.6-.4-.9s.1-.7.4-.9c.3-.3.6-.4.9-.4s.7.1.9.4c.3.3.4.6.4.9s-.2.6-.4.9zm-1.5-.4c.2.2.4.2.6.2.2 0 .4-.1.6-.2.2-.2.2-.4.2-.6s-.1-.4-.2-.6c-.2-.2-.4-.2-.6-.2-.2 0-.4.1-.6.2-.2.2-.2.4-.2.6s0 .5.2.6zm4.6-1.8c.2 0 .5.1.6.2.2.2.3.4.3.6 0 .2-.1.4-.3.6-.2.2-.4.2-.6.2h-.5v.8h-.5v-2.6h1zm0 1.2c.1 0 .2 0 .3-.1.1-.1.1-.2.1-.3 0-.1 0-.2-.1-.3-.1-.1-.2-.1-.3-.1h-.5v.8h.5zm2.9 1.3l-.2-.5h-1.1l-.2.5h-.4l.9-2.6h.6l.9 2.6h-.5zm-1-.9h.7l-.4-1-.3 1zm3.2 1c-.4 0-.7-.1-1-.4-.3-.3-.4-.6-.4-.9 0-.4.1-.7.4-1 .3-.3.6-.4 1-.4.2 0 .4.1.6.2.2.1.4.3.5.4l-.4.3-.3-.3c-.1-.1-.2-.1-.4-.1s-.5.1-.6.2c-.2.2-.2.4-.2.6 0 .2.1.4.2.6.2.2.4.2.6.2.1 0 .3 0 .4-.1l.3-.3.4.3c-.1.2-.3.3-.5.4-.2.2-.4.3-.6.3zm2.8 0c-.4 0-.7-.1-1-.4-.3-.3-.4-.6-.4-.9 0-.4.1-.7.4-1 .3-.3.6-.4 1-.4.2 0 .4.1.6.2.2.1.4.3.5.4l-.4.3-.3-.3c-.1-.1-.2-.1-.4-.1s-.5.1-.6.2-.2.4-.2.6c0 .2.1.4.2.6s.4.2.6.2c.1 0 .3 0 .4-.1l.3-.3.4.3c-.1.2-.3.3-.5.4-.1.2-.3.3-.6.3zm2.2-.6h1.1v.5h-1.6v-2.6h1.6v.5h-1.1v.5h1v.5h-1v.6zm3.5-2v2.6h-.5v-.9h-.3l-.6.9h-.6l.6-.9c-.2-.1-.3-.2-.4-.3-.1-.1-.2-.3-.2-.5s.1-.4.2-.6c.2-.2.4-.2.6-.2h1.2zm-1 1.2h.5v-.8h-.5c-.1 0-.2 0-.2.1-.1.1-.1.2-.1.3 0 .1 0 .2.1.3 0 0 .1.1.2.1zm3.2-1.2h.5v2.6h-.5v-1.1h-1v1.1h-.5v-2.6h.5v1h1v-1zm2.7 0h.5v2.6h-.5v-1.1h-1v1.1h-.5v-2.6h.5v1h1v-1zm3.4 2.2c-.3.3-.6.4-.9.4-.4 0-.7-.1-.9-.4-.3-.3-.4-.6-.4-.9s.1-.7.4-.9c.3-.3.6-.4.9-.4.4 0 .7.1.9.4.3.3.4.6.4.9s-.2.6-.4.9zm-1.5-.4c.2.2.4.2.6.2.2 0 .4-.1.6-.2.2-.2.2-.4.2-.6s-.1-.4-.2-.6c-.2-.2-.4-.2-.6-.2-.2 0-.4.1-.6.2-.2.2-.2.4-.2.6s0 .5.2.6zm5-1.8v2.6h-.5v-1.7l-.7 1.2h-.1l-.7-1.2v1.7h-.5v-2.6h.5l.7 1.2.7-1.2h.6zm2.2 0h.5l-.8 1.9c-.2.5-.5.7-1 .7V55c.1 0 .2 0 .3-.1.1-.1.2-.1.2-.2l-.8-1.8h.5l.6 1.2.5-1.2zm3.4 2.6c-.4 0-.7-.1-1-.4-.3-.3-.4-.6-.4-.9 0-.4.1-.7.4-1 .3-.3.6-.4 1-.4.2 0 .4.1.6.2.2.1.4.3.5.4l-.4.3-.3-.3c-.1-.1-.2-.1-.4-.1s-.5.1-.6.2c-.2.2-.2.4-.2.6 0 .2.1.4.2.6.2.2.4.2.6.2.1 0 .3 0 .4-.1l.3-.3.4.3c-.1.2-.3.3-.5.4-.2.2-.4.3-.6.3zm3.7-.1h-.6l-.9-1.2v1.2h-.5v-2.6h.5V54l.9-1.1h.6l-.9 1.2.9 1.3zm.3 0v-.5c.2 0 .3 0 .3-.1.1-.1.1-.2.1-.5v-1.5h1.7v2.6h-.5v-2.1h-.6v1c0 .2 0 .4-.1.6-.1.2-.1.3-.2.3-.1.1-.2.1-.3.1-.2.1-.3.1-.4.1zm3.4-.5h1.1v.5h-1.6v-2.6h1.6v.5h-1.1v.5h1v.5h-1v.6zm2.7-2c.2 0 .5.1.6.2.2.2.3.4.3.6 0 .2-.1.4-.3.6-.2.2-.4.2-.6.2h-.5v.8h-.5v-2.6h1zm0 1.2c.1 0 .2 0 .3-.1.1-.1.1-.2.1-.3 0-.1 0-.2-.1-.3-.1-.1-.2-.1-.3-.1h-.5v.8h.5zm3.6 1c-.3.3-.6.4-.9.4-.4 0-.7-.1-.9-.4-.3-.3-.4-.6-.4-.9s.1-.7.4-.9c.3-.3.6-.4.9-.4.4 0 .7.1.9.4.3.3.4.6.4.9s-.1.6-.4.9zm-1.5-.4c.2.2.4.2.6.2s.4-.1.6-.2c.2-.2.2-.4.2-.6s-.1-.4-.2-.6c-.2-.2-.4-.2-.6-.2s-.4.1-.6.2c-.2.2-.2.4-.2.6s0 .5.2.6zm3.7-.6c.2.1.4.3.4.6 0 .2-.1.4-.3.6-.2.1-.4.2-.7.2-.5 0-.8-.2-1-.6l.4-.2c.1.2.3.4.5.4.1 0 .2 0 .3-.1.1-.1.1-.1.1-.2s0-.2-.1-.2c-.1-.1-.2-.1-.3-.1h-.3V54h.2c.1 0 .2 0 .3-.1.1-.1.1-.1.1-.2s0-.2-.1-.2c-.1-.1-.2-.1-.3-.1-.2 0-.4.1-.5.3l-.4-.2c.2-.4.5-.5.9-.5.3 0 .5.1.6.2.2.1.2.3.2.5.3.1.2.3 0 .4zm2.3-1.2h.5l-.8 1.9c-.2.5-.5.7-1 .7V55c.1 0 .2 0 .3-.1.1-.1.2-.1.2-.2l-.8-1.8h.5l.6 1.2.5-1.2z"/><circle cx="59.1" cy="39.8" r="10.6" fill="#eeb02f"/><circle cx="34.2" cy="53.2" r="14.2" fill="#df6549"/><path class="st0" d="M63.1 37.3c-1.6-1.4-3.6-.8-5.2.2-1.5.9-3.2 2-4.6.2-1.1-1.4.1-3.5 1.8-3.7 2.1-.2 1.9-3.5-.1-3.3-4.5.5-7.1 6-3.7 9.4 1.5 1.5 3.9 2.2 5.9 1.5 1-.3 1.8-1 2.7-1.5.3-.2.8-.5 1.1-.3.5.3.4 1.4.4 1.9-.1 1.2-.5 2.3-.3 3.5.1 1.4.8 2.5 1.6 3.6.7.9 1.7 1.8 2 3 .2 1.1.1 2.4-.4 3.4-2.5 4.6-7.7 10.8-13.5 11.1-3.4.1-5.6-2.4-7.7-4.7-.9-1-2-2.2-3.3-2.7-.6-.2-1.3-.2-1.9 0-.1 0-.3.1-.5.2.2-1.4 2.1-3 2.7-3.9.9-1.3 1.4-3.1 0-4.3-1.5-1.2-3.5-.7-5 .3-.7.5-3.4 3.8-4.2 3-.2-.2 2.9-3.3 3.4-3.8 1.1-1.4 2.2-3.2 1.9-5-.3-1.7-1.8-2.7-3.5-2.6-1.9.2-2.8 1.6-4.2 2.4-2.3-2.2-4.7-4.7-5-8-.3-3.6 3.2-6 5.5-8.3 2.3-2.3 4.9-5.8 8.5-5.4 3.6.4 4.8 1.9 7 4.5 1.3 1.6 4.1-.2 2.7-1.8-2.8-3.3-4.5-5.2-9-5.9-4.9-.7-8 2.9-11.2 6.1-3.1 3-6.9 6-6.7 10.8.2 4.7 3.6 8.2 6.8 11.2.4.4 1 .5 1.6.3 1-.3 1.8-.8 2.5-1.5.3-.3.7-.7 1.1-.9.2-.1.3-.2.5-.2.4 0 .2.1.2 0 .2.8-1.1 2.2-1.6 2.7-.7.8-1.5 1.5-2.2 2.3-1.2 1.4-2.3 3.1-1.1 4.8.9 1.4 2.7 2 4.3 1.5 2.1-.6 3-2.5 4.7-3.6-.1.1-.2.3-.4.4-.7.8-1.4 1.6-1.9 2.5-.8 1.5-1.1 3.6 0 5.1.5.6 1.3.8 2.1.8.4 0 .7-.2 1.1-.3.6-.2.6-.4 1.1-.1.8.4 1.6 1.5 2.2 2.2.8.9 1.6 1.7 2.5 2.5 1.2 1 2.7 1.9 4.2 2.3 1.8.5 3.3.4 5.1-.1 1-.3 2-.6 3-1 .6-.3 1.2-.7 1.7-1.1 2.3-1.7 4.5-3.5 6.5-5.7 1-1.1 1.9-2.2 2.7-3.4.7-1 1.7-2.4 1.9-3.6.3-2-1.1-4.2-2.2-5.7-.6-.8-1.3-1.5-1.8-2.3-.6-1-.6-1.9-.4-3 .3-2.1.4-4.5-1.4-6z"/><path d="M53.4 23.7c-2.1 2.2-4.3 4.4-6.5 6.4-.5.5-1.2.9-1.6 1.4-.1.1-.3.2-.3.4l-.6-.6c-1.2-1.1-2.5-2.3-3.7-3.5-1.5-1.5-3.7 1-2.2 2.4s2.9 2.9 4.5 4.2c1.4 1.2 2.7 1 4.1-.2 3.1-2.6 6-5.5 8.7-8.4 1.5-1.4-1-3.6-2.4-2.1z" fill="#547af8"/></svg>