<svg xmlns="http://www.w3.org/2000/svg" viewBox="0 0 100 29"><path d="M13.6 3.3v17h-2.4v-6.6c0-1.9.1-3.7.2-5.5h-.1c-.5 1.4-1.1 2.9-1.7 4.5l-1.5 3.9H5.7l-1.5-3.9C3.6 11.1 3 9.6 2.5 8.2h-.1c.1 1.8.1 3.6.2 5.5v6.6H.3v-17h2.5l2.9 6.9c.4 1 1 2.6 1.2 3.4H7c.3-.8.9-2.4 1.2-3.4l2.9-6.9h2.5zM16 15.7h2.5c0 1.8 1 2.6 2.5 2.6 1.6 0 2.4-1 2.4-2.3 0-3.4-7.1-3.6-7.1-8.6 0-2.5 1.8-4.3 4.7-4.3 2.9 0 4.7 1.9 4.7 4.8h-2.5c0-1.6-.9-2.4-2.2-2.4-1.4 0-2.2.8-2.2 2 0 3.3 7.2 3.3 7.2 8.6 0 2.5-1.8 4.7-5 4.7-3.1-.1-5-2-5-5.1zM41.7 3.6v17h-2.5v-7.5h-4.8v7.5h-2.5v-17h2.5v7.3h4.8V3.6h2.5zm12 14.7v2.3h-8.6v-17h8.4v2.3h-5.9v4.9H53v2.3h-5.4v5.2h6.1zm10.7 0v2.3h-8.1v-17h2.5v14.7h5.6zM76 9.1c0 3.6-1.9 5.6-5.2 5.6h-2v6h-2.5v-17h4.5c3.3-.1 5.2 1.9 5.2 5.4zm-2.5 0c0-2.1-.9-3.2-2.8-3.2h-2v6.4h2c1.9 0 2.8-1 2.8-3.2zm13.2 9.2v2.3h-8.6v-17h8.4v2.3h-5.9v4.9H86v2.3h-5.4v5.2h6.1zm6.6-3.8h-1.5v6.2h-2.5v-17h4.4c3.3 0 5.1 1.9 5.1 5.3 0 2.7-1.1 4.5-3.1 5.2l3.7 6.5h-2.7l-3.4-6.2zm-1.5-2.4h1.9c1.7 0 2.6-1.1 2.6-3.1s-.9-3-2.6-3h-1.9v6.1zM1.5 24.4H2V27h-.5v-1.1h-1V27H0v-2.6h.5v1h1v-1zm3.4 2.2c-.3.3-.6.4-1 .4s-.7-.1-.9-.4-.4-.6-.4-.9c0-.4.1-.7.4-.9s.6-.4.9-.4c.4 0 .7.1.9.4.3.3.4.6.4.9.1.4-.1.7-.3.9zm-1.5-.3c.2.2.4.2.6.2s.4-.1.6-.2c.2-.2.2-.4.2-.6 0-.2-.1-.4-.2-.6-.2-.2-.4-.2-.6-.2s-.4.1-.6.2c-.2.2-.2.4-.2.6-.1.2 0 .4.2.6zm4-.6c.2.1.3.3.3.6 0 .2-.1.4-.2.5-.1.1-.3.2-.5.2H5.9v-2.6h1c.2 0 .4.1.6.2.2.1.2.3.2.5 0 .3-.1.4-.3.6zm-.5-.8h-.5v.6h.5c.1 0 .1 0 .2-.1s.1-.1.1-.2 0-.1-.1-.2-.1-.1-.2-.1zm.1 1.6c.1 0 .2 0 .2-.1.1-.1.1-.1.1-.2s0-.2-.1-.2c-.1-.1-.1-.1-.2-.1h-.6v.6H7zm3.1.5l-.2-.5H8.8l-.1.5h-.6l.9-2.6h.6l.9 2.6h-.4zM9 26.1h.7l-.4-1-.3 1zm3-1.7c.2 0 .5.1.6.2.2.2.3.4.3.6 0 .2-.1.4-.3.6-.2.2-.4.2-.6.2h-.5v1H11v-2.6h1zm0 1.3c.1 0 .2 0 .3-.1.1-.1.1-.2.1-.3 0-.1 0-.2-.1-.3-.1-.1-.2-.1-.3-.1h-.5v.8h.5zm3.1-1.3v.5h-.7V27h-.5v-2.1h-.7v-.5h1.9zm2.1 2.6v-1.6L16.1 27h-.4v-2.6h.5V26l1.1-1.6h.4V27h-.5zm2.4 0c-.4 0-.7-.1-1-.4-.3-.3-.4-.6-.4-.9 0-.4.1-.7.4-1 .3-.3.6-.4 1-.4.2 0 .4.1.6.2.2.1.4.3.5.4l-.4.3c-.1-.1-.2-.2-.3-.2-.1-.1-.2-.1-.4-.1s-.5.1-.6.2c-.2.2-.2.4-.2.6 0 .2.1.4.2.6.2.2.4.2.6.2.1 0 .3 0 .4-.1l.3-.3.4.3c-.1.2-.3.3-.5.4-.1.2-.3.2-.6.2zm2.9-.9v-.5h1.4v.5h-1.4zm4.2-1.7c.2 0 .5.1.6.2.2.2.3.4.3.6 0 .2-.1.4-.3.6-.2.2-.4.2-.6.2h-.5v1h-.5v-2.6h1zm0 1.3c.1 0 .2 0 .3-.1.1-.1.1-.2.1-.3 0-.1 0-.2-.1-.3-.1-.1-.2-.1-.3-.1h-.5v.8h.5zm2 .8h1.1v.5h-1.6v-2.6h1.6v.5h-1.1v.5h1v.5h-1v.6zm2.9.5c-.4 0-.7-.1-1-.4-.3-.3-.4-.6-.4-.9 0-.4.1-.7.4-1 .3-.3.6-.4 1-.4.2 0 .4.1.6.2.2.1.4.3.5.4l-.4.3c-.1-.1-.2-.2-.3-.2-.1-.1-.2-.1-.4-.1s-.5.1-.6.2c-.2.2-.2.4-.2.6 0 .2.1.4.2.6.2.2.4.2.6.2.1 0 .3 0 .4-.1l.3-.3.4.3c-.1.2-.3.3-.5.4s-.4.2-.6.2zm3-2.6h.5l-.8 1.9c-.2.5-.5.7-1 .7v-.5c.1 0 .2 0 .3-.1.1-.1.2-.1.2-.2l-.8-1.8h.5l.6 1.2.5-1.2zm2 0c.2 0 .5.1.6.2.2.2.3.4.3.6 0 .2-.1.4-.3.6-.2.2-.4.2-.6.2h-.5v1h-.5v-2.6h1zm0 1.3c.1 0 .2 0 .3-.1.1-.1.1-.2.1-.3 0-.1 0-.2-.1-.3-.1-.1-.2-.1-.3-.1h-.5v.8h.5zm2.7 1.3c-.4 0-.7-.1-1-.4-.3-.3-.4-.6-.4-.9 0-.4.1-.7.4-1 .3-.3.6-.4 1-.4.2 0 .4.1.6.2.2.1.4.3.5.4l-.4.3-.3-.3c-.1-.1-.2-.1-.4-.1s-.5.1-.6.2c-.2.2-.2.4-.2.6 0 .2.1.4.2.6.2.2.4.2.6.2.1 0 .3 0 .4-.1l.3-.3.4.3c-.1.2-.3.3-.5.4s-.4.3-.6.3zm4.8-2.6V27h-.5v-2.1h-.9V27h-.5v-2.6h1.9zm2.9 2.2c-.3.3-.6.4-1 .4s-.7-.1-.9-.4c-.3-.3-.4-.6-.4-.9 0-.4.1-.7.4-.9.3-.3.6-.4.9-.4s.7.1.9.4.4.6.4.9c.1.4-.1.7-.3.9zm-1.5-.3c.2.2.4.2.6.2.2 0 .4-.1.6-.2.2-.2.2-.4.2-.6 0-.2-.1-.4-.2-.6s-.4-.2-.6-.2c-.2 0-.4.1-.6.2-.2.2-.2.4-.2.6-.1.2 0 .4.2.6zm4.6-1.9c.2 0 .5.1.6.2.2.2.3.4.3.6 0 .2-.1.4-.3.6-.2.2-.4.2-.6.2h-.5v1h-.5v-2.6h1zm0 1.3c.1 0 .2 0 .3-.1.1-.1.1-.2.1-.3 0-.1 0-.2-.1-.3-.1-.1-.2-.1-.3-.1h-.5v.8h.5zM53 27l-.2-.5h-1.1l-.1.5h-.5l.9-2.6h.6l.9 2.6H53zm-1-.9h.7l-.4-1-.3 1zm3.2.9c-.4 0-.7-.1-1-.4-.3-.3-.4-.6-.4-.9 0-.4.1-.7.4-1 .3-.3.6-.4 1-.4.2 0 .4.1.6.2.2.1.4.3.5.4l-.4.3-.3-.3c-.1-.1-.2-.1-.4-.1s-.5.1-.6.2c-.2.2-.2.4-.2.6 0 .2.1.4.2.6.2.2.4.2.6.2.1 0 .3 0 .4-.1l.3-.3.4.3c-.1.2-.3.3-.5.4-.2.3-.4.3-.6.3zm2.8 0c-.4 0-.7-.1-1-.4-.3-.3-.4-.6-.4-.9 0-.4.1-.7.4-1 .3-.3.6-.4 1-.4.2 0 .4.1.6.2.2.1.4.3.5.4l-.4.3-.3-.3c-.1-.1-.2-.1-.4-.1s-.5.1-.6.2c-.2.2-.2.4-.2.6 0 .2.1.4.2.6.2.2.4.2.6.2.1 0 .3 0 .4-.1l.3-.3.4.3c-.1.2-.3.3-.5.4s-.3.3-.6.3zm2.2-.5h1.1v.5h-1.6v-2.6h1.6v.5h-1.1v.5h1v.5h-1v.6zm3.5-2.1V27h-.5v-.9h-.3l-.6.9h-.6l.6-.9c-.2-.1-.3-.2-.4-.3-.1-.1-.2-.3-.2-.5s.1-.4.2-.6c.2-.2.4-.2.6-.2h1.2zm-1 1.3h.5v-.8h-.5c-.1 0-.2 0-.2.1-.1.1-.1.2-.1.3 0 .1 0 .2.1.3 0 0 .1.1.2.1zm3.2-1.3h.5V27h-.5v-1.1h-1V27h-.5v-2.6h.5v1h1v-1zm2.7 0h.5V27h-.5v-1.1h-1V27h-.5v-2.6h.5v1h1v-1zm3.4 2.2c-.3.3-.6.4-1 .4s-.7-.1-.9-.4-.4-.6-.4-.9c0-.4.1-.7.4-.9s.6-.4.9-.4.7.1.9.4.4.6.4.9c.1.4-.1.7-.3.9zm-1.6-.3c.2.2.4.2.6.2.2 0 .4-.1.6-.2.2-.2.2-.4.2-.6 0-.2-.1-.4-.2-.6s-.4-.2-.6-.2c-.2 0-.4.1-.6.2s-.2.4-.2.6c0 .2.1.4.2.6zm5.1-1.9V27H75v-1.7l-.7 1.2h-.1l-.7-1.2V27H73v-2.6h.5l.7 1.2.7-1.2h.6zm2.2 0h.5l-.8 1.9c-.2.5-.5.7-1 .7v-.5c.1 0 .2 0 .3-.1.1-.1.2-.1.2-.2l-.8-1.8h.5l.6 1.2.5-1.2zm3.4 2.6c-.4 0-.7-.1-1-.4-.3-.3-.4-.6-.4-.9 0-.4.1-.7.4-1 .3-.3.6-.4 1-.4.2 0 .4.1.6.2.2.1.4.3.5.4l-.4.3-.3-.3c-.1-.1-.2-.1-.4-.1s-.5.1-.6.2-.2.4-.2.6c0 .2.1.4.2.6s.4.2.6.2c.1 0 .3 0 .4-.1l.3-.3.4.3c-.1.2-.3.3-.5.4-.2.3-.4.3-.6.3zm3.7 0h-.6l-.9-1.2V27h-.5v-2.6h.5v1.1l.9-1.1h.6l-.9 1.2.9 1.4zm.3 0v-.5c.2 0 .3 0 .3-.1.1-.1.1-.2.1-.5v-1.5h1.7V27h-.5v-2.1H86v1c0 .2 0 .4-.1.6-.1.2-.1.3-.2.3-.1.1-.2.1-.3.1-.1.1-.2.1-.3.1zm3.4-.5h1.1v.5H88v-2.6h1.6v.5h-1.1v.5h1v.5h-1v.6zm2.7-2.1c.2 0 .5.1.6.2.2.2.3.4.3.6 0 .2-.1.4-.3.6-.2.2-.4.2-.6.2h-.5v1h-.5v-2.6h1zm0 1.3c.1 0 .2 0 .3-.1.1-.1.1-.2.1-.3 0-.1 0-.2-.1-.3-.1-.1-.2-.1-.3-.1h-.5v.8h.5zm3.6.9c-.3.3-.6.4-.9.4s-.7-.1-.9-.4c-.3-.3-.4-.6-.4-.9 0-.4.1-.7.4-.9.3-.3.6-.4.9-.4s.7.1.9.4c.3.3.4.6.4.9 0 .4-.2.7-.4.9zm-1.5-.3c.2.2.4.2.6.2s.4-.1.6-.2c.2-.2.2-.4.2-.6 0-.2-.1-.4-.2-.6-.2-.2-.4-.2-.6-.2s-.4.1-.6.2c-.2.2-.2.4-.2.6-.1.2 0 .4.2.6zm3.7-.6c.2.1.4.3.4.6 0 .2-.1.4-.3.6-.1.1-.4.1-.6.1-.5 0-.8-.2-1-.6l.4-.2c.1.2.3.4.5.4.1 0 .2 0 .3-.1.1-.1.1-.1.1-.2s0-.2-.1-.2c-.1-.1-.2-.1-.3-.1h-.3v-.5h.2c.1 0 .2 0 .3-.1.1-.1.1-.1.1-.2s0-.2-.1-.2c-.1-.1-.2-.1-.3-.1-.2 0-.4.1-.5.3l-.4-.2c.2-.4.5-.5.9-.5.3 0 .5.1.6.2.2.1.2.3.2.5.2.1.1.3-.1.5zm2.3-1.3h.5l-.8 1.9c-.2.5-.5.7-1 .7v-.5c.1 0 .2 0 .3-.1.1-.1.2-.1.2-.2l-.8-1.8h.5l.6 1.2.5-1.2z" fill="#fff"/></svg>