<svg width="22" height="19" viewBox="0 0 22 19" fill="none" xmlns="http://www.w3.org/2000/svg">
<path d="M15.2307 0V2.65542C11.5197 3.65557 6.23074 6.33268 4.51274 11.9683C8.80608 7.97143 14.8767 8.40683 15.2307 8.42457V11.08L22 5.54464L15.2307 0ZM1.12811 1.79535C0.537461 1.79535 0 2.36556 0 2.99208V17.3541C0 17.9806 0.537511 18.5508 1.12811 18.5508H15.7948C16.3855 18.5508 16.923 17.9806 16.923 17.3541V11.2016L15.9182 12.0243L14.6665 13.0528V16.1572H2.25617V4.18891H9.05212C10.7026 3.06811 12.4544 2.2976 14.0233 1.79519L1.12811 1.79535Z" fill="white"/>
</svg>
