<svg width="537" height="485" viewBox="0 0 537 485" fill="none" xmlns="http://www.w3.org/2000/svg">
<path d="M491.695 77.8503L483.802 116.075L478.786 111.132L470.153 117.311L463.575 109.073L448.775 119.865L436.195 98.6927L422.052 106.931L416.461 99.2694L398.618 109.32L393.274 97.7865L405.772 36.9893L472.948 50.9117L491.695 77.8503Z" fill="#8CAAE8"/>
<path d="M472.948 50.9116L491.695 77.8502L468.344 73.0721L472.948 50.9116Z" fill="#6786C6"/>
<path d="M482.157 123.654L470.564 179.673L380.118 160.973L391.547 105.448L396.974 116.981L414.816 106.848L420.408 114.592L434.468 106.354L447.13 127.444L461.848 116.734L468.426 124.89L477.059 118.711L482.157 123.654Z" fill="#8CAAE8"/>
<path d="M352.656 117.146L260.401 122.83L253.083 4.28382L321.576 0L346.736 21.0896L352.656 117.146Z" fill="#8CAAE8"/>
<path d="M321.576 0L346.736 21.0896L322.973 22.5724L321.576 0Z" fill="#6786C6"/>
<path d="M296.004 79.8271L295.675 77.1909C294.771 71.6713 296.251 65.4104 301.102 58.9847C305.46 53.218 307.762 49.0989 307.515 44.4032C307.186 39.1308 303.733 35.8356 297.237 36.0827C293.537 36.3299 289.508 37.7303 286.959 39.8722L284.082 33.5289C287.37 30.8927 293.126 28.9156 298.635 28.586C310.475 27.927 316.231 34.9294 316.724 42.838C317.135 49.8404 313.517 55.1127 308.831 61.2913C304.555 66.8932 303.157 71.589 303.815 76.779L304.062 79.4975L296.004 79.8271ZM294.524 94.4085C294.277 90.619 296.744 87.7357 300.362 87.5709C303.98 87.4061 306.611 89.8776 306.775 93.7495C306.94 97.3742 304.802 100.258 300.937 100.505C297.402 100.669 294.771 98.0333 294.524 94.4085Z" fill="#4C68A3"/>
<path d="M62.9007 113.521L53.6094 109.32L52.2938 112.203C51.8827 113.027 51.0605 113.604 50.156 113.604C49.6627 113.604 49.1694 113.686 48.676 113.768C47.7716 113.933 46.8671 113.521 46.3738 112.78L44.5649 110.226L36.2603 116.157L38.0692 118.711C38.5626 119.453 38.6448 120.441 38.2337 121.265C37.987 121.759 37.8225 122.171 37.5759 122.666C37.247 123.489 36.507 124.148 35.6025 124.231L32.478 124.56L33.4647 134.693L36.5892 134.364C37.4936 134.281 38.3981 134.693 38.8914 135.517C39.0559 135.764 39.1381 135.929 39.3026 136.176C39.467 136.341 39.6315 136.588 39.7959 136.753C40.3715 137.494 40.5359 138.4 40.1248 139.224L38.8092 142.107L48.1005 146.309L49.416 143.426C49.8271 142.602 50.6494 142.025 51.5538 142.025C52.0472 142.025 52.5405 141.943 53.0339 141.86C53.9383 141.696 54.8428 142.107 55.3361 142.849L57.145 145.403L65.4496 139.471L63.6407 136.917C63.1473 136.176 63.0651 135.187 63.4762 134.364C63.7229 133.952 63.8873 133.457 64.134 132.963C64.4629 132.139 65.2029 131.48 66.1074 131.398L69.2318 131.068L68.2452 120.936L65.1207 121.265C64.2162 121.347 63.3118 120.936 62.8184 120.112C62.654 119.865 62.5718 119.7 62.4073 119.453C62.2429 119.288 62.0784 119.041 61.914 118.876C61.3384 118.135 61.174 117.228 61.5851 116.322L62.9007 113.521ZM57.6384 122.913C60.3517 126.702 59.4473 131.892 55.7472 134.611C51.965 137.329 46.7849 136.423 44.0715 132.716C41.3581 128.927 42.2626 123.737 45.9627 121.018C49.7449 118.299 54.925 119.206 57.6384 122.913Z" fill="#4C68A3"/>
<path d="M458.641 196.232L452.475 199.774L453.544 201.669C453.873 202.246 453.873 202.905 453.461 203.481C453.297 203.811 453.05 204.058 452.968 204.388C452.639 204.964 452.064 205.294 451.488 205.294H449.268V212.461H451.488C452.146 212.461 452.721 212.791 452.968 213.367C453.133 213.697 453.297 214.026 453.461 214.273C453.79 214.85 453.873 215.509 453.544 216.086L452.475 217.981L458.641 221.523L459.71 219.628C460.039 219.052 460.615 218.722 461.273 218.804C461.437 218.804 461.602 218.804 461.766 218.804C461.93 218.804 462.095 218.804 462.259 218.804C462.917 218.804 463.493 219.052 463.822 219.628L464.89 221.523L471.057 217.981L469.988 216.086C469.659 215.509 469.659 214.85 470.071 214.273C470.235 213.944 470.482 213.697 470.564 213.367C470.893 212.791 471.468 212.461 472.044 212.461H474.264V205.294H472.044C471.386 205.294 470.811 204.964 470.564 204.388C470.399 204.058 470.235 203.729 470.071 203.481C469.742 202.905 469.659 202.246 469.988 201.669L471.057 199.774L464.89 196.232L463.822 198.127C463.493 198.703 462.917 198.951 462.259 198.951C462.095 198.951 461.93 198.951 461.766 198.951C461.602 198.951 461.437 198.951 461.273 198.951C460.615 198.951 460.039 198.703 459.71 198.127L458.641 196.232ZM461.766 203.07C464.973 203.07 467.604 205.706 467.604 208.919C467.604 212.131 464.973 214.768 461.766 214.768C458.559 214.768 455.928 212.131 455.928 208.919C455.928 205.706 458.559 203.07 461.766 203.07Z" fill="#4C68A3"/>
<path d="M81.6474 83.0401L75.974 87.4063L77.2896 89.1363C77.7007 89.6306 77.7007 90.372 77.454 90.9487C77.2896 91.2782 77.1251 91.6077 77.0429 91.9373C76.7963 92.5139 76.3029 93.0082 75.6451 93.0906L73.5073 93.3378L74.4118 100.423L76.5496 100.175C77.2074 100.093 77.7829 100.423 78.1941 100.917C78.3585 101.246 78.6052 101.493 78.8518 101.741C79.263 102.235 79.4274 102.894 79.1807 103.471L78.3585 105.53L84.9364 108.249L85.7586 106.189C86.0053 105.613 86.5808 105.201 87.2386 105.201C87.4031 105.201 87.5675 105.201 87.732 105.118C87.8964 105.118 88.0609 105.036 88.2253 105.036C88.8831 104.953 89.4587 105.118 89.8698 105.695L91.1853 107.425L96.8587 103.059L95.5432 101.329C95.1321 100.834 95.1321 100.093 95.3787 99.5163C95.5432 99.1868 95.7076 98.8573 95.7898 98.5278C96.0365 97.9511 96.5299 97.4568 97.1876 97.3744L99.3254 97.1273L98.421 90.0425L96.2832 90.2897C95.6254 90.372 95.0498 90.0425 94.6387 89.5482C94.4743 89.2187 94.2276 88.9716 93.9809 88.7244C93.5698 88.2301 93.4054 87.5711 93.652 86.9944L94.4743 84.9349L87.8964 82.2163L87.0742 84.2758C86.8275 84.8525 86.2519 85.2644 85.5942 85.2644C85.4297 85.2644 85.2653 85.2644 85.1008 85.3468C84.9364 85.3468 84.7719 85.4292 84.6075 85.4292C83.9497 85.5115 83.2919 85.3468 82.963 84.7701L81.6474 83.0401ZM85.6764 89.4658C88.8831 89.0539 91.8431 91.2782 92.2542 94.4911C92.6654 97.7039 90.4453 100.67 87.2386 101.082C84.0319 101.493 81.0719 99.2692 80.6608 96.0563C80.2496 92.8435 82.4697 89.8777 85.6764 89.4658Z" fill="#4C68A3"/>
<path d="M0 268.892L62.4897 268.727L124.979 268.645L249.959 268.48L375.021 268.645L437.51 268.727L500 268.892L437.51 269.139L375.021 269.221L249.959 269.304L124.979 269.221L62.4897 269.139L0 268.892Z" fill="#263238"/>
<path d="M418.763 310H168.311L204.489 104.212H455.024L418.763 310Z" fill="#EC9A1E"/>
<path d="M290.248 82.8755H208.272L204.489 104.212H292.222L290.248 82.8755Z" fill="#EC9A1E"/>
<g opacity="0.1">
<path d="M418.763 310H168.311L204.489 104.212H455.024L418.763 310Z" fill="black"/>
<path d="M290.248 82.8755H208.272L204.489 104.212H292.222L290.248 82.8755Z" fill="black"/>
</g>
<path d="M184.016 131.315C183.687 129.585 183.604 127.938 183.604 126.208C183.604 124.478 183.687 122.83 184.016 121.1C184.345 122.83 184.427 124.478 184.427 126.208C184.427 127.938 184.345 129.668 184.016 131.315Z" fill="#263238"/>
<path d="M173.573 134.364C172.422 133.046 171.518 131.563 170.696 130.162C169.873 128.679 169.051 127.196 168.476 125.549C169.627 126.867 170.531 128.267 171.353 129.75C172.176 131.233 172.998 132.716 173.573 134.364Z" fill="#263238"/>
<path d="M166.091 142.19C164.446 141.613 162.966 140.789 161.486 139.965C160.006 139.142 158.609 138.153 157.293 137.082C158.937 137.659 160.417 138.483 161.897 139.306C163.295 140.13 164.775 141.036 166.091 142.19Z" fill="#263238"/>
<path d="M163.46 152.735C161.733 153.064 160.089 153.147 158.362 153.147C156.635 153.147 154.991 153.064 153.264 152.735C154.991 152.405 156.635 152.323 158.362 152.323C160.006 152.323 161.733 152.405 163.46 152.735Z" fill="#263238"/>
<path d="M166.502 163.197C165.186 164.35 163.706 165.256 162.309 166.08C160.829 166.904 159.349 167.728 157.704 168.304C159.02 167.151 160.417 166.245 161.897 165.421C163.295 164.515 164.858 163.773 166.502 163.197Z" fill="#263238"/>
<path d="M174.313 170.693C173.738 172.341 172.915 173.824 172.093 175.307C171.271 176.79 170.284 178.19 169.215 179.508C169.791 177.861 170.613 176.378 171.435 174.895C172.258 173.494 173.162 172.011 174.313 170.693Z" fill="#263238"/>
<path d="M184.838 173.33C185.167 175.06 185.249 176.707 185.249 178.437C185.249 180.167 185.167 181.815 184.838 183.545C184.509 181.815 184.427 180.167 184.427 178.437C184.427 176.707 184.509 175.06 184.838 173.33Z" fill="#263238"/>
<path d="M195.198 170.282C196.349 171.6 197.254 173.083 198.076 174.483C198.898 175.966 199.721 177.449 200.296 179.097C199.145 177.778 198.241 176.378 197.418 174.895C196.596 173.495 195.774 171.929 195.198 170.282Z" fill="#263238"/>
<path d="M202.763 162.456C204.407 163.032 205.887 163.856 207.367 164.68C208.847 165.504 210.245 166.492 211.561 167.563C209.916 166.987 208.436 166.163 206.956 165.339C205.476 164.515 204.078 163.609 202.763 162.456Z" fill="#263238"/>
<path d="M205.312 151.91C207.038 151.581 208.683 151.499 210.409 151.499C212.136 151.499 213.781 151.581 215.507 151.91C213.781 152.24 212.136 152.322 210.409 152.322C208.765 152.322 207.038 152.24 205.312 151.91Z" fill="#263238"/>
<path d="M202.352 141.448C203.667 140.295 205.147 139.389 206.545 138.565C208.025 137.741 209.505 136.917 211.149 136.341C209.834 137.494 208.436 138.4 206.956 139.224C205.476 140.13 203.996 140.872 202.352 141.448Z" fill="#263238"/>
<path d="M194.54 133.952C195.116 132.304 195.938 130.821 196.76 129.338C197.582 127.855 198.569 126.455 199.638 125.137C199.062 126.784 198.24 128.267 197.418 129.75C196.596 131.151 195.691 132.633 194.54 133.952Z" fill="#263238"/>
<path d="M418.434 310H167.407L131.722 111.626H382.749L418.434 310Z" fill="#EFB12F"/>
<path d="M218.714 232.892C224.481 232.892 229.156 228.207 229.156 222.429C229.156 216.651 224.481 211.967 218.714 211.967C212.947 211.967 208.271 216.651 208.271 222.429C208.271 228.207 212.947 232.892 218.714 232.892Z" fill="#263238"/>
<path d="M301.184 232.892C306.951 232.892 311.626 228.207 311.626 222.429C311.626 216.651 306.951 211.967 301.184 211.967C295.417 211.967 290.742 216.651 290.742 222.429C290.742 228.207 295.417 232.892 301.184 232.892Z" fill="#263238"/>
<path d="M274.955 234.622L274.379 233.551C274.297 233.468 268.952 223.5 258.099 223.5C248.232 223.5 245.765 232.892 245.683 233.304L245.354 234.539L242.97 233.963L243.216 232.727C243.216 232.645 246.176 221.029 258.017 221.029C270.35 221.029 276.27 231.986 276.517 232.397L277.092 233.468L274.955 234.622Z" fill="#263238"/>
<path d="M168.394 26.0324C187.058 28.0095 200.625 44.7329 198.734 63.4334C197.912 71.0124 194.705 77.6853 189.936 82.8753L192.403 99.9282L177.685 91.4429C172.669 93.5025 167.078 94.4087 161.322 93.7496C142.658 91.7725 129.091 75.0491 131.064 56.3486C133.038 37.6481 149.729 24.0552 168.394 26.0324Z" fill="#101B32"/>
<path d="M168.393 26.0321C174.56 26.7735 180.645 28.9978 185.66 32.8697C186.976 33.7759 188.045 34.9292 189.196 35.9178C190.265 37.0711 191.334 38.2245 192.238 39.5426C194.129 42.014 195.692 44.815 196.843 47.7807C198.076 50.664 198.652 53.7945 199.063 56.925C199.145 58.4902 199.309 60.0555 199.145 61.6207C199.145 63.1859 198.981 64.7512 198.652 66.3164C197.501 72.5774 194.623 78.4264 190.347 83.2045L190.512 82.7926L193.143 99.8455L193.307 101.081L192.238 100.422L177.52 91.9369H178.096C168.393 96.056 156.8 95.1498 147.838 89.8774C143.315 87.2412 139.451 83.5341 136.491 79.2502C133.613 74.884 131.722 69.8588 131.064 64.7512C130.406 59.5612 130.817 54.2888 132.462 49.3459C134.106 44.403 136.902 39.8721 140.52 36.2473C147.509 28.7506 158.198 24.9611 168.393 26.0321ZM168.393 26.0321C158.116 24.9611 147.509 28.833 140.438 36.4121C136.902 40.1192 134.271 44.6502 132.709 49.5107C131.146 54.3712 130.817 59.6436 131.557 64.6688C132.297 69.694 134.189 74.5545 137.066 78.756C139.944 82.875 143.809 86.4174 148.167 88.9712C152.524 91.525 157.54 92.9255 162.556 93.255C167.571 93.5845 172.669 92.7607 177.356 90.866L177.685 90.7836L177.931 90.9484L192.567 99.516L191.663 100.093L189.278 83.0398V82.7926L189.443 82.6279C193.636 78.0969 196.596 72.4126 197.829 66.3164C198.158 64.8336 198.323 63.2683 198.405 61.7031C198.569 60.1378 198.487 58.5726 198.405 57.0074C198.076 53.9593 197.583 50.8288 196.432 47.9454C195.363 45.0621 193.883 42.1788 191.992 39.7073C191.087 38.3892 190.018 37.3183 189.032 36.0826C187.88 35.0116 186.812 33.8583 185.496 32.9521C180.645 29.0802 174.642 26.7735 168.393 26.0321Z" fill="#101B32"/>
<path d="M149.235 77.1909C149.235 75.1314 150.633 73.6485 152.524 73.6485C154.58 73.6485 155.813 75.1314 155.813 77.1909C155.813 79.168 154.498 80.6509 152.524 80.6509C150.551 80.6509 149.235 79.168 149.235 77.1909ZM150.633 69.1175L149.811 42.0142H155.238L154.415 69.1175H150.633Z" fill="#D06B51"/>
<path d="M162.227 77.1909C162.227 75.1314 163.624 73.6485 165.515 73.6485C167.571 73.6485 168.804 75.1314 168.804 77.1909C168.804 79.168 167.489 80.6509 165.515 80.6509C163.542 80.6509 162.227 79.168 162.227 77.1909ZM163.624 69.1175L162.802 42.0142H168.229L167.407 69.1175H163.624Z" fill="#5B78F1"/>
<path d="M175.136 77.1909C175.136 75.1314 176.534 73.6485 178.425 73.6485C180.48 73.6485 181.714 75.1314 181.714 77.1909C181.714 79.168 180.398 80.6509 178.425 80.6509C176.534 80.6509 175.136 79.168 175.136 77.1909ZM176.534 69.1175L175.711 42.0142H181.138L180.316 69.1175H176.534Z" fill="#FFC727"/>
<path d="M142.6 376V341H162V325H142.6V286H126.6V325H83L138.4 236H120L62 329.6V341H126.6V376H142.6Z" fill="white"/>
<path d="M423.6 376V341H443V325H423.6V286H407.6V325H364L419.4 236H401L343 329.6V341H407.6V376H423.6Z" fill="#E74A21"/>
<path d="M268.4 296.8L265.793 298.284L265.806 298.308L265.82 298.332L268.4 296.8ZM200.2 296.8L197.61 295.286L197.606 295.292L197.603 295.298L200.2 296.8ZM200.4 401.4L197.81 402.914L197.824 402.938L197.838 402.961L200.4 401.4ZM282.8 349C282.8 326.701 278.956 308.702 270.98 295.268L265.82 298.332C273.044 310.498 276.8 327.299 276.8 349H282.8ZM271.007 295.316C263.051 281.339 250.632 274.4 234.4 274.4V280.4C248.568 280.4 258.949 286.261 265.793 298.284L271.007 295.316ZM234.4 274.4C218.162 274.4 205.762 281.342 197.61 295.286L202.79 298.314C209.838 286.258 220.238 280.4 234.4 280.4V274.4ZM197.603 295.298C189.845 308.717 186 326.698 186 349H192C192 327.302 195.755 310.483 202.797 298.302L197.603 295.298ZM186 349C186 371.305 189.846 389.292 197.81 402.914L202.99 399.886C195.754 387.508 192 370.695 192 349H186ZM197.838 402.961C206.188 416.663 218.563 423.6 234.8 423.6V417.6C220.637 417.6 210.212 411.737 202.962 399.839L197.838 402.961ZM234.8 423.6C251.094 423.6 263.3 416.162 271.27 402.922C279.123 389.879 282.8 371.349 282.8 349H276.8C276.8 370.851 273.177 388.121 266.13 399.828C259.2 411.338 248.906 417.6 234.8 417.6V423.6ZM234.8 402.6C230.512 402.6 226.897 401.558 223.841 399.561C220.77 397.553 218.09 394.465 215.873 390.114C211.396 381.323 209 367.744 209 349H203C203 368.056 205.404 382.777 210.527 392.836C213.11 397.91 216.43 401.885 220.559 404.583C224.703 407.292 229.488 408.6 234.8 408.6V402.6ZM209 349C209 330.25 211.347 316.665 215.757 307.869C217.94 303.515 220.58 300.432 223.603 298.429C226.61 296.438 230.169 295.4 234.4 295.4V289.4C229.131 289.4 224.39 290.712 220.29 293.427C216.208 296.131 212.935 300.11 210.393 305.181C205.353 315.235 203 329.95 203 349H209ZM234.4 295.4C238.843 295.4 242.498 296.469 245.531 298.484C248.581 300.509 251.194 303.617 253.329 307.991C257.647 316.836 259.8 330.424 259.8 349H265.8C265.8 330.176 263.653 315.464 258.721 305.359C256.231 300.258 252.982 296.229 248.85 293.485C244.702 290.731 239.857 289.4 234.4 289.4V295.4ZM259.8 349C259.8 367.693 257.743 381.283 253.519 390.104C251.432 394.463 248.869 397.544 245.864 399.548C242.875 401.54 239.249 402.6 234.8 402.6V408.6C240.251 408.6 245.075 407.285 249.192 404.54C253.293 401.806 256.493 397.787 258.931 392.696C263.757 382.617 265.8 367.907 265.8 349H259.8Z" fill="#EFB12F"/>
</svg>
