<svg width="537" height="485" fill="none" xmlns="http://www.w3.org/2000/svg"><path d="M491.695 77.85l-7.893 38.225-5.016-4.943-8.633 6.179-6.578-8.238-14.8 10.792-12.58-21.172-14.143 8.238-5.591-7.662-17.843 10.051-5.344-11.533 12.498-60.798 67.176 13.923 18.747 26.938z" fill="#8CAAE8"/><path d="M472.948 50.912l18.747 26.938-23.351-4.778 4.604-22.16z" fill="#6786C6"/><path d="M482.157 123.654l-11.593 56.019-90.446-18.7 11.429-55.525 5.427 11.533 17.842-10.133 5.592 7.744 14.06-8.238 12.662 21.09 14.718-10.71 6.578 8.156 8.633-6.179 5.098 4.943zm-129.501-6.508l-92.255 5.684-7.318-118.546L321.576 0l25.16 21.09 5.92 96.056z" fill="#8CAAE8"/><path d="M321.576 0l25.16 21.09-23.763 1.482L321.576 0z" fill="#6786C6"/><path d="M296.004 79.827l-.329-2.636c-.904-5.52.576-11.78 5.427-18.206 4.358-5.767 6.66-9.886 6.413-14.582-.329-5.272-3.782-8.567-10.278-8.32-3.7.247-7.729 1.647-10.278 3.79l-2.877-6.344c3.288-2.636 9.044-4.613 14.553-4.943 11.84-.659 17.596 6.343 18.089 14.252.411 7.002-3.207 12.275-7.893 18.453-4.276 5.602-5.674 10.298-5.016 15.488l.247 2.719-8.058.33zm-1.48 14.582c-.247-3.79 2.22-6.673 5.838-6.838 3.618-.165 6.249 2.307 6.413 6.178.165 3.625-1.973 6.509-5.838 6.756-3.535.164-6.166-2.472-6.413-6.096zM62.9 113.521l-9.29-4.201-1.316 2.883c-.411.824-1.233 1.401-2.138 1.401-.493 0-.987.082-1.48.164a2.29 2.29 0 01-2.302-.988l-1.81-2.554-8.304 5.931 1.81 2.554c.493.742.575 1.73.164 2.554-.247.494-.412.906-.658 1.401-.329.823-1.069 1.482-1.974 1.565l-3.124.329.987 10.133 3.124-.329a2.407 2.407 0 012.302 1.153c.165.247.247.412.412.659.164.165.329.412.493.577.575.741.74 1.647.329 2.471l-1.316 2.883 9.291 4.202 1.316-2.883c.411-.824 1.233-1.401 2.138-1.401.493 0 .986-.082 1.48-.165a2.29 2.29 0 012.302.989l1.809 2.554 8.305-5.932-1.81-2.554a2.573 2.573 0 01-.164-2.553c.247-.412.411-.907.658-1.401.329-.824 1.069-1.483 1.973-1.565l3.125-.33-.987-10.132-3.124.329a2.41 2.41 0 01-2.303-1.153c-.164-.247-.246-.412-.41-.659-.165-.165-.33-.412-.494-.577-.576-.741-.74-1.648-.329-2.554l1.316-2.801zm-5.262 9.392c2.714 3.789 1.81 8.979-1.89 11.698-3.783 2.718-8.963 1.812-11.676-1.895-2.714-3.789-1.81-8.979 1.89-11.698 3.783-2.719 8.963-1.812 11.676 1.895zm401.003 73.319l-6.166 3.542 1.069 1.895c.329.577.329 1.236-.083 1.812-.164.33-.411.577-.493.907-.329.576-.904.906-1.48.906h-2.22v7.167h2.22c.658 0 1.233.33 1.48.906.165.33.329.659.493.906.329.577.412 1.236.083 1.813l-1.069 1.895 6.166 3.542 1.069-1.895c.329-.576.905-.906 1.563-.824h.986c.658 0 1.234.248 1.563.824l1.068 1.895 6.167-3.542-1.069-1.895c-.329-.577-.329-1.236.083-1.813.164-.329.411-.576.493-.906.329-.576.904-.906 1.48-.906h2.22v-7.167h-2.22c-.658 0-1.233-.33-1.48-.906-.165-.33-.329-.659-.493-.907-.329-.576-.412-1.235-.083-1.812l1.069-1.895-6.167-3.542-1.068 1.895c-.329.576-.905.824-1.563.824h-.986c-.658 0-1.234-.248-1.563-.824l-1.069-1.895zm3.125 6.838c3.207 0 5.838 2.636 5.838 5.849 0 3.212-2.631 5.849-5.838 5.849-3.207 0-5.838-2.637-5.838-5.849 0-3.213 2.631-5.849 5.838-5.849zM81.647 83.04l-5.673 4.366 1.316 1.73c.41.495.41 1.236.164 1.813-.164.33-.329.659-.411.988-.247.577-.74 1.071-1.398 1.154l-2.138.247.905 7.085 2.138-.248c.657-.082 1.233.248 1.644.742.165.329.411.576.658.824.411.494.575 1.153.329 1.73l-.822 2.059 6.577 2.719.823-2.06a1.625 1.625 0 011.48-.988c.164 0 .328 0 .493-.083.164 0 .329-.082.493-.082.658-.083 1.234.082 1.645.659l1.315 1.73 5.674-4.366-1.316-1.73c-.41-.495-.41-1.236-.164-1.813.164-.33.329-.659.41-.988.248-.577.74-1.071 1.399-1.154l2.137-.247-.904-7.084-2.138.247c-.658.082-1.233-.248-1.644-.742-.165-.33-.411-.576-.658-.824-.411-.494-.576-1.153-.329-1.73l.822-2.06-6.578-2.718-.822 2.06a1.624 1.624 0 01-1.48.988c-.164 0-.329 0-.493.083-.165 0-.33.082-.493.082-.658.082-1.316-.082-1.645-.659l-1.316-1.73zm4.03 6.426c3.206-.412 6.166 1.812 6.577 5.025.411 3.213-1.809 6.179-5.015 6.591-3.207.411-6.167-1.813-6.578-5.026-.411-3.212 1.809-6.178 5.015-6.59z" fill="#4C68A3"/><path d="M0 268.892l62.49-.165 62.489-.082 124.98-.165 125.062.165 62.489.082 62.49.165-62.49.247-62.489.082-125.062.083-124.98-.083-62.49-.082L0 268.892z" fill="#263238"/><path d="M418.763 310H168.311l36.178-205.788h250.535L418.763 310z" fill="#EC9A1E"/><path d="M290.248 82.876h-81.976l-3.783 21.336h87.733l-1.974-21.337z" fill="#EC9A1E"/><g opacity=".1" fill="#000"><path d="M418.763 310H168.311l36.178-205.788h250.535L418.763 310z"/><path d="M290.248 82.876h-81.976l-3.783 21.336h87.733l-1.974-21.337z"/></g><path d="M184.016 131.315c-.329-1.73-.412-3.377-.412-5.107 0-1.73.083-3.378.412-5.108.329 1.73.411 3.378.411 5.108 0 1.73-.082 3.46-.411 5.107zm-10.443 3.049c-1.151-1.318-2.055-2.801-2.877-4.202-.823-1.483-1.645-2.966-2.22-4.613 1.151 1.318 2.055 2.718 2.877 4.201.823 1.483 1.645 2.966 2.22 4.614zm-7.482 7.826c-1.645-.577-3.125-1.401-4.605-2.225-1.48-.823-2.877-1.812-4.193-2.883 1.644.577 3.124 1.401 4.604 2.224 1.398.824 2.878 1.73 4.194 2.884zm-2.631 10.545c-1.727.329-3.371.412-5.098.412-1.727 0-3.371-.083-5.098-.412 1.727-.33 3.371-.412 5.098-.412 1.644 0 3.371.082 5.098.412zm3.042 10.462c-1.316 1.153-2.796 2.059-4.193 2.883-1.48.824-2.96 1.648-4.605 2.224 1.316-1.153 2.713-2.059 4.193-2.883 1.398-.906 2.961-1.648 4.605-2.224zm7.811 7.496c-.575 1.648-1.398 3.131-2.22 4.614-.822 1.483-1.809 2.883-2.878 4.201.576-1.647 1.398-3.13 2.22-4.613.823-1.401 1.727-2.884 2.878-4.202zm10.525 2.637c.329 1.73.411 3.377.411 5.107 0 1.73-.082 3.378-.411 5.108-.329-1.73-.411-3.378-.411-5.108 0-1.73.082-3.377.411-5.107zm10.36-3.048c1.151 1.318 2.056 2.801 2.878 4.201.822 1.483 1.645 2.966 2.22 4.614-1.151-1.319-2.055-2.719-2.878-4.202-.822-1.4-1.644-2.966-2.22-4.613zm7.565-7.826c1.644.576 3.124 1.4 4.604 2.224 1.48.824 2.878 1.812 4.194 2.883-1.645-.576-3.125-1.4-4.605-2.224-1.48-.824-2.878-1.73-4.193-2.883zm2.549-10.546c1.726-.329 3.371-.411 5.097-.411 1.727 0 3.372.082 5.098.411-1.726.33-3.371.412-5.098.412-1.644 0-3.371-.082-5.097-.412zm-2.96-10.462c1.315-1.153 2.795-2.059 4.193-2.883 1.48-.824 2.96-1.648 4.604-2.224-1.315 1.153-2.713 2.059-4.193 2.883-1.48.906-2.96 1.648-4.604 2.224zm-7.812-7.496c.576-1.648 1.398-3.131 2.22-4.614.822-1.483 1.809-2.883 2.878-4.201-.576 1.647-1.398 3.13-2.22 4.613-.822 1.401-1.727 2.883-2.878 4.202z" fill="#263238"/><path d="M418.434 310H167.407l-35.685-198.374h251.027L418.434 310z" fill="#EFB12F"/><path d="M218.714 232.892c5.767 0 10.442-4.685 10.442-10.463s-4.675-10.462-10.442-10.462-10.443 4.684-10.443 10.462 4.676 10.463 10.443 10.463zm82.47 0c5.767 0 10.442-4.685 10.442-10.463s-4.675-10.462-10.442-10.462-10.442 4.684-10.442 10.462 4.675 10.463 10.442 10.463zm-26.229 1.73l-.576-1.071c-.082-.083-5.427-10.051-16.28-10.051-9.867 0-12.334 9.392-12.416 9.804l-.329 1.235-2.384-.576.246-1.236c0-.082 2.96-11.698 14.801-11.698 12.333 0 18.253 10.957 18.5 11.368l.575 1.071-2.137 1.154z" fill="#263238"/><path d="M168.394 26.032c18.664 1.977 32.231 18.7 30.34 37.401-.822 7.58-4.029 14.252-8.798 19.442l2.467 17.053-14.718-8.485c-5.016 2.06-10.607 2.966-16.363 2.307-18.664-1.978-32.231-18.7-30.258-37.401 1.974-18.7 18.665-32.294 37.33-30.317z" fill="#101B32"/><path d="M168.393 26.032c6.167.741 12.252 2.966 17.267 6.838 1.316.906 2.385 2.06 3.536 3.048 1.069 1.153 2.138 2.306 3.042 3.625a33.634 33.634 0 014.605 8.238c1.233 2.883 1.809 6.014 2.22 9.144.082 1.565.246 3.13.082 4.696 0 1.565-.164 3.13-.493 4.695a34.783 34.783 0 01-8.305 16.888l.165-.411 2.631 17.052.164 1.236-1.069-.659-14.718-8.485h.576c-9.703 4.119-21.296 3.213-30.258-2.06-4.523-2.636-8.387-6.343-11.347-10.627-2.878-4.366-4.769-9.391-5.427-14.499-.658-5.19-.247-10.462 1.398-15.405 1.644-4.943 4.44-9.474 8.058-13.099 6.989-7.496 17.678-11.286 27.873-10.215zm0 0c-10.277-1.07-20.884 2.801-27.955 10.38-3.536 3.707-6.167 8.238-7.729 13.099-1.563 4.86-1.892 10.133-1.152 15.158a33.73 33.73 0 005.509 14.087c2.878 4.119 6.743 7.661 11.101 10.215 4.357 2.554 9.373 3.954 14.389 4.284a33.746 33.746 0 0014.8-2.389l.329-.082.246.164 14.636 8.568-.904.577-2.385-17.053v-.247l.165-.165c4.193-4.531 7.153-10.215 8.386-16.312.329-1.482.494-3.048.576-4.613.164-1.565.082-3.13 0-4.696-.329-3.048-.822-6.178-1.973-9.062-1.069-2.883-2.549-5.766-4.44-8.238-.905-1.318-1.974-2.389-2.96-3.624-1.152-1.071-2.22-2.225-3.536-3.13-4.851-3.873-10.854-6.18-17.103-6.92z" fill="#101B32"/><path d="M149.235 77.19c0-2.059 1.398-3.541 3.289-3.541 2.056 0 3.289 1.482 3.289 3.542 0 1.977-1.315 3.46-3.289 3.46-1.973 0-3.289-1.483-3.289-3.46zm1.398-8.072l-.822-27.104h5.427l-.823 27.104h-3.782z" fill="#D06B51"/><path d="M162.227 77.19c0-2.059 1.397-3.541 3.288-3.541 2.056 0 3.289 1.482 3.289 3.542 0 1.977-1.315 3.46-3.289 3.46-1.973 0-3.288-1.483-3.288-3.46zm1.397-8.072l-.822-27.104h5.427l-.822 27.104h-3.783z" fill="#5B78F1"/><path d="M175.136 77.19c0-2.059 1.398-3.541 3.289-3.541 2.055 0 3.289 1.482 3.289 3.542 0 1.977-1.316 3.46-3.289 3.46-1.891 0-3.289-1.483-3.289-3.46zm1.398-8.072l-.823-27.104h5.427l-.822 27.104h-3.782z" fill="#FFC727"/><path d="M142.6 376v-35H162v-16h-19.4v-39h-16v39H83l55.4-89H120l-58 93.6V341h64.6v35h16z" fill="#fff"/><path d="M423.6 376v-35H443v-16h-19.4v-39h-16v39H364l55.4-89H401l-58 93.6V341h64.6v35h16z" fill="#E74A21"/><path d="M268.4 296.8l-2.607 1.484.013.024.014.024 2.58-1.532zm-68.2 0l-2.59-1.514-.004.006-.003.006 2.597 1.502zm.2 104.6l-2.59 1.514.014.024.014.023 2.562-1.561zm82.4-52.4c0-22.299-3.844-40.298-11.82-53.732l-5.16 3.064c7.224 12.166 10.98 28.967 10.98 50.668h6zm-11.793-53.684c-7.956-13.977-20.375-20.916-36.607-20.916v6c14.168 0 24.549 5.861 31.393 17.884l5.214-2.968zM234.4 274.4c-16.238 0-28.638 6.942-36.79 20.886l5.18 3.028c7.048-12.056 17.448-17.914 31.61-17.914v-6zm-36.797 20.898C189.845 308.717 186 326.698 186 349h6c0-21.698 3.755-38.517 10.797-50.698l-5.194-3.004zM186 349c0 22.305 3.846 40.292 11.81 53.914l5.18-3.028C195.754 387.508 192 370.695 192 349h-6zm11.838 53.961c8.35 13.702 20.725 20.639 36.962 20.639v-6c-14.163 0-24.588-5.863-31.838-17.761l-5.124 3.122zM234.8 423.6c16.294 0 28.5-7.438 36.47-20.678 7.853-13.043 11.53-31.573 11.53-53.922h-6c0 21.851-3.623 39.121-10.67 50.828-6.93 11.51-17.224 17.772-31.33 17.772v6zm0-21c-4.288 0-7.903-1.042-10.959-3.039-3.071-2.008-5.751-5.096-7.968-9.447C211.396 381.323 209 367.744 209 349h-6c0 19.056 2.404 33.777 7.527 43.836 2.583 5.074 5.903 9.049 10.032 11.747 4.144 2.709 8.929 4.017 14.241 4.017v-6zM209 349c0-18.75 2.347-32.335 6.757-41.131 2.183-4.354 4.823-7.437 7.846-9.44 3.007-1.991 6.566-3.029 10.797-3.029v-6c-5.269 0-10.01 1.312-14.11 4.027-4.082 2.704-7.355 6.683-9.897 11.754C205.353 315.235 203 329.95 203 349h6zm25.4-53.6c4.443 0 8.098 1.069 11.131 3.084 3.05 2.025 5.663 5.133 7.798 9.507 4.318 8.845 6.471 22.433 6.471 41.009h6c0-18.824-2.147-33.536-7.079-43.641-2.49-5.101-5.739-9.13-9.871-11.874-4.148-2.754-8.993-4.085-14.45-4.085v6zm25.4 53.6c0 18.693-2.057 32.283-6.281 41.104-2.087 4.359-4.65 7.44-7.655 9.444-2.989 1.992-6.615 3.052-11.064 3.052v6c5.451 0 10.275-1.315 14.392-4.06 4.101-2.734 7.301-6.753 9.739-11.844 4.826-10.079 6.869-24.789 6.869-43.696h-6z" fill="#EFB12F"/></svg>