<svg width="1920" height="277" fill="none" xmlns="http://www.w3.org/2000/svg"><path fill-rule="evenodd" clip-rule="evenodd" d="M0 187.699l8-19.844c9.6-19.845 25.6-59.534 43.2-44.651 16 14.884 33.6 84.34 49.6 94.262 17.6 9.923 33.6-39.689 51.2-64.495 16-24.805 33.6-24.805 49.6-29.767 17.6-4.961 33.6-14.883 51.2-14.883 16 0 33.6 9.922 49.6 4.961 17.6-4.961 35.2-24.806 51.2-9.922 17.6 14.883 33.6 64.495 51.2 79.378 16 14.884 33.6-4.961 49.6-34.728 17.6-29.767 33.6-69.456 51.2-59.534 16 9.923 33.6 69.456 49.6 94.262 17.6 24.806 33.6 14.884 51.2-9.922 16-24.806 33.6-64.495 51.2-84.34 16-19.844 33.6-19.844 49.6-4.96 17.6 14.883 33.6 44.65 51.2 29.766 16-14.883 33.6-74.417 49.6-99.223 17.6-24.805 33.6-14.883 51.2 14.884 16 29.766 33.6 79.378 49.6 79.378 17.6 0 33.6-49.611 51.2-44.65 17.6 4.96 33.6 64.495 51.2 94.261 16 29.767 33.6 29.767 49.6 19.845 17.6-9.922 33.6-29.767 51.2-14.883 16 14.883 33.6 64.495 49.6 59.533 17.6-4.961 33.6-64.495 51.2-84.339 16-19.845 33.6 0 49.6 24.806 17.6 24.805 35.2 54.572 51.2 69.456 17.6 14.883 33.6 14.883 51.2-24.806 16-39.689 33.6-119.068 49.6-114.106 17.6 4.96 33.6 94.261 51.2 114.106 16 19.845 33.6-29.767 49.6-64.495 17.6-34.728 33.6-54.573 51.2-69.456 16-14.884 33.6-24.806 51.2-24.806 16 0 33.6 9.922 49.6 0 17.6-9.922 33.6-39.689 51.2-14.883 16 24.805 33.6 104.184 49.6 119.067 17.6 14.884 33.6-34.728 51.2-64.495 16-29.767 33.6-39.689 49.6-39.689 17.6 0 33.6 9.922 43.2 14.884l8 4.96V277H0v-89.301z" fill="url(#paint0_linear_628_1343)" fill-opacity=".1"/><defs><linearGradient id="paint0_linear_628_1343" x1="960" y1="0" x2="960" y2="277" gradientUnits="userSpaceOnUse"><stop stop-color="#406CFF"/><stop offset="1" stop-color="#5379F9" stop-opacity="0"/></linearGradient></defs></svg>