<svg width="1920" height="277" viewBox="0 0 1920 277" fill="none" xmlns="http://www.w3.org/2000/svg">
<path fill-rule="evenodd" clip-rule="evenodd" d="M0 187.699L8 167.855C17.6 148.01 33.6 108.321 51.2 123.204C67.2 138.088 84.8 207.544 100.8 217.466C118.4 227.389 134.4 177.777 152 152.971C168 128.166 185.6 128.166 201.6 123.204C219.2 118.243 235.2 108.321 252.8 108.321C268.8 108.321 286.4 118.243 302.4 113.282C320 108.321 337.6 88.4764 353.6 103.36C371.2 118.243 387.2 167.855 404.8 182.738C420.8 197.622 438.4 177.777 454.4 148.01C472 118.243 488 78.5541 505.6 88.4764C521.6 98.3987 539.2 157.932 555.2 182.738C572.8 207.544 588.8 197.622 606.4 172.816C622.4 148.01 640 108.321 657.6 88.4764C673.6 68.6318 691.2 68.6318 707.2 83.5153C724.8 98.3987 740.8 128.166 758.4 113.282C774.4 98.3987 792 38.8649 808 14.0592C825.6 -10.7465 841.6 -0.824253 859.2 28.9426C875.2 58.7095 892.8 108.321 908.8 108.321C926.4 108.321 942.4 58.7095 960 63.6707C977.6 68.6318 993.6 128.166 1011.2 157.932C1027.2 187.699 1044.8 187.699 1060.8 177.777C1078.4 167.855 1094.4 148.01 1112 162.894C1128 177.777 1145.6 227.389 1161.6 222.427C1179.2 217.466 1195.2 157.932 1212.8 138.088C1228.8 118.243 1246.4 138.088 1262.4 162.894C1280 187.699 1297.6 217.466 1313.6 232.35C1331.2 247.233 1347.2 247.233 1364.8 207.544C1380.8 167.855 1398.4 88.4764 1414.4 93.4376C1432 98.3987 1448 187.699 1465.6 207.544C1481.6 227.389 1499.2 177.777 1515.2 143.049C1532.8 108.321 1548.8 88.4764 1566.4 73.593C1582.4 58.7095 1600 48.7872 1617.6 48.7872C1633.6 48.7872 1651.2 58.7095 1667.2 48.7872C1684.8 38.8649 1700.8 9.09804 1718.4 33.9038C1734.4 58.7095 1752 138.088 1768 152.971C1785.6 167.855 1801.6 118.243 1819.2 88.4764C1835.2 58.7095 1852.8 48.7872 1868.8 48.7872C1886.4 48.7872 1902.4 58.7095 1912 63.6707L1920 68.6318V277H1912C1902.4 277 1886.4 277 1868.8 277C1852.8 277 1835.2 277 1819.2 277C1801.6 277 1785.6 277 1768 277C1752 277 1734.4 277 1718.4 277C1700.8 277 1684.8 277 1667.2 277C1651.2 277 1633.6 277 1617.6 277C1600 277 1582.4 277 1566.4 277C1548.8 277 1532.8 277 1515.2 277C1499.2 277 1481.6 277 1465.6 277C1448 277 1432 277 1414.4 277C1398.4 277 1380.8 277 1364.8 277C1347.2 277 1331.2 277 1313.6 277C1297.6 277 1280 277 1262.4 277C1246.4 277 1228.8 277 1212.8 277C1195.2 277 1179.2 277 1161.6 277C1145.6 277 1128 277 1112 277C1094.4 277 1078.4 277 1060.8 277C1044.8 277 1027.2 277 1011.2 277C993.6 277 977.6 277 960 277C942.4 277 926.4 277 908.8 277C892.8 277 875.2 277 859.2 277C841.6 277 825.6 277 808 277C792 277 774.4 277 758.4 277C740.8 277 724.8 277 707.2 277C691.2 277 673.6 277 657.6 277C640 277 622.4 277 606.4 277C588.8 277 572.8 277 555.2 277C539.2 277 521.6 277 505.6 277C488 277 472 277 454.4 277C438.4 277 420.8 277 404.8 277C387.2 277 371.2 277 353.6 277C337.6 277 320 277 302.4 277C286.4 277 268.8 277 252.8 277C235.2 277 219.2 277 201.6 277C185.6 277 168 277 152 277C134.4 277 118.4 277 100.8 277C84.8 277 67.2 277 51.2 277C33.6 277 17.6 277 8 277H0V187.699Z" fill="url(#paint0_linear_628_1343)" fill-opacity="0.1"/>
<defs>
<linearGradient id="paint0_linear_628_1343" x1="960" y1="0" x2="960" y2="277" gradientUnits="userSpaceOnUse">
<stop stop-color="#406CFF"/>
<stop offset="1" stop-color="#5379F9" stop-opacity="0"/>
</linearGradient>
</defs>
</svg>
