<?xml version="1.0" encoding="utf-8"?>
<!-- Generator: Adobe Illustrator 23.0.2, SVG Export Plug-In . SVG Version: 6.00 Build 0)  -->
<svg version="1.1" id="Layer_1" xmlns="http://www.w3.org/2000/svg" xmlns:xlink="http://www.w3.org/1999/xlink" x="0px" y="0px"
	 viewBox="0 0 195.6 89.5" style="enable-background:new 0 0 195.6 89.5;" xml:space="preserve">
<style type="text/css">
	.st0{fill:#FFFFFF;}
	.st1{fill:#EEB02F;}
	.st2{fill:#DF6549;}
	.st3{fill:#547AF8;}
</style>
<g>
	<g>
		<g>
			<g>
				<path class="st0" d="M89.5,31.8v17h-2.4v-6.6c0-1.9,0.1-3.7,0.2-5.5l-0.1,0c-0.5,1.4-1.1,2.9-1.7,4.5L84.1,45h-2.4l-1.5-3.9
					c-0.6-1.6-1.2-3.1-1.7-4.5l-0.1,0c0.1,1.8,0.1,3.6,0.2,5.5v6.6h-2.4v-17h2.5l2.9,6.9c0.4,1,1,2.6,1.2,3.4h0.1
					c0.3-0.8,0.9-2.4,1.2-3.4l2.9-6.9H89.5z"/>
				<path class="st0" d="M91.9,44.1h2.5c0,1.8,1,2.6,2.5,2.6c1.6,0,2.4-1,2.4-2.3c0-3.4-7.1-3.6-7.1-8.6c0-2.5,1.8-4.3,4.7-4.3
					c2.9,0,4.7,1.9,4.7,4.8h-2.5c0-1.6-0.9-2.4-2.2-2.4c-1.4,0-2.2,0.8-2.2,2c0,3.3,7.2,3.3,7.2,8.6c0,2.5-1.8,4.7-5,4.7
					C93.8,49.1,91.9,47.3,91.9,44.1z"/>
			</g>
			<g>
				<path class="st0" d="M117.6,32v17h-2.5v-7.5h-4.8v7.5h-2.5V32h2.5v7.3h4.8V32H117.6z"/>
				<path class="st0" d="M129.6,46.8v2.3H121V32h8.4v2.3h-5.9v4.9h5.4v2.3h-5.4v5.2H129.6z"/>
				<path class="st0" d="M140.3,46.7v2.3h-8.1V32h2.5v14.7H140.3z"/>
				<path class="st0" d="M151.9,37.5c0,3.6-1.9,5.6-5.2,5.6h-2v6h-2.5V32h4.5C150,32,151.9,34.1,151.9,37.5z M149.4,37.5
					c0-2.1-0.9-3.2-2.8-3.2h-2v6.4h2C148.5,40.8,149.4,39.7,149.4,37.5z"/>
				<path class="st0" d="M162.6,46.8v2.3H154V32h8.4v2.3h-5.9v4.9h5.4v2.3h-5.4v5.2H162.6z"/>
				<path class="st0" d="M169.2,42.9h-1.5v6.2h-2.5V32h4.4c3.3,0,5.1,1.9,5.1,5.3c0,2.7-1.1,4.5-3.1,5.2l3.7,6.5h-2.7L169.2,42.9z
					 M167.7,40.6h1.9c1.7,0,2.6-1.1,2.6-3.1c0-2-0.9-3-2.6-3h-1.9V40.6z"/>
			</g>
		</g>
	</g>
	<g>
		<g>
			<path class="st0" d="M77.4,52.9h0.5v2.6h-0.5v-1.1h-1v1.1h-0.5v-2.6h0.5v1h1V52.9z"/>
			<path class="st0" d="M80.8,55.1c-0.3,0.3-0.6,0.4-0.9,0.4c-0.4,0-0.7-0.1-0.9-0.4c-0.3-0.3-0.4-0.6-0.4-0.9s0.1-0.7,0.4-0.9
				c0.3-0.3,0.6-0.4,0.9-0.4c0.4,0,0.7,0.1,0.9,0.4c0.3,0.3,0.4,0.6,0.4,0.9S81.1,54.8,80.8,55.1z M79.3,54.7
				c0.2,0.2,0.4,0.2,0.6,0.2s0.4-0.1,0.6-0.2c0.2-0.2,0.2-0.4,0.2-0.6s-0.1-0.4-0.2-0.6c-0.2-0.2-0.4-0.2-0.6-0.2s-0.4,0.1-0.6,0.2
				c-0.2,0.2-0.2,0.4-0.2,0.6S79.1,54.6,79.3,54.7z"/>
			<path class="st0" d="M83.3,54.1c0.2,0.1,0.3,0.3,0.3,0.6c0,0.2-0.1,0.4-0.2,0.5c-0.2,0.1-0.3,0.2-0.6,0.2h-1.1v-2.6h1
				c0.2,0,0.4,0.1,0.6,0.2c0.2,0.1,0.2,0.3,0.2,0.5C83.6,53.8,83.5,54,83.3,54.1z M82.8,53.3h-0.5v0.6h0.5c0.1,0,0.1,0,0.2-0.1
				c0.1-0.1,0.1-0.1,0.1-0.2s0-0.1-0.1-0.2C83,53.4,82.9,53.3,82.8,53.3z M82.9,54.9c0.1,0,0.2,0,0.2-0.1c0.1-0.1,0.1-0.1,0.1-0.2
				c0-0.1,0-0.2-0.1-0.2c-0.1-0.1-0.1-0.1-0.2-0.1h-0.6v0.6H82.9z"/>
			<path class="st0" d="M86,55.4L85.8,55h-1.1l-0.2,0.5H84l0.9-2.6h0.6l0.9,2.6H86z M84.9,54.5h0.7l-0.4-1L84.9,54.5z"/>
			<path class="st0" d="M87.9,52.9c0.2,0,0.5,0.1,0.6,0.2c0.2,0.2,0.3,0.4,0.3,0.6c0,0.2-0.1,0.4-0.3,0.6c-0.2,0.2-0.4,0.2-0.6,0.2
				h-0.5v0.8H87v-2.6H87.9z M87.9,54.1c0.1,0,0.2,0,0.3-0.1c0.1-0.1,0.1-0.2,0.1-0.3c0-0.1,0-0.2-0.1-0.3c-0.1-0.1-0.2-0.1-0.3-0.1
				h-0.5v0.8H87.9z"/>
			<path class="st0" d="M91,52.9v0.5h-0.7v2.1h-0.5v-2.1h-0.7v-0.5H91z"/>
			<path class="st0" d="M93.1,55.4v-1.6L92,55.4h-0.4v-2.6h0.5v1.6l1.1-1.6h0.4v2.6H93.1z"/>
			<path class="st0" d="M95.5,55.5c-0.4,0-0.7-0.1-1-0.4c-0.3-0.3-0.4-0.6-0.4-0.9c0-0.4,0.1-0.7,0.4-1c0.3-0.3,0.6-0.4,1-0.4
				c0.2,0,0.4,0.1,0.6,0.2c0.2,0.1,0.4,0.3,0.5,0.4l-0.4,0.3c-0.1-0.1-0.2-0.2-0.3-0.3c-0.1-0.1-0.2-0.1-0.4-0.1
				c-0.2,0-0.5,0.1-0.6,0.2c-0.2,0.2-0.2,0.4-0.2,0.6c0,0.2,0.1,0.4,0.2,0.6c0.2,0.2,0.4,0.2,0.6,0.2c0.1,0,0.3,0,0.4-0.1
				c0.1-0.1,0.2-0.2,0.3-0.3l0.4,0.3c-0.1,0.2-0.3,0.3-0.5,0.4S95.8,55.5,95.5,55.5z"/>
			<path class="st0" d="M98.4,54.5v-0.5h1.4v0.5H98.4z"/>
			<path class="st0" d="M102.6,52.9c0.2,0,0.5,0.1,0.6,0.2c0.2,0.2,0.3,0.4,0.3,0.6c0,0.2-0.1,0.4-0.3,0.6c-0.2,0.2-0.4,0.2-0.6,0.2
				h-0.5v0.8h-0.5v-2.6H102.6z M102.6,54.1c0.1,0,0.2,0,0.3-0.1c0.1-0.1,0.1-0.2,0.1-0.3c0-0.1,0-0.2-0.1-0.3
				c-0.1-0.1-0.2-0.1-0.3-0.1h-0.5v0.8H102.6z"/>
			<path class="st0" d="M104.6,54.9h1.1v0.5h-1.6v-2.6h1.6v0.5h-1.1v0.5h1v0.5h-1V54.9z"/>
			<path class="st0" d="M107.5,55.5c-0.4,0-0.7-0.1-1-0.4c-0.3-0.3-0.4-0.6-0.4-0.9c0-0.4,0.1-0.7,0.4-1c0.3-0.3,0.6-0.4,1-0.4
				c0.2,0,0.4,0.1,0.6,0.2c0.2,0.1,0.4,0.3,0.5,0.4l-0.4,0.3c-0.1-0.1-0.2-0.2-0.3-0.3c-0.1-0.1-0.2-0.1-0.4-0.1
				c-0.2,0-0.5,0.1-0.6,0.2c-0.2,0.2-0.2,0.4-0.2,0.6c0,0.2,0.1,0.4,0.2,0.6c0.2,0.2,0.4,0.2,0.6,0.2c0.1,0,0.3,0,0.4-0.1
				c0.1-0.1,0.2-0.2,0.3-0.3l0.4,0.3c-0.1,0.2-0.3,0.3-0.5,0.4S107.7,55.5,107.5,55.5z"/>
			<path class="st0" d="M110.5,52.9h0.5l-0.8,1.9c-0.2,0.5-0.5,0.7-1,0.7v-0.5c0.1,0,0.2,0,0.3-0.1s0.2-0.1,0.2-0.2l-0.8-1.8h0.5
				l0.6,1.2L110.5,52.9z"/>
			<path class="st0" d="M112.5,52.9c0.2,0,0.5,0.1,0.6,0.2c0.2,0.2,0.3,0.4,0.3,0.6c0,0.2-0.1,0.4-0.3,0.6c-0.2,0.2-0.4,0.2-0.6,0.2
				h-0.5v0.8h-0.5v-2.6H112.5z M112.5,54.1c0.1,0,0.2,0,0.3-0.1c0.1-0.1,0.1-0.2,0.1-0.3c0-0.1,0-0.2-0.1-0.3
				c-0.1-0.1-0.2-0.1-0.3-0.1h-0.5v0.8H112.5z"/>
			<path class="st0" d="M115.2,55.5c-0.4,0-0.7-0.1-1-0.4c-0.3-0.3-0.4-0.6-0.4-0.9c0-0.4,0.1-0.7,0.4-1c0.3-0.3,0.6-0.4,1-0.4
				c0.2,0,0.4,0.1,0.6,0.2c0.2,0.1,0.4,0.3,0.5,0.4l-0.4,0.3c-0.1-0.1-0.2-0.2-0.3-0.3c-0.1-0.1-0.2-0.1-0.4-0.1
				c-0.2,0-0.5,0.1-0.6,0.2s-0.2,0.4-0.2,0.6c0,0.2,0.1,0.4,0.2,0.6s0.4,0.2,0.6,0.2c0.1,0,0.3,0,0.4-0.1c0.1-0.1,0.2-0.2,0.3-0.3
				l0.4,0.3c-0.1,0.2-0.3,0.3-0.5,0.4S115.4,55.5,115.2,55.5z"/>
			<path class="st0" d="M120,52.9v2.6h-0.5v-2.1h-0.9v2.1h-0.5v-2.6H120z"/>
			<path class="st0" d="M122.9,55.1c-0.3,0.3-0.6,0.4-0.9,0.4s-0.7-0.1-0.9-0.4c-0.3-0.3-0.4-0.6-0.4-0.9s0.1-0.7,0.4-0.9
				c0.3-0.3,0.6-0.4,0.9-0.4s0.7,0.1,0.9,0.4c0.3,0.3,0.4,0.6,0.4,0.9S123.1,54.8,122.9,55.1z M121.4,54.7c0.2,0.2,0.4,0.2,0.6,0.2
				c0.2,0,0.4-0.1,0.6-0.2c0.2-0.2,0.2-0.4,0.2-0.6s-0.1-0.4-0.2-0.6c-0.2-0.2-0.4-0.2-0.6-0.2c-0.2,0-0.4,0.1-0.6,0.2
				c-0.2,0.2-0.2,0.4-0.2,0.6S121.2,54.6,121.4,54.7z"/>
			<path class="st0" d="M126,52.9c0.2,0,0.5,0.1,0.6,0.2c0.2,0.2,0.3,0.4,0.3,0.6c0,0.2-0.1,0.4-0.3,0.6c-0.2,0.2-0.4,0.2-0.6,0.2
				h-0.5v0.8h-0.5v-2.6H126z M126,54.1c0.1,0,0.2,0,0.3-0.1c0.1-0.1,0.1-0.2,0.1-0.3c0-0.1,0-0.2-0.1-0.3c-0.1-0.1-0.2-0.1-0.3-0.1
				h-0.5v0.8H126z"/>
			<path class="st0" d="M128.9,55.4l-0.2-0.5h-1.1l-0.2,0.5H127l0.9-2.6h0.6l0.9,2.6H128.9z M127.9,54.5h0.7l-0.4-1L127.9,54.5z"/>
			<path class="st0" d="M131.1,55.5c-0.4,0-0.7-0.1-1-0.4c-0.3-0.3-0.4-0.6-0.4-0.9c0-0.4,0.1-0.7,0.4-1c0.3-0.3,0.6-0.4,1-0.4
				c0.2,0,0.4,0.1,0.6,0.2c0.2,0.1,0.4,0.3,0.5,0.4l-0.4,0.3c-0.1-0.1-0.2-0.2-0.3-0.3c-0.1-0.1-0.2-0.1-0.4-0.1
				c-0.2,0-0.5,0.1-0.6,0.2c-0.2,0.2-0.2,0.4-0.2,0.6c0,0.2,0.1,0.4,0.2,0.6c0.2,0.2,0.4,0.2,0.6,0.2c0.1,0,0.3,0,0.4-0.1
				c0.1-0.1,0.2-0.2,0.3-0.3l0.4,0.3c-0.1,0.2-0.3,0.3-0.5,0.4C131.5,55.4,131.3,55.5,131.1,55.5z"/>
			<path class="st0" d="M133.9,55.5c-0.4,0-0.7-0.1-1-0.4c-0.3-0.3-0.4-0.6-0.4-0.9c0-0.4,0.1-0.7,0.4-1c0.3-0.3,0.6-0.4,1-0.4
				c0.2,0,0.4,0.1,0.6,0.2c0.2,0.1,0.4,0.3,0.5,0.4l-0.4,0.3c-0.1-0.1-0.2-0.2-0.3-0.3c-0.1-0.1-0.2-0.1-0.4-0.1
				c-0.2,0-0.5,0.1-0.6,0.2s-0.2,0.4-0.2,0.6c0,0.2,0.1,0.4,0.2,0.6s0.4,0.2,0.6,0.2c0.1,0,0.3,0,0.4-0.1c0.1-0.1,0.2-0.2,0.3-0.3
				l0.4,0.3c-0.1,0.2-0.3,0.3-0.5,0.4C134.4,55.4,134.2,55.5,133.9,55.5z"/>
			<path class="st0" d="M136.1,54.9h1.1v0.5h-1.6v-2.6h1.6v0.5h-1.1v0.5h1v0.5h-1V54.9z"/>
			<path class="st0" d="M139.6,52.9v2.6h-0.5v-0.9h-0.3l-0.6,0.9h-0.6l0.6-0.9c-0.2-0.1-0.3-0.2-0.4-0.3c-0.1-0.1-0.2-0.3-0.2-0.5
				c0-0.2,0.1-0.4,0.2-0.6c0.2-0.2,0.4-0.2,0.6-0.2H139.6z M138.6,54.1h0.5v-0.8h-0.5c-0.1,0-0.2,0-0.2,0.1
				c-0.1,0.1-0.1,0.2-0.1,0.3c0,0.1,0,0.2,0.1,0.3C138.4,54,138.5,54.1,138.6,54.1z"/>
			<path class="st0" d="M141.8,52.9h0.5v2.6h-0.5v-1.1h-1v1.1h-0.5v-2.6h0.5v1h1V52.9z"/>
			<path class="st0" d="M144.5,52.9h0.5v2.6h-0.5v-1.1h-1v1.1H143v-2.6h0.5v1h1V52.9z"/>
			<path class="st0" d="M147.9,55.1c-0.3,0.3-0.6,0.4-0.9,0.4c-0.4,0-0.7-0.1-0.9-0.4c-0.3-0.3-0.4-0.6-0.4-0.9s0.1-0.7,0.4-0.9
				c0.3-0.3,0.6-0.4,0.9-0.4c0.4,0,0.7,0.1,0.9,0.4c0.3,0.3,0.4,0.6,0.4,0.9S148.1,54.8,147.9,55.1z M146.4,54.7
				c0.2,0.2,0.4,0.2,0.6,0.2c0.2,0,0.4-0.1,0.6-0.2c0.2-0.2,0.2-0.4,0.2-0.6s-0.1-0.4-0.2-0.6c-0.2-0.2-0.4-0.2-0.6-0.2
				c-0.2,0-0.4,0.1-0.6,0.2c-0.2,0.2-0.2,0.4-0.2,0.6S146.2,54.6,146.4,54.7z"/>
			<path class="st0" d="M151.4,52.9v2.6h-0.5v-1.7l-0.7,1.2l-0.1,0l-0.7-1.2v1.7h-0.5v-2.6h0.5l0.7,1.2l0.7-1.2H151.4z"/>
			<path class="st0" d="M153.6,52.9h0.5l-0.8,1.9c-0.2,0.5-0.5,0.7-1,0.7v-0.5c0.1,0,0.2,0,0.3-0.1c0.1-0.1,0.2-0.1,0.2-0.2
				l-0.8-1.8h0.5l0.6,1.2L153.6,52.9z"/>
			<path class="st0" d="M157,55.5c-0.4,0-0.7-0.1-1-0.4c-0.3-0.3-0.4-0.6-0.4-0.9c0-0.4,0.1-0.7,0.4-1c0.3-0.3,0.6-0.4,1-0.4
				c0.2,0,0.4,0.1,0.6,0.2c0.2,0.1,0.4,0.3,0.5,0.4l-0.4,0.3c-0.1-0.1-0.2-0.2-0.3-0.3c-0.1-0.1-0.2-0.1-0.4-0.1
				c-0.2,0-0.5,0.1-0.6,0.2c-0.2,0.2-0.2,0.4-0.2,0.6c0,0.2,0.1,0.4,0.2,0.6c0.2,0.2,0.4,0.2,0.6,0.2c0.1,0,0.3,0,0.4-0.1
				c0.1-0.1,0.2-0.2,0.3-0.3l0.4,0.3c-0.1,0.2-0.3,0.3-0.5,0.4C157.4,55.4,157.2,55.5,157,55.5z"/>
			<path class="st0" d="M160.7,55.4h-0.6l-0.9-1.2v1.2h-0.5v-2.6h0.5V54l0.9-1.1h0.6l-0.9,1.2L160.7,55.4z"/>
			<path class="st0" d="M161,55.4v-0.5c0.2,0,0.3,0,0.3-0.1c0.1-0.1,0.1-0.2,0.1-0.5v-1.5h1.7v2.6h-0.5v-2.1H162v1
				c0,0.2,0,0.4-0.1,0.6c-0.1,0.2-0.1,0.3-0.2,0.3c-0.1,0.1-0.2,0.1-0.3,0.1C161.2,55.4,161.1,55.4,161,55.4z"/>
			<path class="st0" d="M164.4,54.9h1.1v0.5h-1.6v-2.6h1.6v0.5h-1.1v0.5h1v0.5h-1V54.9z"/>
			<path class="st0" d="M167.1,52.9c0.2,0,0.5,0.1,0.6,0.2c0.2,0.2,0.3,0.4,0.3,0.6c0,0.2-0.1,0.4-0.3,0.6c-0.2,0.2-0.4,0.2-0.6,0.2
				h-0.5v0.8h-0.5v-2.6H167.1z M167.1,54.1c0.1,0,0.2,0,0.3-0.1c0.1-0.1,0.1-0.2,0.1-0.3c0-0.1,0-0.2-0.1-0.3
				c-0.1-0.1-0.2-0.1-0.3-0.1h-0.5v0.8H167.1z"/>
			<path class="st0" d="M170.7,55.1c-0.3,0.3-0.6,0.4-0.9,0.4c-0.4,0-0.7-0.1-0.9-0.4c-0.3-0.3-0.4-0.6-0.4-0.9s0.1-0.7,0.4-0.9
				c0.3-0.3,0.6-0.4,0.9-0.4c0.4,0,0.7,0.1,0.9,0.4c0.3,0.3,0.4,0.6,0.4,0.9S171,54.8,170.7,55.1z M169.2,54.7
				c0.2,0.2,0.4,0.2,0.6,0.2s0.4-0.1,0.6-0.2c0.2-0.2,0.2-0.4,0.2-0.6s-0.1-0.4-0.2-0.6c-0.2-0.2-0.4-0.2-0.6-0.2s-0.4,0.1-0.6,0.2
				c-0.2,0.2-0.2,0.4-0.2,0.6S169,54.6,169.2,54.7z"/>
			<path class="st0" d="M172.9,54.1c0.2,0.1,0.4,0.3,0.4,0.6c0,0.2-0.1,0.4-0.3,0.6c-0.2,0.1-0.4,0.2-0.7,0.2c-0.5,0-0.8-0.2-1-0.6
				l0.4-0.2c0.1,0.2,0.3,0.4,0.5,0.4c0.1,0,0.2,0,0.3-0.1c0.1-0.1,0.1-0.1,0.1-0.2c0-0.1,0-0.2-0.1-0.2c-0.1-0.1-0.2-0.1-0.3-0.1
				h-0.3v-0.5h0.2c0.1,0,0.2,0,0.3-0.1c0.1-0.1,0.1-0.1,0.1-0.2c0-0.1,0-0.2-0.1-0.2c-0.1-0.1-0.2-0.1-0.3-0.1
				c-0.2,0-0.4,0.1-0.5,0.3l-0.4-0.2c0.2-0.4,0.5-0.5,0.9-0.5c0.3,0,0.5,0.1,0.6,0.2c0.2,0.1,0.2,0.3,0.2,0.5
				C173.2,53.8,173.1,54,172.9,54.1z"/>
			<path class="st0" d="M175.2,52.9h0.5l-0.8,1.9c-0.2,0.5-0.5,0.7-1,0.7v-0.5c0.1,0,0.2,0,0.3-0.1c0.1-0.1,0.2-0.1,0.2-0.2
				l-0.8-1.8h0.5l0.6,1.2L175.2,52.9z"/>
		</g>
	</g>
</g>
<circle class="st1" cx="59.1" cy="39.8" r="10.6"/>
<circle class="st2" cx="34.2" cy="53.2" r="14.2"/>
<path class="st0" d="M63.1,37.3c-1.6-1.4-3.6-0.8-5.2,0.2c-1.5,0.9-3.2,2-4.6,0.2c-1.1-1.4,0.1-3.5,1.8-3.7c2.1-0.2,1.9-3.5-0.1-3.3
	c-4.5,0.5-7.1,6-3.7,9.4c1.5,1.5,3.9,2.2,5.9,1.5c1-0.3,1.8-1,2.7-1.5c0.3-0.2,0.8-0.5,1.1-0.3c0.5,0.3,0.4,1.4,0.4,1.9
	c-0.1,1.2-0.5,2.3-0.3,3.5c0.1,1.4,0.8,2.5,1.6,3.6c0.7,0.9,1.7,1.8,2,3c0.2,1.1,0.1,2.4-0.4,3.4c-2.5,4.6-7.7,10.8-13.5,11.1
	c-3.4,0.1-5.6-2.4-7.7-4.7c-0.9-1-2-2.2-3.3-2.7c-0.6-0.2-1.3-0.2-1.9,0c-0.1,0-0.3,0.1-0.5,0.2c0.2-1.4,2.1-3,2.7-3.9
	c0.9-1.3,1.4-3.1,0-4.3c-1.5-1.2-3.5-0.7-5,0.3c-0.7,0.5-3.4,3.8-4.2,3c-0.2-0.2,2.9-3.3,3.4-3.8c1.1-1.4,2.2-3.2,1.9-5
	c-0.3-1.7-1.8-2.7-3.5-2.6c-1.9,0.2-2.8,1.6-4.2,2.4c-2.3-2.2-4.7-4.7-5-8c-0.3-3.6,3.2-6,5.5-8.3c2.3-2.3,4.9-5.8,8.5-5.4
	c3.6,0.4,4.8,1.9,7,4.5c1.3,1.6,4.1-0.2,2.7-1.8c-2.8-3.3-4.5-5.2-9-5.9c-4.9-0.7-8,2.9-11.2,6.1c-3.1,3-6.9,6-6.7,10.8
	c0.2,4.7,3.6,8.2,6.8,11.2c0.4,0.4,1,0.5,1.6,0.3c1-0.3,1.8-0.8,2.5-1.5c0.3-0.3,0.7-0.7,1.1-0.9c0.2-0.1,0.3-0.2,0.5-0.2
	c0.4,0,0.2,0.1,0.2,0c0.2,0.8-1.1,2.2-1.6,2.7c-0.7,0.8-1.5,1.5-2.2,2.3c-1.2,1.4-2.3,3.1-1.1,4.8c0.9,1.4,2.7,2,4.3,1.5
	c2.1-0.6,3-2.5,4.7-3.6c-0.1,0.1-0.2,0.3-0.4,0.4c-0.7,0.8-1.4,1.6-1.9,2.5c-0.8,1.5-1.1,3.6,0,5.1c0.5,0.6,1.3,0.8,2.1,0.8
	c0.4,0,0.7-0.2,1.1-0.3c0.6-0.2,0.6-0.4,1.1-0.1c0.8,0.4,1.6,1.5,2.2,2.2c0.8,0.9,1.6,1.7,2.5,2.5c1.2,1,2.7,1.9,4.2,2.3
	c1.8,0.5,3.3,0.4,5.1-0.1c1-0.3,2-0.6,3-1c0.6-0.3,1.2-0.7,1.7-1.1c2.3-1.7,4.5-3.5,6.5-5.7c1-1.1,1.9-2.2,2.7-3.4
	c0.7-1,1.7-2.4,1.9-3.6c0.3-2-1.1-4.2-2.2-5.7c-0.6-0.8-1.3-1.5-1.8-2.3c-0.6-1-0.6-1.9-0.4-3C64.8,41.2,64.9,38.8,63.1,37.3z"/>
<path class="st3" d="M53.4,23.7c-2.1,2.2-4.3,4.4-6.5,6.4c-0.5,0.5-1.2,0.9-1.6,1.4c-0.1,0.1-0.3,0.2-0.3,0.4
	c-0.2-0.2-0.5-0.5-0.6-0.6c-1.2-1.1-2.5-2.3-3.7-3.5c-1.5-1.5-3.7,1-2.2,2.4c1.5,1.4,2.9,2.9,4.5,4.2c1.4,1.2,2.7,1,4.1-0.2
	c3.1-2.6,6-5.5,8.7-8.4C57.3,24.4,54.8,22.2,53.4,23.7z"/>
</svg>
