<?xml version="1.0" encoding="utf-8"?>
<!-- Generator: Adobe Illustrator 23.0.2, SVG Export Plug-In . SVG Version: 6.00 Build 0)  -->
<svg version="1.1" id="Layer_1" xmlns="http://www.w3.org/2000/svg" xmlns:xlink="http://www.w3.org/1999/xlink" x="0px" y="0px"
	 viewBox="0 0 100 29" style="enable-background:new 0 0 100 29;" xml:space="preserve">
<style type="text/css">
	.st0{fill:#FFFFFF;}
</style>
<g>
	<g>
		<g>
			<g>
				<path class="st0" d="M13.6,3.3v17h-2.4v-6.6c0-1.9,0.1-3.7,0.2-5.5l-0.1,0c-0.5,1.4-1.1,2.9-1.7,4.5l-1.5,3.9H5.7l-1.5-3.9
					c-0.6-1.6-1.2-3.1-1.7-4.5l-0.1,0c0.1,1.8,0.1,3.6,0.2,5.5v6.6H0.3v-17h2.5l2.9,6.9c0.4,1,1,2.6,1.2,3.4H7
					c0.3-0.8,0.9-2.4,1.2-3.4l2.9-6.9H13.6z"/>
				<path class="st0" d="M16,15.7h2.5c0,1.8,1,2.6,2.5,2.6c1.6,0,2.4-1,2.4-2.3c0-3.4-7.1-3.6-7.1-8.6c0-2.5,1.8-4.3,4.7-4.3
					c2.9,0,4.7,1.9,4.7,4.8h-2.5c0-1.6-0.9-2.4-2.2-2.4c-1.4,0-2.2,0.8-2.2,2c0,3.3,7.2,3.3,7.2,8.6c0,2.5-1.8,4.7-5,4.7
					C17.9,20.7,16,18.8,16,15.7z"/>
			</g>
			<g>
				<path class="st0" d="M41.7,3.6v17h-2.5v-7.5h-4.8v7.5h-2.5v-17h2.5v7.3h4.8V3.6H41.7z"/>
				<path class="st0" d="M53.7,18.3v2.3h-8.6v-17h8.4v2.3h-5.9v4.9H53v2.3h-5.4v5.2H53.7z"/>
				<path class="st0" d="M64.4,18.3v2.3h-8.1v-17h2.5v14.7H64.4z"/>
				<path class="st0" d="M76,9.1c0,3.6-1.9,5.6-5.2,5.6h-2v6h-2.5v-17h4.5C74.1,3.6,76,5.6,76,9.1z M73.5,9.1c0-2.1-0.9-3.2-2.8-3.2
					h-2v6.4h2C72.6,12.3,73.5,11.3,73.5,9.1z"/>
				<path class="st0" d="M86.7,18.3v2.3h-8.6v-17h8.4v2.3h-5.9v4.9H86v2.3h-5.4v5.2H86.7z"/>
				<path class="st0" d="M93.3,14.5h-1.5v6.2h-2.5v-17h4.4c3.3,0,5.1,1.9,5.1,5.3c0,2.7-1.1,4.5-3.1,5.2l3.7,6.5h-2.7L93.3,14.5z
					 M91.8,12.1h1.9c1.7,0,2.6-1.1,2.6-3.1s-0.9-3-2.6-3h-1.9V12.1z"/>
			</g>
		</g>
	</g>
	<g>
		<g>
			<path class="st0" d="M1.5,24.4H2V27H1.5v-1.1h-1V27H0v-2.6h0.5v1h1V24.4z"/>
			<path class="st0" d="M4.9,26.6C4.6,26.9,4.3,27,3.9,27c-0.4,0-0.7-0.1-0.9-0.4s-0.4-0.6-0.4-0.9c0-0.4,0.1-0.7,0.4-0.9
				s0.6-0.4,0.9-0.4c0.4,0,0.7,0.1,0.9,0.4c0.3,0.3,0.4,0.6,0.4,0.9C5.3,26.1,5.1,26.4,4.9,26.6z M3.4,26.3c0.2,0.2,0.4,0.2,0.6,0.2
				s0.4-0.1,0.6-0.2c0.2-0.2,0.2-0.4,0.2-0.6c0-0.2-0.1-0.4-0.2-0.6c-0.2-0.2-0.4-0.2-0.6-0.2s-0.4,0.1-0.6,0.2
				c-0.2,0.2-0.2,0.4-0.2,0.6C3.1,25.9,3.2,26.1,3.4,26.3z"/>
			<path class="st0" d="M7.4,25.7c0.2,0.1,0.3,0.3,0.3,0.6c0,0.2-0.1,0.4-0.2,0.5C7.4,26.9,7.2,27,7,27H5.9v-2.6h1
				c0.2,0,0.4,0.1,0.6,0.2c0.2,0.1,0.2,0.3,0.2,0.5C7.7,25.4,7.6,25.5,7.4,25.7z M6.9,24.9H6.4v0.6h0.5c0.1,0,0.1,0,0.2-0.1
				c0.1-0.1,0.1-0.1,0.1-0.2c0-0.1,0-0.1-0.1-0.2C7,24.9,7,24.9,6.9,24.9z M7,26.5c0.1,0,0.2,0,0.2-0.1c0.1-0.1,0.1-0.1,0.1-0.2
				c0-0.1,0-0.2-0.1-0.2c-0.1-0.1-0.1-0.1-0.2-0.1H6.4v0.6H7z"/>
			<path class="st0" d="M10.1,27l-0.2-0.5H8.8L8.7,27H8.1L9,24.4h0.6l0.9,2.6H10.1z M9,26.1h0.7l-0.4-1L9,26.1z"/>
			<path class="st0" d="M12,24.4c0.2,0,0.5,0.1,0.6,0.2c0.2,0.2,0.3,0.4,0.3,0.6c0,0.2-0.1,0.4-0.3,0.6c-0.2,0.2-0.4,0.2-0.6,0.2
				h-0.5V27h-0.5v-2.6H12z M12,25.7c0.1,0,0.2,0,0.3-0.1c0.1-0.1,0.1-0.2,0.1-0.3c0-0.1,0-0.2-0.1-0.3c-0.1-0.1-0.2-0.1-0.3-0.1
				h-0.5v0.8H12z"/>
			<path class="st0" d="M15.1,24.4v0.5h-0.7V27h-0.5v-2.1h-0.7v-0.5H15.1z"/>
			<path class="st0" d="M17.2,27v-1.6L16.1,27h-0.4v-2.6h0.5V26l1.1-1.6h0.4V27H17.2z"/>
			<path class="st0" d="M19.6,27c-0.4,0-0.7-0.1-1-0.4c-0.3-0.3-0.4-0.6-0.4-0.9c0-0.4,0.1-0.7,0.4-1c0.3-0.3,0.6-0.4,1-0.4
				c0.2,0,0.4,0.1,0.6,0.2c0.2,0.1,0.4,0.3,0.5,0.4l-0.4,0.3C20.2,25.1,20.1,25,20,25c-0.1-0.1-0.2-0.1-0.4-0.1
				c-0.2,0-0.5,0.1-0.6,0.2c-0.2,0.2-0.2,0.4-0.2,0.6c0,0.2,0.1,0.4,0.2,0.6c0.2,0.2,0.4,0.2,0.6,0.2c0.1,0,0.3,0,0.4-0.1
				c0.1-0.1,0.2-0.2,0.3-0.3l0.4,0.3c-0.1,0.2-0.3,0.3-0.5,0.4C20.1,27,19.9,27,19.6,27z"/>
			<path class="st0" d="M22.5,26.1v-0.5h1.4v0.5H22.5z"/>
			<path class="st0" d="M26.7,24.4c0.2,0,0.5,0.1,0.6,0.2c0.2,0.2,0.3,0.4,0.3,0.6c0,0.2-0.1,0.4-0.3,0.6c-0.2,0.2-0.4,0.2-0.6,0.2
				h-0.5V27h-0.5v-2.6H26.7z M26.7,25.7c0.1,0,0.2,0,0.3-0.1c0.1-0.1,0.1-0.2,0.1-0.3c0-0.1,0-0.2-0.1-0.3c-0.1-0.1-0.2-0.1-0.3-0.1
				h-0.5v0.8H26.7z"/>
			<path class="st0" d="M28.7,26.5h1.1V27h-1.6v-2.6h1.6v0.5h-1.1v0.5h1v0.5h-1V26.5z"/>
			<path class="st0" d="M31.6,27c-0.4,0-0.7-0.1-1-0.4c-0.3-0.3-0.4-0.6-0.4-0.9c0-0.4,0.1-0.7,0.4-1c0.3-0.3,0.6-0.4,1-0.4
				c0.2,0,0.4,0.1,0.6,0.2c0.2,0.1,0.4,0.3,0.5,0.4l-0.4,0.3C32.2,25.1,32.1,25,32,25c-0.1-0.1-0.2-0.1-0.4-0.1
				c-0.2,0-0.5,0.1-0.6,0.2c-0.2,0.2-0.2,0.4-0.2,0.6c0,0.2,0.1,0.4,0.2,0.6c0.2,0.2,0.4,0.2,0.6,0.2c0.1,0,0.3,0,0.4-0.1
				c0.1-0.1,0.2-0.2,0.3-0.3l0.4,0.3c-0.1,0.2-0.3,0.3-0.5,0.4S31.8,27,31.6,27z"/>
			<path class="st0" d="M34.6,24.4h0.5l-0.8,1.9c-0.2,0.5-0.5,0.7-1,0.7v-0.5c0.1,0,0.2,0,0.3-0.1c0.1-0.1,0.2-0.1,0.2-0.2l-0.8-1.8
				h0.5l0.6,1.2L34.6,24.4z"/>
			<path class="st0" d="M36.6,24.4c0.2,0,0.5,0.1,0.6,0.2c0.2,0.2,0.3,0.4,0.3,0.6c0,0.2-0.1,0.4-0.3,0.6c-0.2,0.2-0.4,0.2-0.6,0.2
				h-0.5V27h-0.5v-2.6H36.6z M36.6,25.7c0.1,0,0.2,0,0.3-0.1c0.1-0.1,0.1-0.2,0.1-0.3c0-0.1,0-0.2-0.1-0.3c-0.1-0.1-0.2-0.1-0.3-0.1
				h-0.5v0.8H36.6z"/>
			<path class="st0" d="M39.3,27c-0.4,0-0.7-0.1-1-0.4c-0.3-0.3-0.4-0.6-0.4-0.9c0-0.4,0.1-0.7,0.4-1c0.3-0.3,0.6-0.4,1-0.4
				c0.2,0,0.4,0.1,0.6,0.2c0.2,0.1,0.4,0.3,0.5,0.4L40,25.2c-0.1-0.1-0.2-0.2-0.3-0.3c-0.1-0.1-0.2-0.1-0.4-0.1
				c-0.2,0-0.5,0.1-0.6,0.2c-0.2,0.2-0.2,0.4-0.2,0.6c0,0.2,0.1,0.4,0.2,0.6c0.2,0.2,0.4,0.2,0.6,0.2c0.1,0,0.3,0,0.4-0.1
				c0.1-0.1,0.2-0.2,0.3-0.3l0.4,0.3c-0.1,0.2-0.3,0.3-0.5,0.4S39.5,27,39.3,27z"/>
			<path class="st0" d="M44.1,24.4V27h-0.5v-2.1h-0.9V27h-0.5v-2.6H44.1z"/>
			<path class="st0" d="M47,26.6C46.7,26.9,46.4,27,46,27s-0.7-0.1-0.9-0.4c-0.3-0.3-0.4-0.6-0.4-0.9c0-0.4,0.1-0.7,0.4-0.9
				c0.3-0.3,0.6-0.4,0.9-0.4s0.7,0.1,0.9,0.4s0.4,0.6,0.4,0.9C47.4,26.1,47.2,26.4,47,26.6z M45.5,26.3c0.2,0.2,0.4,0.2,0.6,0.2
				c0.2,0,0.4-0.1,0.6-0.2c0.2-0.2,0.2-0.4,0.2-0.6c0-0.2-0.1-0.4-0.2-0.6s-0.4-0.2-0.6-0.2c-0.2,0-0.4,0.1-0.6,0.2
				c-0.2,0.2-0.2,0.4-0.2,0.6C45.2,25.9,45.3,26.1,45.5,26.3z"/>
			<path class="st0" d="M50.1,24.4c0.2,0,0.5,0.1,0.6,0.2c0.2,0.2,0.3,0.4,0.3,0.6c0,0.2-0.1,0.4-0.3,0.6c-0.2,0.2-0.4,0.2-0.6,0.2
				h-0.5V27h-0.5v-2.6H50.1z M50.1,25.7c0.1,0,0.2,0,0.3-0.1c0.1-0.1,0.1-0.2,0.1-0.3c0-0.1,0-0.2-0.1-0.3c-0.1-0.1-0.2-0.1-0.3-0.1
				h-0.5v0.8H50.1z"/>
			<path class="st0" d="M53,27l-0.2-0.5h-1.1L51.6,27h-0.5l0.9-2.6h0.6l0.9,2.6H53z M52,26.1h0.7l-0.4-1L52,26.1z"/>
			<path class="st0" d="M55.2,27c-0.4,0-0.7-0.1-1-0.4c-0.3-0.3-0.4-0.6-0.4-0.9c0-0.4,0.1-0.7,0.4-1c0.3-0.3,0.6-0.4,1-0.4
				c0.2,0,0.4,0.1,0.6,0.2c0.2,0.1,0.4,0.3,0.5,0.4l-0.4,0.3c-0.1-0.1-0.2-0.2-0.3-0.3c-0.1-0.1-0.2-0.1-0.4-0.1
				c-0.2,0-0.5,0.1-0.6,0.2c-0.2,0.2-0.2,0.4-0.2,0.6c0,0.2,0.1,0.4,0.2,0.6c0.2,0.2,0.4,0.2,0.6,0.2c0.1,0,0.3,0,0.4-0.1
				c0.1-0.1,0.2-0.2,0.3-0.3l0.4,0.3c-0.1,0.2-0.3,0.3-0.5,0.4C55.6,27,55.4,27,55.2,27z"/>
			<path class="st0" d="M58,27c-0.4,0-0.7-0.1-1-0.4c-0.3-0.3-0.4-0.6-0.4-0.9c0-0.4,0.1-0.7,0.4-1c0.3-0.3,0.6-0.4,1-0.4
				c0.2,0,0.4,0.1,0.6,0.2c0.2,0.1,0.4,0.3,0.5,0.4l-0.4,0.3c-0.1-0.1-0.2-0.2-0.3-0.3c-0.1-0.1-0.2-0.1-0.4-0.1
				c-0.2,0-0.5,0.1-0.6,0.2c-0.2,0.2-0.2,0.4-0.2,0.6c0,0.2,0.1,0.4,0.2,0.6c0.2,0.2,0.4,0.2,0.6,0.2c0.1,0,0.3,0,0.4-0.1
				c0.1-0.1,0.2-0.2,0.3-0.3l0.4,0.3c-0.1,0.2-0.3,0.3-0.5,0.4S58.3,27,58,27z"/>
			<path class="st0" d="M60.2,26.5h1.1V27h-1.6v-2.6h1.6v0.5h-1.1v0.5h1v0.5h-1V26.5z"/>
			<path class="st0" d="M63.7,24.4V27h-0.5v-0.9h-0.3L62.3,27h-0.6l0.6-0.9c-0.2-0.1-0.3-0.2-0.4-0.3c-0.1-0.1-0.2-0.3-0.2-0.5
				c0-0.2,0.1-0.4,0.2-0.6c0.2-0.2,0.4-0.2,0.6-0.2H63.7z M62.7,25.7h0.5v-0.8h-0.5c-0.1,0-0.2,0-0.2,0.1c-0.1,0.1-0.1,0.2-0.1,0.3
				c0,0.1,0,0.2,0.1,0.3C62.5,25.6,62.6,25.7,62.7,25.7z"/>
			<path class="st0" d="M65.9,24.4h0.5V27h-0.5v-1.1h-1V27h-0.5v-2.6h0.5v1h1V24.4z"/>
			<path class="st0" d="M68.6,24.4h0.5V27h-0.5v-1.1h-1V27h-0.5v-2.6h0.5v1h1V24.4z"/>
			<path class="st0" d="M72,26.6C71.7,26.9,71.4,27,71,27s-0.7-0.1-0.9-0.4s-0.4-0.6-0.4-0.9c0-0.4,0.1-0.7,0.4-0.9s0.6-0.4,0.9-0.4
				s0.7,0.1,0.9,0.4s0.4,0.6,0.4,0.9C72.4,26.1,72.2,26.4,72,26.6z M70.4,26.3c0.2,0.2,0.4,0.2,0.6,0.2c0.2,0,0.4-0.1,0.6-0.2
				c0.2-0.2,0.2-0.4,0.2-0.6c0-0.2-0.1-0.4-0.2-0.6s-0.4-0.2-0.6-0.2c-0.2,0-0.4,0.1-0.6,0.2s-0.2,0.4-0.2,0.6
				C70.2,25.9,70.3,26.1,70.4,26.3z"/>
			<path class="st0" d="M75.5,24.4V27H75v-1.7l-0.7,1.2l-0.1,0l-0.7-1.2V27H73v-2.6h0.5l0.7,1.2l0.7-1.2H75.5z"/>
			<path class="st0" d="M77.7,24.4h0.5l-0.8,1.9c-0.2,0.5-0.5,0.7-1,0.7v-0.5c0.1,0,0.2,0,0.3-0.1c0.1-0.1,0.2-0.1,0.2-0.2l-0.8-1.8
				h0.5l0.6,1.2L77.7,24.4z"/>
			<path class="st0" d="M81.1,27c-0.4,0-0.7-0.1-1-0.4c-0.3-0.3-0.4-0.6-0.4-0.9c0-0.4,0.1-0.7,0.4-1c0.3-0.3,0.6-0.4,1-0.4
				c0.2,0,0.4,0.1,0.6,0.2c0.2,0.1,0.4,0.3,0.5,0.4l-0.4,0.3c-0.1-0.1-0.2-0.2-0.3-0.3c-0.1-0.1-0.2-0.1-0.4-0.1
				c-0.2,0-0.5,0.1-0.6,0.2s-0.2,0.4-0.2,0.6c0,0.2,0.1,0.4,0.2,0.6s0.4,0.2,0.6,0.2c0.1,0,0.3,0,0.4-0.1c0.1-0.1,0.2-0.2,0.3-0.3
				l0.4,0.3c-0.1,0.2-0.3,0.3-0.5,0.4C81.5,27,81.3,27,81.1,27z"/>
			<path class="st0" d="M84.8,27h-0.6l-0.9-1.2V27h-0.5v-2.6h0.5v1.1l0.9-1.1h0.6l-0.9,1.2L84.8,27z"/>
			<path class="st0" d="M85.1,27v-0.5c0.2,0,0.3,0,0.3-0.1c0.1-0.1,0.1-0.2,0.1-0.5v-1.5h1.7V27h-0.5v-2.1h-0.7v1
				c0,0.2,0,0.4-0.1,0.6c-0.1,0.2-0.1,0.3-0.2,0.3c-0.1,0.1-0.2,0.1-0.3,0.1C85.3,27,85.2,27,85.1,27z"/>
			<path class="st0" d="M88.5,26.5h1.1V27H88v-2.6h1.6v0.5h-1.1v0.5h1v0.5h-1V26.5z"/>
			<path class="st0" d="M91.2,24.4c0.2,0,0.5,0.1,0.6,0.2c0.2,0.2,0.3,0.4,0.3,0.6c0,0.2-0.1,0.4-0.3,0.6c-0.2,0.2-0.4,0.2-0.6,0.2
				h-0.5V27h-0.5v-2.6H91.2z M91.2,25.7c0.1,0,0.2,0,0.3-0.1c0.1-0.1,0.1-0.2,0.1-0.3c0-0.1,0-0.2-0.1-0.3c-0.1-0.1-0.2-0.1-0.3-0.1
				h-0.5v0.8H91.2z"/>
			<path class="st0" d="M94.8,26.6c-0.3,0.3-0.6,0.4-0.9,0.4s-0.7-0.1-0.9-0.4c-0.3-0.3-0.4-0.6-0.4-0.9c0-0.4,0.1-0.7,0.4-0.9
				c0.3-0.3,0.6-0.4,0.9-0.4s0.7,0.1,0.9,0.4c0.3,0.3,0.4,0.6,0.4,0.9C95.2,26.1,95,26.4,94.8,26.6z M93.3,26.3
				c0.2,0.2,0.4,0.2,0.6,0.2s0.4-0.1,0.6-0.2c0.2-0.2,0.2-0.4,0.2-0.6c0-0.2-0.1-0.4-0.2-0.6c-0.2-0.2-0.4-0.2-0.6-0.2
				s-0.4,0.1-0.6,0.2c-0.2,0.2-0.2,0.4-0.2,0.6C93,25.9,93.1,26.1,93.3,26.3z"/>
			<path class="st0" d="M97,25.7c0.2,0.1,0.4,0.3,0.4,0.6c0,0.2-0.1,0.4-0.3,0.6C97,27,96.7,27,96.5,27c-0.5,0-0.8-0.2-1-0.6
				l0.4-0.2c0.1,0.2,0.3,0.4,0.5,0.4c0.1,0,0.2,0,0.3-0.1c0.1-0.1,0.1-0.1,0.1-0.2c0-0.1,0-0.2-0.1-0.2c-0.1-0.1-0.2-0.1-0.3-0.1
				h-0.3v-0.5h0.2c0.1,0,0.2,0,0.3-0.1c0.1-0.1,0.1-0.1,0.1-0.2c0-0.1,0-0.2-0.1-0.2c-0.1-0.1-0.2-0.1-0.3-0.1
				c-0.2,0-0.4,0.1-0.5,0.3l-0.4-0.2c0.2-0.4,0.5-0.5,0.9-0.5c0.3,0,0.5,0.1,0.6,0.2c0.2,0.1,0.2,0.3,0.2,0.5
				C97.3,25.3,97.2,25.5,97,25.7z"/>
			<path class="st0" d="M99.3,24.4h0.5l-0.8,1.9c-0.2,0.5-0.5,0.7-1,0.7v-0.5c0.1,0,0.2,0,0.3-0.1c0.1-0.1,0.2-0.1,0.2-0.2l-0.8-1.8
				h0.5l0.6,1.2L99.3,24.4z"/>
		</g>
	</g>
</g>
</svg>
