<?xml version="1.0" encoding="utf-8"?>
<!-- Generator: Adobe Illustrator 23.0.2, SVG Export Plug-In . SVG Version: 6.00 Build 0)  -->
<svg version="1.1" id="Layer_1" xmlns="http://www.w3.org/2000/svg" xmlns:xlink="http://www.w3.org/1999/xlink" x="0px" y="0px"
	 viewBox="0 0 120 49" style="enable-background:new 0 0 120 49;" xml:space="preserve">
<style type="text/css">
	.st0{fill:#FFFFFF;}
</style>
<g>
	<g>
		<g>
			<g>
				<path class="st0" d="M23.6,13.3v17h-2.4v-6.6c0-1.9,0.1-3.7,0.2-5.5l-0.1,0c-0.5,1.4-1.1,2.9-1.7,4.5l-1.5,3.9h-2.4l-1.5-3.9
					c-0.6-1.6-1.2-3.1-1.7-4.5l-0.1,0c0.1,1.8,0.1,3.6,0.2,5.5v6.6h-2.4v-17h2.5l2.9,6.9c0.4,1,1,2.6,1.2,3.4H17
					c0.3-0.8,0.9-2.4,1.2-3.4l2.9-6.9H23.6z"/>
				<path class="st0" d="M26,25.7h2.5c0,1.8,1,2.6,2.5,2.6c1.6,0,2.4-1,2.4-2.3c0-3.4-7.1-3.6-7.1-8.6c0-2.5,1.8-4.3,4.7-4.3
					c2.9,0,4.7,1.9,4.7,4.8h-2.5c0-1.6-0.9-2.4-2.2-2.4c-1.4,0-2.2,0.8-2.2,2c0,3.3,7.2,3.3,7.2,8.6c0,2.5-1.8,4.7-5,4.7
					C27.9,30.7,26,28.8,26,25.7z"/>
			</g>
			<g>
				<path class="st0" d="M51.7,13.6v17h-2.5v-7.5h-4.8v7.5h-2.5v-17h2.5v7.3h4.8v-7.3H51.7z"/>
				<path class="st0" d="M63.7,28.3v2.3h-8.6v-17h8.4v2.3h-5.9v4.9H63v2.3h-5.4v5.2H63.7z"/>
				<path class="st0" d="M74.4,28.3v2.3h-8.1v-17h2.5v14.7H74.4z"/>
				<path class="st0" d="M86,19.1c0,3.6-1.9,5.6-5.2,5.6h-2v6h-2.5v-17h4.5C84.1,13.6,86,15.6,86,19.1z M83.5,19.1
					c0-2.1-0.9-3.2-2.8-3.2h-2v6.4h2C82.6,22.3,83.5,21.3,83.5,19.1z"/>
				<path class="st0" d="M96.7,28.3v2.3h-8.6v-17h8.4v2.3h-5.9v4.9H96v2.3h-5.4v5.2H96.7z"/>
				<path class="st0" d="M103.3,24.5h-1.5v6.2h-2.5v-17h4.4c3.3,0,5.1,1.9,5.1,5.3c0,2.7-1.1,4.5-3.1,5.2l3.7,6.5h-2.7L103.3,24.5z
					 M101.8,22.1h1.9c1.7,0,2.6-1.1,2.6-3.1s-0.9-3-2.6-3h-1.9V22.1z"/>
			</g>
		</g>
	</g>
	<g>
		<g>
			<path class="st0" d="M11.5,34.4H12V37h-0.5v-1.1h-1V37H10v-2.6h0.5v1h1V34.4z"/>
			<path class="st0" d="M14.9,36.6c-0.3,0.3-0.6,0.4-0.9,0.4c-0.4,0-0.7-0.1-0.9-0.4c-0.3-0.3-0.4-0.6-0.4-0.9s0.1-0.7,0.4-0.9
				c0.3-0.3,0.6-0.4,0.9-0.4c0.4,0,0.7,0.1,0.9,0.4c0.3,0.3,0.4,0.6,0.4,0.9S15.1,36.4,14.9,36.6z M13.4,36.3
				c0.2,0.2,0.4,0.2,0.6,0.2s0.4-0.1,0.6-0.2c0.2-0.2,0.2-0.4,0.2-0.6s-0.1-0.4-0.2-0.6c-0.2-0.2-0.4-0.2-0.6-0.2s-0.4,0.1-0.6,0.2
				c-0.2,0.2-0.2,0.4-0.2,0.6S13.2,36.1,13.4,36.3z"/>
			<path class="st0" d="M17.4,35.7c0.2,0.1,0.3,0.3,0.3,0.6c0,0.2-0.1,0.4-0.2,0.5C17.4,36.9,17.2,37,17,37h-1.1v-2.6h1
				c0.2,0,0.4,0.1,0.6,0.2c0.2,0.1,0.2,0.3,0.2,0.5C17.7,35.4,17.6,35.5,17.4,35.7z M16.9,34.9h-0.5v0.6h0.5c0.1,0,0.1,0,0.2-0.1
				c0.1-0.1,0.1-0.1,0.1-0.2s0-0.1-0.1-0.2C17,34.9,17,34.9,16.9,34.9z M17,36.5c0.1,0,0.2,0,0.2-0.1c0.1-0.1,0.1-0.1,0.1-0.2
				c0-0.1,0-0.2-0.1-0.2c-0.1-0.1-0.1-0.1-0.2-0.1h-0.6v0.6H17z"/>
			<path class="st0" d="M20.1,37l-0.2-0.5h-1.1L18.7,37h-0.5l0.9-2.6h0.6l0.9,2.6H20.1z M19,36.1h0.7l-0.4-1L19,36.1z"/>
			<path class="st0" d="M22,34.4c0.2,0,0.5,0.1,0.6,0.2c0.2,0.2,0.3,0.4,0.3,0.6c0,0.2-0.1,0.4-0.3,0.6c-0.2,0.2-0.4,0.2-0.6,0.2
				h-0.5V37h-0.5v-2.6H22z M22,35.7c0.1,0,0.2,0,0.3-0.1c0.1-0.1,0.1-0.2,0.1-0.3c0-0.1,0-0.2-0.1-0.3c-0.1-0.1-0.2-0.1-0.3-0.1
				h-0.5v0.8H22z"/>
			<path class="st0" d="M25.1,34.4v0.5h-0.7V37h-0.5v-2.1h-0.7v-0.5H25.1z"/>
			<path class="st0" d="M27.2,37v-1.6L26.1,37h-0.4v-2.6h0.5V36l1.1-1.6h0.4V37H27.2z"/>
			<path class="st0" d="M29.6,37c-0.4,0-0.7-0.1-1-0.4c-0.3-0.3-0.4-0.6-0.4-0.9c0-0.4,0.1-0.7,0.4-1c0.3-0.3,0.6-0.4,1-0.4
				c0.2,0,0.4,0.1,0.6,0.2c0.2,0.1,0.4,0.3,0.5,0.4l-0.4,0.3C30.2,35.1,30.1,35,30,35c-0.1-0.1-0.2-0.1-0.4-0.1
				c-0.2,0-0.5,0.1-0.6,0.2c-0.2,0.2-0.2,0.4-0.2,0.6c0,0.2,0.1,0.4,0.2,0.6c0.2,0.2,0.4,0.2,0.6,0.2c0.1,0,0.3,0,0.4-0.1
				c0.1-0.1,0.2-0.2,0.3-0.3l0.4,0.3c-0.1,0.2-0.3,0.3-0.5,0.4C30.1,37,29.9,37,29.6,37z"/>
			<path class="st0" d="M32.5,36.1v-0.5h1.4v0.5H32.5z"/>
			<path class="st0" d="M36.7,34.4c0.2,0,0.5,0.1,0.6,0.2c0.2,0.2,0.3,0.4,0.3,0.6c0,0.2-0.1,0.4-0.3,0.6c-0.2,0.2-0.4,0.2-0.6,0.2
				h-0.5V37h-0.5v-2.6H36.7z M36.7,35.7c0.1,0,0.2,0,0.3-0.1c0.1-0.1,0.1-0.2,0.1-0.3c0-0.1,0-0.2-0.1-0.3c-0.1-0.1-0.2-0.1-0.3-0.1
				h-0.5v0.8H36.7z"/>
			<path class="st0" d="M38.7,36.5h1.1V37h-1.6v-2.6h1.6v0.5h-1.1v0.5h1v0.5h-1V36.5z"/>
			<path class="st0" d="M41.6,37c-0.4,0-0.7-0.1-1-0.4c-0.3-0.3-0.4-0.6-0.4-0.9c0-0.4,0.1-0.7,0.4-1c0.3-0.3,0.6-0.4,1-0.4
				c0.2,0,0.4,0.1,0.6,0.2c0.2,0.1,0.4,0.3,0.5,0.4l-0.4,0.3C42.2,35.1,42.1,35,42,35c-0.1-0.1-0.2-0.1-0.4-0.1
				c-0.2,0-0.5,0.1-0.6,0.2c-0.2,0.2-0.2,0.4-0.2,0.6c0,0.2,0.1,0.4,0.2,0.6c0.2,0.2,0.4,0.2,0.6,0.2c0.1,0,0.3,0,0.4-0.1
				c0.1-0.1,0.2-0.2,0.3-0.3l0.4,0.3c-0.1,0.2-0.3,0.3-0.5,0.4S41.8,37,41.6,37z"/>
			<path class="st0" d="M44.6,34.4h0.5l-0.8,1.9c-0.2,0.5-0.5,0.7-1,0.7v-0.5c0.1,0,0.2,0,0.3-0.1c0.1-0.1,0.2-0.1,0.2-0.2l-0.8-1.8
				h0.5l0.6,1.2L44.6,34.4z"/>
			<path class="st0" d="M46.6,34.4c0.2,0,0.5,0.1,0.6,0.2c0.2,0.2,0.3,0.4,0.3,0.6c0,0.2-0.1,0.4-0.3,0.6c-0.2,0.2-0.4,0.2-0.6,0.2
				h-0.5V37h-0.5v-2.6H46.6z M46.6,35.7c0.1,0,0.2,0,0.3-0.1c0.1-0.1,0.1-0.2,0.1-0.3c0-0.1,0-0.2-0.1-0.3c-0.1-0.1-0.2-0.1-0.3-0.1
				h-0.5v0.8H46.6z"/>
			<path class="st0" d="M49.3,37c-0.4,0-0.7-0.1-1-0.4c-0.3-0.3-0.4-0.6-0.4-0.9c0-0.4,0.1-0.7,0.4-1c0.3-0.3,0.6-0.4,1-0.4
				c0.2,0,0.4,0.1,0.6,0.2c0.2,0.1,0.4,0.3,0.5,0.4L50,35.2c-0.1-0.1-0.2-0.2-0.3-0.3c-0.1-0.1-0.2-0.1-0.4-0.1
				c-0.2,0-0.5,0.1-0.6,0.2c-0.2,0.2-0.2,0.4-0.2,0.6c0,0.2,0.1,0.4,0.2,0.6c0.2,0.2,0.4,0.2,0.6,0.2c0.1,0,0.3,0,0.4-0.1
				c0.1-0.1,0.2-0.2,0.3-0.3l0.4,0.3c-0.1,0.2-0.3,0.3-0.5,0.4S49.5,37,49.3,37z"/>
			<path class="st0" d="M54.1,34.4V37h-0.5v-2.1h-0.9V37h-0.5v-2.6H54.1z"/>
			<path class="st0" d="M57,36.6C56.7,36.9,56.4,37,56,37s-0.7-0.1-0.9-0.4c-0.3-0.3-0.4-0.6-0.4-0.9s0.1-0.7,0.4-0.9
				c0.3-0.3,0.6-0.4,0.9-0.4s0.7,0.1,0.9,0.4c0.3,0.3,0.4,0.6,0.4,0.9S57.2,36.4,57,36.6z M55.5,36.3c0.2,0.2,0.4,0.2,0.6,0.2
				c0.2,0,0.4-0.1,0.6-0.2c0.2-0.2,0.2-0.4,0.2-0.6s-0.1-0.4-0.2-0.6c-0.2-0.2-0.4-0.2-0.6-0.2c-0.2,0-0.4,0.1-0.6,0.2
				c-0.2,0.2-0.2,0.4-0.2,0.6S55.3,36.1,55.5,36.3z"/>
			<path class="st0" d="M60.1,34.4c0.2,0,0.5,0.1,0.6,0.2c0.2,0.2,0.3,0.4,0.3,0.6c0,0.2-0.1,0.4-0.3,0.6c-0.2,0.2-0.4,0.2-0.6,0.2
				h-0.5V37h-0.5v-2.6H60.1z M60.1,35.7c0.1,0,0.2,0,0.3-0.1c0.1-0.1,0.1-0.2,0.1-0.3c0-0.1,0-0.2-0.1-0.3c-0.1-0.1-0.2-0.1-0.3-0.1
				h-0.5v0.8H60.1z"/>
			<path class="st0" d="M63,37l-0.2-0.5h-1.1L61.6,37h-0.5l0.9-2.6h0.6l0.9,2.6H63z M62,36.1h0.7l-0.4-1L62,36.1z"/>
			<path class="st0" d="M65.2,37c-0.4,0-0.7-0.1-1-0.4c-0.3-0.3-0.4-0.6-0.4-0.9c0-0.4,0.1-0.7,0.4-1c0.3-0.3,0.6-0.4,1-0.4
				c0.2,0,0.4,0.1,0.6,0.2c0.2,0.1,0.4,0.3,0.5,0.4l-0.4,0.3c-0.1-0.1-0.2-0.2-0.3-0.3c-0.1-0.1-0.2-0.1-0.4-0.1
				c-0.2,0-0.5,0.1-0.6,0.2s-0.2,0.4-0.2,0.6c0,0.2,0.1,0.4,0.2,0.6s0.4,0.2,0.6,0.2c0.1,0,0.3,0,0.4-0.1c0.1-0.1,0.2-0.2,0.3-0.3
				l0.4,0.3c-0.1,0.2-0.3,0.3-0.5,0.4S65.4,37,65.2,37z"/>
			<path class="st0" d="M68,37c-0.4,0-0.7-0.1-1-0.4c-0.3-0.3-0.4-0.6-0.4-0.9c0-0.4,0.1-0.7,0.4-1c0.3-0.3,0.6-0.4,1-0.4
				c0.2,0,0.4,0.1,0.6,0.2c0.2,0.1,0.4,0.3,0.5,0.4l-0.4,0.3c-0.1-0.1-0.2-0.2-0.3-0.3c-0.1-0.1-0.2-0.1-0.4-0.1
				c-0.2,0-0.5,0.1-0.6,0.2s-0.2,0.4-0.2,0.6c0,0.2,0.1,0.4,0.2,0.6s0.4,0.2,0.6,0.2c0.1,0,0.3,0,0.4-0.1c0.1-0.1,0.2-0.2,0.3-0.3
				l0.4,0.3c-0.1,0.2-0.3,0.3-0.5,0.4S68.3,37,68,37z"/>
			<path class="st0" d="M70.2,36.5h1.1V37h-1.6v-2.6h1.6v0.5h-1.1v0.5h1v0.5h-1V36.5z"/>
			<path class="st0" d="M73.7,34.4V37h-0.5v-0.9h-0.3L72.3,37h-0.6l0.6-0.9c-0.2-0.1-0.3-0.2-0.4-0.3c-0.1-0.1-0.2-0.3-0.2-0.5
				c0-0.2,0.1-0.4,0.2-0.6c0.2-0.2,0.4-0.2,0.6-0.2H73.7z M72.7,35.7h0.5v-0.8h-0.5c-0.1,0-0.2,0-0.2,0.1c-0.1,0.1-0.1,0.2-0.1,0.3
				c0,0.1,0,0.2,0.1,0.3C72.5,35.6,72.6,35.7,72.7,35.7z"/>
			<path class="st0" d="M75.9,34.4h0.5V37h-0.5v-1.1h-1V37h-0.5v-2.6h0.5v1h1V34.4z"/>
			<path class="st0" d="M78.6,34.4h0.5V37h-0.5v-1.1h-1V37h-0.5v-2.6h0.5v1h1V34.4z"/>
			<path class="st0" d="M82,36.6C81.7,36.9,81.4,37,81,37s-0.7-0.1-0.9-0.4s-0.4-0.6-0.4-0.9s0.1-0.7,0.4-0.9
				c0.3-0.3,0.6-0.4,0.9-0.4s0.7,0.1,0.9,0.4c0.3,0.3,0.4,0.6,0.4,0.9S82.2,36.4,82,36.6z M80.4,36.3c0.2,0.2,0.4,0.2,0.6,0.2
				c0.2,0,0.4-0.1,0.6-0.2c0.2-0.2,0.2-0.4,0.2-0.6s-0.1-0.4-0.2-0.6c-0.2-0.2-0.4-0.2-0.6-0.2c-0.2,0-0.4,0.1-0.6,0.2
				c-0.2,0.2-0.2,0.4-0.2,0.6S80.3,36.1,80.4,36.3z"/>
			<path class="st0" d="M85.5,34.4V37H85v-1.7l-0.7,1.2l-0.1,0l-0.7-1.2V37H83v-2.6h0.5l0.7,1.2l0.7-1.2H85.5z"/>
			<path class="st0" d="M87.7,34.4h0.5l-0.8,1.9c-0.2,0.5-0.5,0.7-1,0.7v-0.5c0.1,0,0.2,0,0.3-0.1c0.1-0.1,0.2-0.1,0.2-0.2l-0.8-1.8
				h0.5l0.6,1.2L87.7,34.4z"/>
			<path class="st0" d="M91.1,37c-0.4,0-0.7-0.1-1-0.4c-0.3-0.3-0.4-0.6-0.4-0.9c0-0.4,0.1-0.7,0.4-1c0.3-0.3,0.6-0.4,1-0.4
				c0.2,0,0.4,0.1,0.6,0.2c0.2,0.1,0.4,0.3,0.5,0.4l-0.4,0.3c-0.1-0.1-0.2-0.2-0.3-0.3c-0.1-0.1-0.2-0.1-0.4-0.1
				c-0.2,0-0.5,0.1-0.6,0.2s-0.2,0.4-0.2,0.6c0,0.2,0.1,0.4,0.2,0.6s0.4,0.2,0.6,0.2c0.1,0,0.3,0,0.4-0.1c0.1-0.1,0.2-0.2,0.3-0.3
				l0.4,0.3c-0.1,0.2-0.3,0.3-0.5,0.4C91.5,37,91.3,37,91.1,37z"/>
			<path class="st0" d="M94.8,37h-0.6l-0.9-1.2V37h-0.5v-2.6h0.5v1.1l0.9-1.1h0.6l-0.9,1.2L94.8,37z"/>
			<path class="st0" d="M95.1,37v-0.5c0.2,0,0.3,0,0.3-0.1c0.1-0.1,0.1-0.2,0.1-0.5v-1.5h1.7V37h-0.5v-2.1h-0.7v1
				c0,0.2,0,0.4-0.1,0.6c-0.1,0.2-0.1,0.3-0.2,0.3c-0.1,0.1-0.2,0.1-0.3,0.1C95.3,37,95.2,37,95.1,37z"/>
			<path class="st0" d="M98.5,36.5h1.1V37H98v-2.6h1.6v0.5h-1.1v0.5h1v0.5h-1V36.5z"/>
			<path class="st0" d="M101.2,34.4c0.2,0,0.5,0.1,0.6,0.2c0.2,0.2,0.3,0.4,0.3,0.6c0,0.2-0.1,0.4-0.3,0.6c-0.2,0.2-0.4,0.2-0.6,0.2
				h-0.5V37h-0.5v-2.6H101.2z M101.2,35.7c0.1,0,0.2,0,0.3-0.1c0.1-0.1,0.1-0.2,0.1-0.3c0-0.1,0-0.2-0.1-0.3
				c-0.1-0.1-0.2-0.1-0.3-0.1h-0.5v0.8H101.2z"/>
			<path class="st0" d="M104.8,36.6c-0.3,0.3-0.6,0.4-0.9,0.4s-0.7-0.1-0.9-0.4c-0.3-0.3-0.4-0.6-0.4-0.9s0.1-0.7,0.4-0.9
				c0.3-0.3,0.6-0.4,0.9-0.4s0.7,0.1,0.9,0.4c0.3,0.3,0.4,0.6,0.4,0.9S105,36.4,104.8,36.6z M103.3,36.3c0.2,0.2,0.4,0.2,0.6,0.2
				s0.4-0.1,0.6-0.2c0.2-0.2,0.2-0.4,0.2-0.6s-0.1-0.4-0.2-0.6c-0.2-0.2-0.4-0.2-0.6-0.2s-0.4,0.1-0.6,0.2c-0.2,0.2-0.2,0.4-0.2,0.6
				S103.1,36.1,103.3,36.3z"/>
			<path class="st0" d="M107,35.7c0.2,0.1,0.4,0.3,0.4,0.6c0,0.2-0.1,0.4-0.3,0.6c-0.2,0.1-0.4,0.2-0.7,0.2c-0.5,0-0.8-0.2-1-0.6
				l0.4-0.2c0.1,0.2,0.3,0.4,0.5,0.4c0.1,0,0.2,0,0.3-0.1s0.1-0.1,0.1-0.2c0-0.1,0-0.2-0.1-0.2s-0.2-0.1-0.3-0.1h-0.3v-0.5h0.2
				c0.1,0,0.2,0,0.3-0.1c0.1-0.1,0.1-0.1,0.1-0.2c0-0.1,0-0.2-0.1-0.2c-0.1-0.1-0.2-0.1-0.3-0.1c-0.2,0-0.4,0.1-0.5,0.3l-0.4-0.2
				c0.2-0.4,0.5-0.5,0.9-0.5c0.3,0,0.5,0.1,0.6,0.2c0.2,0.1,0.2,0.3,0.2,0.5C107.3,35.3,107.2,35.5,107,35.7z"/>
			<path class="st0" d="M109.3,34.4h0.5l-0.8,1.9c-0.2,0.5-0.5,0.7-1,0.7v-0.5c0.1,0,0.2,0,0.3-0.1c0.1-0.1,0.2-0.1,0.2-0.2
				l-0.8-1.8h0.5l0.6,1.2L109.3,34.4z"/>
		</g>
	</g>
</g>
</svg>
