<?xml version="1.0" encoding="utf-8"?>
<!-- Generator: Adobe Illustrator 23.0.2, SVG Export Plug-In . SVG Version: 6.00 Build 0)  -->
<svg version="1.1" id="Layer_1" xmlns="http://www.w3.org/2000/svg" xmlns:xlink="http://www.w3.org/1999/xlink" x="0px" y="0px"
	 viewBox="0 0 156.2 49.8" style="enable-background:new 0 0 156.2 49.8;" xml:space="preserve">
<style type="text/css">
	.st0{fill:#FFFFFF;}
	.st1{fill:#EEB02F;}
	.st2{fill:#DF6549;}
	.st3{fill:#547AF8;}
</style>
<g>
	<g>
		<g>
			<g>
				<path class="st0" d="M69.8,11.8v17h-2.4v-6.6c0-1.9,0.1-3.7,0.2-5.5l-0.1,0c-0.5,1.4-1.1,2.9-1.7,4.5L64.4,25h-2.4l-1.5-3.9
					c-0.6-1.6-1.2-3.1-1.7-4.5l-0.1,0c0.1,1.8,0.1,3.6,0.2,5.5v6.6h-2.4v-17H59l2.9,6.9c0.4,1,1,2.6,1.2,3.4h0.1
					c0.3-0.8,0.9-2.4,1.2-3.4l2.9-6.9H69.8z"/>
				<path class="st0" d="M72.2,24.2h2.5c0,1.8,1,2.6,2.5,2.6c1.6,0,2.4-1,2.4-2.3c0-3.4-7.1-3.6-7.1-8.6c0-2.5,1.8-4.3,4.7-4.3
					c2.9,0,4.7,1.9,4.7,4.8h-2.5c0-1.6-0.9-2.4-2.2-2.4c-1.4,0-2.2,0.8-2.2,2c0,3.3,7.2,3.3,7.2,8.6c0,2.5-1.8,4.7-5,4.7
					C74.1,29.2,72.2,27.3,72.2,24.2z"/>
			</g>
			<g>
				<path class="st0" d="M97.9,12.1v17h-2.5v-7.5h-4.8v7.5h-2.5v-17h2.5v7.3h4.8v-7.3H97.9z"/>
				<path class="st0" d="M109.9,26.8v2.3h-8.6v-17h8.4v2.3h-5.9v4.9h5.4v2.3h-5.4v5.2H109.9z"/>
				<path class="st0" d="M120.6,26.8v2.3h-8.1v-17h2.5v14.7H120.6z"/>
				<path class="st0" d="M132.2,17.6c0,3.6-1.9,5.6-5.2,5.6h-2v6h-2.5v-17h4.5C130.3,12.1,132.2,14.1,132.2,17.6z M129.7,17.6
					c0-2.1-0.9-3.2-2.8-3.2h-2v6.4h2C128.8,20.8,129.7,19.8,129.7,17.6z"/>
				<path class="st0" d="M142.9,26.8v2.3h-8.6v-17h8.4v2.3h-5.9v4.9h5.4v2.3h-5.4v5.2H142.9z"/>
				<path class="st0" d="M149.5,22.9H148v6.2h-2.5v-17h4.4c3.3,0,5.1,1.9,5.1,5.3c0,2.7-1.1,4.5-3.1,5.2l3.7,6.5H153L149.5,22.9z
					 M148,20.6h1.9c1.7,0,2.6-1.1,2.6-3.1s-0.9-3-2.6-3H148V20.6z"/>
			</g>
		</g>
	</g>
	<g>
		<g>
			<path class="st0" d="M57.7,32.9h0.5v2.6h-0.5v-1.1h-1v1.1h-0.5v-2.6h0.5v1h1V32.9z"/>
			<path class="st0" d="M61.1,35.1c-0.3,0.3-0.6,0.4-0.9,0.4c-0.4,0-0.7-0.1-0.9-0.4c-0.3-0.3-0.4-0.6-0.4-0.9s0.1-0.7,0.4-0.9
				c0.3-0.3,0.6-0.4,0.9-0.4c0.4,0,0.7,0.1,0.9,0.4c0.3,0.3,0.4,0.6,0.4,0.9S61.3,34.9,61.1,35.1z M59.5,34.8
				c0.2,0.2,0.4,0.2,0.6,0.2c0.2,0,0.4-0.1,0.6-0.2c0.2-0.2,0.2-0.4,0.2-0.6s-0.1-0.4-0.2-0.6c-0.2-0.2-0.4-0.2-0.6-0.2
				c-0.2,0-0.4,0.1-0.6,0.2c-0.2,0.2-0.2,0.4-0.2,0.6S59.4,34.6,59.5,34.8z"/>
			<path class="st0" d="M63.6,34.1c0.2,0.1,0.3,0.3,0.3,0.6c0,0.2-0.1,0.4-0.2,0.5c-0.2,0.1-0.3,0.2-0.6,0.2h-1.1v-2.6h1
				c0.2,0,0.4,0.1,0.6,0.2c0.2,0.1,0.2,0.3,0.2,0.5C63.9,33.8,63.8,34,63.6,34.1z M63.1,33.4h-0.5v0.6h0.5c0.1,0,0.1,0,0.2-0.1
				c0.1-0.1,0.1-0.1,0.1-0.2s0-0.1-0.1-0.2C63.2,33.4,63.2,33.4,63.1,33.4z M63.2,35c0.1,0,0.2,0,0.2-0.1c0.1-0.1,0.1-0.1,0.1-0.2
				c0-0.1,0-0.2-0.1-0.2c-0.1-0.1-0.1-0.1-0.2-0.1h-0.6V35H63.2z"/>
			<path class="st0" d="M66.2,35.4L66.1,35H65l-0.2,0.5h-0.5l0.9-2.6h0.6l0.9,2.6H66.2z M65.2,34.5h0.7l-0.4-1L65.2,34.5z"/>
			<path class="st0" d="M68.2,32.9c0.2,0,0.5,0.1,0.6,0.2c0.2,0.2,0.3,0.4,0.3,0.6c0,0.2-0.1,0.4-0.3,0.6c-0.2,0.2-0.4,0.2-0.6,0.2
				h-0.5v0.8h-0.5v-2.6H68.2z M68.2,34.1c0.1,0,0.2,0,0.3-0.1c0.1-0.1,0.1-0.2,0.1-0.3c0-0.1,0-0.2-0.1-0.3
				c-0.1-0.1-0.2-0.1-0.3-0.1h-0.5v0.8H68.2z"/>
			<path class="st0" d="M71.3,32.9v0.5h-0.7v2.1h-0.5v-2.1h-0.7v-0.5H71.3z"/>
			<path class="st0" d="M73.4,35.4v-1.6l-1.1,1.6h-0.4v-2.6h0.5v1.6l1.1-1.6h0.4v2.6H73.4z"/>
			<path class="st0" d="M75.8,35.5c-0.4,0-0.7-0.1-1-0.4c-0.3-0.3-0.4-0.6-0.4-0.9c0-0.4,0.1-0.7,0.4-1c0.3-0.3,0.6-0.4,1-0.4
				c0.2,0,0.4,0.1,0.6,0.2c0.2,0.1,0.4,0.3,0.5,0.4l-0.4,0.3c-0.1-0.1-0.2-0.2-0.3-0.3c-0.1-0.1-0.2-0.1-0.4-0.1
				c-0.2,0-0.5,0.1-0.6,0.2c-0.2,0.2-0.2,0.4-0.2,0.6c0,0.2,0.1,0.4,0.2,0.6c0.2,0.2,0.4,0.2,0.6,0.2c0.1,0,0.3,0,0.4-0.1
				c0.1-0.1,0.2-0.2,0.3-0.3l0.4,0.3c-0.1,0.2-0.3,0.3-0.5,0.4C76.3,35.4,76.1,35.5,75.8,35.5z"/>
			<path class="st0" d="M78.7,34.6v-0.5h1.4v0.5H78.7z"/>
			<path class="st0" d="M82.9,32.9c0.2,0,0.5,0.1,0.6,0.2c0.2,0.2,0.3,0.4,0.3,0.6c0,0.2-0.1,0.4-0.3,0.6c-0.2,0.2-0.4,0.2-0.6,0.2
				h-0.5v0.8H82v-2.6H82.9z M82.9,34.1c0.1,0,0.2,0,0.3-0.1c0.1-0.1,0.1-0.2,0.1-0.3c0-0.1,0-0.2-0.1-0.3c-0.1-0.1-0.2-0.1-0.3-0.1
				h-0.5v0.8H82.9z"/>
			<path class="st0" d="M84.9,35H86v0.5h-1.6v-2.6H86v0.5h-1.1v0.5h1v0.5h-1V35z"/>
			<path class="st0" d="M87.8,35.5c-0.4,0-0.7-0.1-1-0.4c-0.3-0.3-0.4-0.6-0.4-0.9c0-0.4,0.1-0.7,0.4-1c0.3-0.3,0.6-0.4,1-0.4
				c0.2,0,0.4,0.1,0.6,0.2c0.2,0.1,0.4,0.3,0.5,0.4l-0.4,0.3c-0.1-0.1-0.2-0.2-0.3-0.3c-0.1-0.1-0.2-0.1-0.4-0.1
				c-0.2,0-0.5,0.1-0.6,0.2C87,33.7,87,33.9,87,34.2c0,0.2,0.1,0.4,0.2,0.6c0.2,0.2,0.4,0.2,0.6,0.2c0.1,0,0.3,0,0.4-0.1
				c0.1-0.1,0.2-0.2,0.3-0.3l0.4,0.3c-0.1,0.2-0.3,0.3-0.5,0.4C88.2,35.4,88,35.5,87.8,35.5z"/>
			<path class="st0" d="M90.8,32.9h0.5l-0.8,1.9c-0.2,0.5-0.5,0.7-1,0.7V35c0.1,0,0.2,0,0.3-0.1s0.2-0.1,0.2-0.2l-0.8-1.8h0.5
				l0.6,1.2L90.8,32.9z"/>
			<path class="st0" d="M92.8,32.9c0.2,0,0.5,0.1,0.6,0.2c0.2,0.2,0.3,0.4,0.3,0.6c0,0.2-0.1,0.4-0.3,0.6c-0.2,0.2-0.4,0.2-0.6,0.2
				h-0.5v0.8h-0.5v-2.6H92.8z M92.8,34.1c0.1,0,0.2,0,0.3-0.1c0.1-0.1,0.1-0.2,0.1-0.3c0-0.1,0-0.2-0.1-0.3
				c-0.1-0.1-0.2-0.1-0.3-0.1h-0.5v0.8H92.8z"/>
			<path class="st0" d="M95.5,35.5c-0.4,0-0.7-0.1-1-0.4c-0.3-0.3-0.4-0.6-0.4-0.9c0-0.4,0.1-0.7,0.4-1c0.3-0.3,0.6-0.4,1-0.4
				c0.2,0,0.4,0.1,0.6,0.2c0.2,0.1,0.4,0.3,0.5,0.4l-0.4,0.3c-0.1-0.1-0.2-0.2-0.3-0.3c-0.1-0.1-0.2-0.1-0.4-0.1
				c-0.2,0-0.5,0.1-0.6,0.2s-0.2,0.4-0.2,0.6c0,0.2,0.1,0.4,0.2,0.6s0.4,0.2,0.6,0.2c0.1,0,0.3,0,0.4-0.1c0.1-0.1,0.2-0.2,0.3-0.3
				l0.4,0.3c-0.1,0.2-0.3,0.3-0.5,0.4C95.9,35.4,95.7,35.5,95.5,35.5z"/>
			<path class="st0" d="M100.3,32.9v2.6h-0.5v-2.1h-0.9v2.1h-0.5v-2.6H100.3z"/>
			<path class="st0" d="M103.2,35.1c-0.3,0.3-0.6,0.4-0.9,0.4s-0.7-0.1-0.9-0.4c-0.3-0.3-0.4-0.6-0.4-0.9s0.1-0.7,0.4-0.9
				c0.3-0.3,0.6-0.4,0.9-0.4s0.7,0.1,0.9,0.4c0.3,0.3,0.4,0.6,0.4,0.9S103.4,34.9,103.2,35.1z M101.6,34.8c0.2,0.2,0.4,0.2,0.6,0.2
				s0.4-0.1,0.6-0.2c0.2-0.2,0.2-0.4,0.2-0.6s-0.1-0.4-0.2-0.6c-0.2-0.2-0.4-0.2-0.6-0.2s-0.4,0.1-0.6,0.2c-0.2,0.2-0.2,0.4-0.2,0.6
				S101.5,34.6,101.6,34.8z"/>
			<path class="st0" d="M106.3,32.9c0.2,0,0.5,0.1,0.6,0.2c0.2,0.2,0.3,0.4,0.3,0.6c0,0.2-0.1,0.4-0.3,0.6c-0.2,0.2-0.4,0.2-0.6,0.2
				h-0.5v0.8h-0.5v-2.6H106.3z M106.3,34.1c0.1,0,0.2,0,0.3-0.1c0.1-0.1,0.1-0.2,0.1-0.3c0-0.1,0-0.2-0.1-0.3
				c-0.1-0.1-0.2-0.1-0.3-0.1h-0.5v0.8H106.3z"/>
			<path class="st0" d="M109.2,35.4L109,35H108l-0.2,0.5h-0.5l0.9-2.6h0.6l0.9,2.6H109.2z M108.2,34.5h0.7l-0.4-1L108.2,34.5z"/>
			<path class="st0" d="M111.4,35.5c-0.4,0-0.7-0.1-1-0.4c-0.3-0.3-0.4-0.6-0.4-0.9c0-0.4,0.1-0.7,0.4-1c0.3-0.3,0.6-0.4,1-0.4
				c0.2,0,0.4,0.1,0.6,0.2c0.2,0.1,0.4,0.3,0.5,0.4l-0.4,0.3c-0.1-0.1-0.2-0.2-0.3-0.3c-0.1-0.1-0.2-0.1-0.4-0.1
				c-0.2,0-0.5,0.1-0.6,0.2s-0.2,0.4-0.2,0.6c0,0.2,0.1,0.4,0.2,0.6s0.4,0.2,0.6,0.2c0.1,0,0.3,0,0.4-0.1c0.1-0.1,0.2-0.2,0.3-0.3
				l0.4,0.3c-0.1,0.2-0.3,0.3-0.5,0.4C111.8,35.4,111.6,35.5,111.4,35.5z"/>
			<path class="st0" d="M114.2,35.5c-0.4,0-0.7-0.1-1-0.4c-0.3-0.3-0.4-0.6-0.4-0.9c0-0.4,0.1-0.7,0.4-1c0.3-0.3,0.6-0.4,1-0.4
				c0.2,0,0.4,0.1,0.6,0.2c0.2,0.1,0.4,0.3,0.5,0.4l-0.4,0.3c-0.1-0.1-0.2-0.2-0.3-0.3c-0.1-0.1-0.2-0.1-0.4-0.1
				c-0.2,0-0.5,0.1-0.6,0.2s-0.2,0.4-0.2,0.6c0,0.2,0.1,0.4,0.2,0.6s0.4,0.2,0.6,0.2c0.1,0,0.3,0,0.4-0.1c0.1-0.1,0.2-0.2,0.3-0.3
				l0.4,0.3c-0.1,0.2-0.3,0.3-0.5,0.4C114.7,35.4,114.4,35.5,114.2,35.5z"/>
			<path class="st0" d="M116.4,35h1.1v0.5h-1.6v-2.6h1.6v0.5h-1.1v0.5h1v0.5h-1V35z"/>
			<path class="st0" d="M119.9,32.9v2.6h-0.5v-0.9h-0.3l-0.6,0.9h-0.6l0.6-0.9c-0.2-0.1-0.3-0.2-0.4-0.3c-0.1-0.1-0.2-0.3-0.2-0.5
				c0-0.2,0.1-0.4,0.2-0.6c0.2-0.2,0.4-0.2,0.6-0.2H119.9z M118.9,34.1h0.5v-0.8h-0.5c-0.1,0-0.2,0-0.2,0.1
				c-0.1,0.1-0.1,0.2-0.1,0.3c0,0.1,0,0.2,0.1,0.3C118.7,34.1,118.8,34.1,118.9,34.1z"/>
			<path class="st0" d="M122.1,32.9h0.5v2.6h-0.5v-1.1h-1v1.1h-0.5v-2.6h0.5v1h1V32.9z"/>
			<path class="st0" d="M124.8,32.9h0.5v2.6h-0.5v-1.1h-1v1.1h-0.5v-2.6h0.5v1h1V32.9z"/>
			<path class="st0" d="M128.2,35.1c-0.3,0.3-0.6,0.4-0.9,0.4s-0.7-0.1-0.9-0.4c-0.3-0.3-0.4-0.6-0.4-0.9s0.1-0.7,0.4-0.9
				c0.3-0.3,0.6-0.4,0.9-0.4s0.7,0.1,0.9,0.4c0.3,0.3,0.4,0.6,0.4,0.9S128.4,34.9,128.2,35.1z M126.6,34.8c0.2,0.2,0.4,0.2,0.6,0.2
				c0.2,0,0.4-0.1,0.6-0.2c0.2-0.2,0.2-0.4,0.2-0.6s-0.1-0.4-0.2-0.6c-0.2-0.2-0.4-0.2-0.6-0.2c-0.2,0-0.4,0.1-0.6,0.2
				c-0.2,0.2-0.2,0.4-0.2,0.6S126.5,34.6,126.6,34.8z"/>
			<path class="st0" d="M131.7,32.9v2.6h-0.5v-1.7l-0.7,1.2l-0.1,0l-0.7-1.2v1.7h-0.5v-2.6h0.5l0.7,1.2l0.7-1.2H131.7z"/>
			<path class="st0" d="M133.8,32.9h0.5l-0.8,1.9c-0.2,0.5-0.5,0.7-1,0.7V35c0.1,0,0.2,0,0.3-0.1c0.1-0.1,0.2-0.1,0.2-0.2l-0.8-1.8
				h0.5l0.6,1.2L133.8,32.9z"/>
			<path class="st0" d="M137.3,35.5c-0.4,0-0.7-0.1-1-0.4c-0.3-0.3-0.4-0.6-0.4-0.9c0-0.4,0.1-0.7,0.4-1c0.3-0.3,0.6-0.4,1-0.4
				c0.2,0,0.4,0.1,0.6,0.2c0.2,0.1,0.4,0.3,0.5,0.4l-0.4,0.3c-0.1-0.1-0.2-0.2-0.3-0.3c-0.1-0.1-0.2-0.1-0.4-0.1
				c-0.2,0-0.5,0.1-0.6,0.2c-0.2,0.2-0.2,0.4-0.2,0.6c0,0.2,0.1,0.4,0.2,0.6c0.2,0.2,0.4,0.2,0.6,0.2c0.1,0,0.3,0,0.4-0.1
				c0.1-0.1,0.2-0.2,0.3-0.3l0.4,0.3c-0.1,0.2-0.3,0.3-0.5,0.4C137.7,35.4,137.5,35.5,137.3,35.5z"/>
			<path class="st0" d="M141,35.4h-0.6l-0.9-1.2v1.2h-0.5v-2.6h0.5V34l0.9-1.1h0.6l-0.9,1.2L141,35.4z"/>
			<path class="st0" d="M141.3,35.4V35c0.2,0,0.3,0,0.3-0.1c0.1-0.1,0.1-0.2,0.1-0.5v-1.5h1.7v2.6H143v-2.1h-0.7v1
				c0,0.2,0,0.4-0.1,0.6s-0.1,0.3-0.2,0.3c-0.1,0.1-0.2,0.1-0.3,0.1C141.5,35.5,141.4,35.5,141.3,35.4z"/>
			<path class="st0" d="M144.7,35h1.1v0.5h-1.6v-2.6h1.6v0.5h-1.1v0.5h1v0.5h-1V35z"/>
			<path class="st0" d="M147.4,32.9c0.2,0,0.5,0.1,0.6,0.2c0.2,0.2,0.3,0.4,0.3,0.6c0,0.2-0.1,0.4-0.3,0.6c-0.2,0.2-0.4,0.2-0.6,0.2
				h-0.5v0.8h-0.5v-2.6H147.4z M147.4,34.1c0.1,0,0.2,0,0.3-0.1c0.1-0.1,0.1-0.2,0.1-0.3c0-0.1,0-0.2-0.1-0.3
				c-0.1-0.1-0.2-0.1-0.3-0.1h-0.5v0.8H147.4z"/>
			<path class="st0" d="M151,35.1c-0.3,0.3-0.6,0.4-0.9,0.4c-0.4,0-0.7-0.1-0.9-0.4c-0.3-0.3-0.4-0.6-0.4-0.9s0.1-0.7,0.4-0.9
				c0.3-0.3,0.6-0.4,0.9-0.4c0.4,0,0.7,0.1,0.9,0.4c0.3,0.3,0.4,0.6,0.4,0.9S151.2,34.9,151,35.1z M149.4,34.8
				c0.2,0.2,0.4,0.2,0.6,0.2s0.4-0.1,0.6-0.2c0.2-0.2,0.2-0.4,0.2-0.6s-0.1-0.4-0.2-0.6c-0.2-0.2-0.4-0.2-0.6-0.2s-0.4,0.1-0.6,0.2
				c-0.2,0.2-0.2,0.4-0.2,0.6S149.3,34.6,149.4,34.8z"/>
			<path class="st0" d="M153.2,34.1c0.2,0.1,0.4,0.3,0.4,0.6c0,0.2-0.1,0.4-0.3,0.6c-0.2,0.1-0.4,0.2-0.7,0.2c-0.5,0-0.8-0.2-1-0.6
				l0.4-0.2c0.1,0.2,0.3,0.4,0.5,0.4c0.1,0,0.2,0,0.3-0.1c0.1-0.1,0.1-0.1,0.1-0.2c0-0.1,0-0.2-0.1-0.2c-0.1-0.1-0.2-0.1-0.3-0.1
				h-0.3v-0.5h0.2c0.1,0,0.2,0,0.3-0.1c0.1-0.1,0.1-0.1,0.1-0.2c0-0.1,0-0.2-0.1-0.2c-0.1-0.1-0.2-0.1-0.3-0.1
				c-0.2,0-0.4,0.1-0.5,0.3l-0.4-0.2c0.2-0.4,0.5-0.5,0.9-0.5c0.3,0,0.5,0.1,0.6,0.2c0.2,0.1,0.2,0.3,0.2,0.5
				C153.5,33.8,153.4,34,153.2,34.1z"/>
			<path class="st0" d="M155.5,32.9h0.5l-0.8,1.9c-0.2,0.5-0.5,0.7-1,0.7V35c0.1,0,0.2,0,0.3-0.1c0.1-0.1,0.2-0.1,0.2-0.2l-0.8-1.8
				h0.5l0.6,1.2L155.5,32.9z"/>
		</g>
	</g>
</g>
<circle class="st1" cx="39.4" cy="19.8" r="10.6"/>
<circle class="st2" cx="14.5" cy="33.2" r="14.2"/>
<path class="st0" d="M43.4,17.4c-1.6-1.4-3.6-0.8-5.2,0.2c-1.5,0.9-3.2,2-4.6,0.2c-1.1-1.4,0.1-3.5,1.8-3.7c2.1-0.2,1.9-3.5-0.1-3.3
	c-4.5,0.5-7.1,6-3.7,9.4c1.5,1.5,3.9,2.2,5.9,1.5c1-0.3,1.8-1,2.7-1.5c0.3-0.2,0.8-0.5,1.1-0.3c0.5,0.3,0.4,1.4,0.4,1.9
	c-0.1,1.2-0.5,2.3-0.3,3.5c0.1,1.4,0.8,2.5,1.6,3.6c0.7,0.9,1.7,1.8,2,3c0.2,1.1,0.1,2.4-0.4,3.4C42,39.8,36.8,46,31,46.2
	c-3.4,0.1-5.6-2.4-7.7-4.7c-0.9-1-2-2.2-3.3-2.7c-0.6-0.2-1.3-0.2-1.9,0c-0.1,0-0.3,0.1-0.5,0.2c0.2-1.4,2.1-3,2.7-3.9
	c0.9-1.3,1.4-3.1,0-4.3c-1.5-1.2-3.5-0.7-5,0.3c-0.7,0.5-3.4,3.8-4.2,3c-0.2-0.2,2.9-3.3,3.4-3.8c1.1-1.4,2.2-3.2,1.9-5
	c-0.3-1.7-1.8-2.7-3.5-2.6c-1.9,0.2-2.8,1.6-4.2,2.4c-2.3-2.2-4.7-4.7-5-8c-0.3-3.6,3.2-6,5.5-8.3c2.3-2.3,4.9-5.8,8.5-5.4
	c3.6,0.4,4.8,1.9,7,4.5c1.3,1.6,4.1-0.2,2.7-1.8c-2.8-3.3-4.5-5.2-9-5.9c-4.9-0.7-8,2.9-11.2,6.1c-3.1,3-6.9,6-6.7,10.8
	c0.2,4.7,3.6,8.2,6.8,11.2c0.4,0.4,1,0.5,1.6,0.3c1-0.3,1.8-0.8,2.5-1.5c0.3-0.3,0.7-0.7,1.1-0.9c0.2-0.1,0.3-0.2,0.5-0.2
	c0.4,0,0.2,0.1,0.2,0c0.2,0.8-1.1,2.2-1.6,2.7c-0.7,0.8-1.5,1.5-2.2,2.3c-1.2,1.4-2.3,3.1-1.1,4.8c0.9,1.4,2.7,2,4.3,1.5
	c2.1-0.6,3-2.5,4.7-3.6c-0.1,0.1-0.2,0.3-0.4,0.4c-0.7,0.8-1.4,1.6-1.9,2.5c-0.8,1.5-1.1,3.6,0,5.1c0.5,0.6,1.3,0.8,2.1,0.8
	c0.4,0,0.7-0.2,1.1-0.3c0.6-0.2,0.6-0.4,1.1-0.1c0.8,0.4,1.6,1.5,2.2,2.2c0.8,0.9,1.6,1.7,2.5,2.5c1.2,1,2.7,1.9,4.2,2.3
	c1.8,0.5,3.3,0.4,5.1-0.1c1-0.3,2-0.6,3-1c0.6-0.3,1.2-0.7,1.7-1.1c2.3-1.7,4.5-3.5,6.5-5.7c1-1.1,1.9-2.2,2.7-3.4
	c0.7-1,1.7-2.4,1.9-3.6c0.3-2-1.1-4.2-2.2-5.7c-0.6-0.8-1.3-1.5-1.8-2.3c-0.6-1-0.6-1.9-0.4-3C45,21.2,45.2,18.9,43.4,17.4z"/>
<path class="st3" d="M33.7,3.7c-2.1,2.2-4.3,4.4-6.5,6.4c-0.5,0.5-1.2,0.9-1.6,1.4c-0.1,0.1-0.3,0.2-0.3,0.4
	c-0.2-0.2-0.5-0.5-0.6-0.6c-1.2-1.1-2.5-2.3-3.7-3.5c-1.5-1.5-3.7,1-2.2,2.4c1.5,1.4,2.9,2.9,4.5,4.2c1.4,1.2,2.7,1,4.1-0.2
	c3.1-2.6,6-5.5,8.7-8.4C37.5,4.4,35.1,2.2,33.7,3.7z"/>
</svg>
