<svg width="264" height="248" viewBox="0 0 264 248" fill="none" xmlns="http://www.w3.org/2000/svg">
<g filter="url(#filter0_d_156_6446)">
<rect x="30" y="53" width="204" height="161" fill="white"/>
<rect x="30" y="53" width="204" height="27" fill="#0460A9"/>
<rect x="30" y="26" width="204" height="27" fill="white"/>
<path d="M53.55 70V63H48.05V70H48.9V63.8H52.7V70H53.55ZM59.4177 70V65.5H58.6177V67.35H56.1177V65.5H55.3177V70H56.1177V68.1H58.6177V70H59.4177Z" fill="white"/>
<path d="M103.92 68.68C103.41 69.09 102.82 69.3 102.13 69.3C101.32 69.3 100.66 69.04 100.15 68.53C99.65 68.01 99.4 67.33 99.4 66.5C99.4 65.67 99.64 65 100.13 64.48C100.62 63.96 101.24 63.7 102 63.7C102.69 63.7 103.26 63.87 103.73 64.22L104.12 63.58C103.59 63.13 102.88 62.9 101.99 62.9C100.92 62.9 100.07 63.24 99.44 63.93C98.81 64.61 98.5 65.47 98.5 66.5C98.5 67.59 98.83 68.46 99.48 69.12C100.14 69.77 101 70.1 102.05 70.1C102.93 70.1 103.79 69.8 104.26 69.32L103.92 68.68ZM106.083 72V69.79C106.393 70 106.823 70.1 107.353 70.1C108.043 70.1 108.613 69.87 109.043 69.41C109.473 68.95 109.693 68.37 109.693 67.68C109.693 67.01 109.503 66.46 109.123 66.04C108.753 65.61 108.243 65.4 107.613 65.4C107.003 65.4 106.403 65.66 106.083 66.03V65.5H105.283V72H106.083ZM107.383 66.15C108.293 66.15 108.843 66.78 108.843 67.71C108.843 68.67 108.233 69.35 107.283 69.35C106.833 69.35 106.433 69.23 106.083 69V66.77C106.413 66.36 106.853 66.15 107.383 66.15Z" fill="white"/>
<path d="M75.05 69.99C75.6 70.02 76.22 70.03 76.93 70.03C78.46 70.03 79.47 69.36 79.47 68C79.47 67.07 78.91 66.49 78.02 66.34V66.32C78.74 66.08 79.22 65.54 79.22 64.7C79.22 63.65 78.54 62.97 76.97 62.97C76.73 62.97 76.09 62.98 75.05 63.01V69.99ZM77.03 66.81C78.04 66.81 78.62 67.22 78.62 67.95C78.62 68.79 78.03 69.23 76.98 69.23C76.57 69.23 76.21 69.22 75.9 69.19V66.81H77.03ZM76.95 63.77C77.9 63.77 78.37 64.14 78.37 64.89C78.37 65.62 77.79 66.06 77.02 66.06H75.9V63.8C76.4 63.78 76.75 63.77 76.95 63.77ZM81.9719 66.3V70H82.7719V66.3H84.4219V65.5H80.3219V66.3H81.9719Z" fill="white"/>
<path d="M128.6 63V66.15C128.08 66.5 127.54 66.68 126.97 66.68C126.06 66.68 125.5 66.17 125.5 65.02V63H124.65V65.25C124.65 66.02 124.85 66.58 125.24 66.94C125.63 67.3 126.14 67.48 126.75 67.48C127.48 67.48 128.1 67.3 128.6 66.94V70H129.45V63H128.6ZM132.304 66.3V70H133.104V66.3H134.754V65.5H130.654V66.3H132.304Z" fill="white"/>
<path d="M179.92 68.68C179.41 69.09 178.82 69.3 178.13 69.3C177.32 69.3 176.66 69.04 176.15 68.53C175.65 68.01 175.4 67.33 175.4 66.5C175.4 65.67 175.64 65 176.13 64.48C176.62 63.96 177.24 63.7 178 63.7C178.69 63.7 179.26 63.87 179.73 64.22L180.12 63.58C179.59 63.13 178.88 62.9 177.99 62.9C176.92 62.9 176.07 63.24 175.44 63.93C174.81 64.61 174.5 65.47 174.5 66.5C174.5 67.59 174.83 68.46 175.48 69.12C176.14 69.77 177 70.1 178.05 70.1C178.93 70.1 179.79 69.8 180.26 69.32L179.92 68.68ZM184.763 62.9C184.493 63.25 184.143 63.31 183.513 63.42C183.202 63.47 182.903 63.55 182.633 63.67C181.523 64.14 180.963 65.35 180.963 67.3C180.963 68.17 181.173 68.85 181.603 69.35C182.032 69.85 182.613 70.1 183.343 70.1C184.013 70.1 184.573 69.88 185.003 69.43C185.433 68.98 185.653 68.43 185.653 67.79C185.653 66.43 184.843 65.55 183.563 65.55C182.803 65.55 182.073 65.97 181.783 66.6H181.763C181.843 65.46 182.223 64.74 182.903 64.43C183.153 64.32 183.443 64.23 183.773 64.18C184.103 64.13 184.383 64.06 184.613 63.98C184.843 63.9 185.033 63.75 185.193 63.53L184.763 62.9ZM181.812 67.45C181.882 67.14 182.063 66.87 182.343 66.64C182.623 66.41 182.963 66.3 183.363 66.3C184.273 66.3 184.803 66.92 184.803 67.83C184.803 68.26 184.663 68.62 184.383 68.91C184.113 69.2 183.753 69.35 183.323 69.35C182.433 69.35 181.812 68.6 181.812 67.45Z" fill="white"/>
<path d="M201.05 69.99C201.6 70.02 202.22 70.03 202.93 70.03C204.46 70.03 205.47 69.36 205.47 68C205.47 67.07 204.91 66.49 204.02 66.34V66.32C204.74 66.08 205.22 65.54 205.22 64.7C205.22 63.65 204.54 62.97 202.97 62.97C202.73 62.97 202.09 62.98 201.05 63.01V69.99ZM203.03 66.81C204.04 66.81 204.62 67.22 204.62 67.95C204.62 68.79 204.03 69.23 202.98 69.23C202.57 69.23 202.21 69.22 201.9 69.19V66.81H203.03ZM202.95 63.77C203.9 63.77 204.37 64.14 204.37 64.89C204.37 65.62 203.79 66.06 203.02 66.06H201.9V63.8C202.4 63.78 202.75 63.77 202.95 63.77ZM210.352 68.77C210.012 69.16 209.582 69.35 209.062 69.35C208.602 69.35 208.212 69.2 207.902 68.91C207.592 68.62 207.442 68.23 207.442 67.75C207.442 67.29 207.592 66.91 207.892 66.61C208.202 66.3 208.562 66.15 208.982 66.15C209.502 66.15 209.932 66.31 210.272 66.62L210.642 65.99C210.252 65.6 209.662 65.4 208.872 65.4C208.222 65.4 207.672 65.63 207.242 66.08C206.812 66.53 206.592 67.09 206.592 67.75C206.592 68.46 206.812 69.03 207.252 69.46C207.702 69.89 208.282 70.1 209.002 70.1C209.712 70.1 210.362 69.83 210.732 69.35L210.352 68.77Z" fill="white"/>
<path d="M154.55 70V63H149.05V70H149.9V63.8H153.7V70H154.55ZM157.398 66.3V70H158.198V66.3H159.848V65.5H155.748V66.3H157.398Z" fill="white"/>
<path d="M104.72 100V99.25H101.49C101.74 99.03 101.98 98.81 102.21 98.58C102.44 98.35 102.75 98.01 103.14 97.56C103.91 96.65 104.43 95.6 104.43 94.69C104.43 94.21 104.26 93.8 103.93 93.45C103.6 93.1 103.12 92.92 102.51 92.92C101.5 92.92 100.67 93.55 100.51 94.56L101.19 94.84C101.32 94.12 101.84 93.72 102.44 93.72C103.17 93.72 103.58 94.2 103.58 94.85C103.58 95.5 103.2 96.29 102.45 97.23C102.06 97.71 101.4 98.42 100.45 99.35V100H104.72Z" fill="#202F4E"/>
<path d="M76.77 94.91L77.79 94.11V100H78.59V92.96H78.03L76.35 94.26L76.77 94.91Z" fill="#202F4E"/>
<path d="M128.47 100.1C129.11 100.1 129.64 99.92 130.05 99.55C130.46 99.18 130.67 98.68 130.67 98.07C130.67 97.22 130.15 96.51 129.31 96.38V96.35C130.02 96.06 130.4 95.44 130.4 94.67C130.4 93.58 129.64 92.9 128.47 92.9C127.56 92.9 126.84 93.31 126.52 94.02L126.97 94.57C127.3 93.99 127.78 93.7 128.41 93.7C129.12 93.7 129.55 94.12 129.55 94.81C129.55 95.16 129.43 95.45 129.18 95.68C128.94 95.91 128.66 96.02 128.34 96.02H127.84V96.82H128.39C129.24 96.82 129.82 97.29 129.82 98.04C129.82 98.77 129.29 99.3 128.44 99.3C127.77 99.3 127.14 98.96 126.81 98.33L126.35 98.9C126.71 99.67 127.48 100.1 128.47 100.1Z" fill="#202F4E"/>
<path d="M174.99 96.52C175.3 96.4 175.66 96.34 176.09 96.34C176.6 96.34 177.01 96.48 177.32 96.76C177.63 97.04 177.79 97.39 177.79 97.82C177.79 98.25 177.65 98.6 177.38 98.88C177.11 99.16 176.78 99.3 176.38 99.3C175.78 99.3 175.14 98.98 174.81 98.45L174.35 99.04C174.75 99.73 175.56 100.1 176.36 100.1C177 100.1 177.54 99.89 177.98 99.47C178.42 99.05 178.64 98.49 178.64 97.79C178.64 97.14 178.43 96.61 178.02 96.22C177.61 95.82 177.08 95.62 176.43 95.62C176.23 95.62 176.04 95.64 175.87 95.69L176.13 93.8H178.59V93H175.43L174.99 96.52Z" fill="#202F4E"/>
<path d="M200.5 97.52C200.5 98.25 200.72 98.86 201.15 99.36C201.58 99.85 202.18 100.1 202.93 100.1C203.5 100.1 204.01 99.89 204.44 99.47C204.87 99.04 205.09 98.5 205.09 97.84C205.09 97.21 204.9 96.69 204.52 96.29C204.15 95.89 203.67 95.69 203.09 95.69C202.32 95.69 201.77 96 201.44 96.62C201.59 95.8 201.92 95.12 202.44 94.58C202.97 94.04 203.56 93.68 204.23 93.51L203.9 92.9C203.1 93.09 202.3 93.61 201.62 94.38C200.95 95.14 200.5 96.29 200.5 97.52ZM201.35 97.52C201.54 96.95 202.07 96.44 202.82 96.44C203.73 96.44 204.24 97.05 204.24 97.9C204.24 98.28 204.11 98.61 203.86 98.89C203.61 99.16 203.3 99.3 202.92 99.3C202.42 99.3 202.03 99.13 201.76 98.79C201.49 98.45 201.35 98.03 201.35 97.52Z" fill="#202F4E"/>
<path d="M152.23 100V98.25H153.2V97.45H152.23V95.5H151.43V97.45H149.25L152.02 93H151.1L148.2 97.68V98.25H151.43V100H152.23Z" fill="#202F4E"/>
<path d="M57.3509 41.34L54.0609 39.38L57.3509 37.44V36.57L52.9509 39.21V39.55L57.3509 42.21V41.34ZM105.555 43.08V42.16H105.585C106.585 42.16 107.385 41.92 107.995 41.43C108.605 40.94 108.915 40.27 108.915 39.4C108.915 38.54 108.615 37.87 108.005 37.38C107.395 36.89 106.585 36.65 105.555 36.64V35.92H104.705V36.64C103.685 36.65 102.875 36.89 102.275 37.38C101.675 37.86 101.375 38.53 101.375 39.4C101.375 40.27 101.675 40.94 102.275 41.43C102.885 41.92 103.685 42.16 104.695 42.16H104.705V43.08H105.555ZM105.565 37.43C107.115 37.43 108.015 38.16 108.015 39.4C108.015 40.69 107.105 41.38 105.575 41.38H105.555V37.43H105.565ZM102.275 39.4C102.275 38.17 103.185 37.43 104.705 37.43V41.38H104.695C103.205 41.38 102.275 40.68 102.275 39.4ZM113.497 41.88C113.167 42.19 112.707 42.35 112.117 42.35C111.227 42.35 110.617 41.84 110.547 41H114.007C114.037 40.85 114.057 40.67 114.057 40.46C114.057 39.85 113.857 39.36 113.457 38.98C113.057 38.59 112.557 38.4 111.967 38.4C111.247 38.4 110.677 38.62 110.267 39.07C109.857 39.51 109.647 40.07 109.647 40.75C109.647 41.46 109.867 42.03 110.307 42.46C110.747 42.89 111.327 43.1 112.057 43.1C112.747 43.1 113.317 42.9 113.747 42.51L113.497 41.88ZM111.927 39.15C112.697 39.15 113.187 39.6 113.227 40.35H110.497C110.587 39.64 111.127 39.15 111.927 39.15ZM115.142 43C115.272 43 115.522 43.01 115.912 43.02C116.302 43.03 116.592 43.04 116.792 43.04C118.172 43.04 118.862 42.6 118.862 41.73C118.862 41.15 118.512 40.8 117.812 40.67V40.65C118.342 40.57 118.712 40.15 118.712 39.62C118.712 38.85 118.062 38.46 116.772 38.46C116.532 38.46 116.222 38.47 115.852 38.48C115.482 38.49 115.252 38.5 115.142 38.5V43ZM116.902 40.98C117.642 40.98 118.012 41.21 118.012 41.67C118.012 42.15 117.632 42.39 116.862 42.39C116.732 42.39 116.422 42.38 115.942 42.36V40.98H116.902ZM116.832 39.11C117.522 39.11 117.862 39.33 117.862 39.78C117.862 40.21 117.502 40.48 116.952 40.48H115.942V39.14C116.342 39.12 116.642 39.11 116.832 39.11ZM120.883 45V42.79C121.193 43 121.623 43.1 122.153 43.1C122.843 43.1 123.413 42.87 123.843 42.41C124.273 41.95 124.493 41.37 124.493 40.68C124.493 40.01 124.303 39.46 123.923 39.04C123.553 38.61 123.043 38.4 122.413 38.4C121.803 38.4 121.203 38.66 120.883 39.03V38.5H120.083V45H120.883ZM122.183 39.15C123.093 39.15 123.643 39.78 123.643 40.71C123.643 41.67 123.033 42.35 122.083 42.35C121.633 42.35 121.233 42.23 120.883 42V39.77C121.213 39.36 121.653 39.15 122.183 39.15ZM125.88 39.45C126.3 39.23 126.71 39.12 127.12 39.12C127.95 39.12 128.14 39.58 128.14 40.54C127.87 40.35 127.5 40.25 127.02 40.25C126.02 40.25 125.32 40.79 125.32 41.68C125.32 42.53 125.87 43.07 126.7 43.07C127.31 43.07 127.79 42.85 128.14 42.42V43H128.9V40.24C128.9 39.01 128.41 38.4 127.17 38.4C126.61 38.4 126.11 38.54 125.67 38.81L125.88 39.45ZM126.98 42.35C126.47 42.35 126.17 42.08 126.17 41.64C126.17 41.16 126.6 40.9 127.13 40.9C127.52 40.9 127.86 41 128.14 41.2V41.77C127.81 42.16 127.43 42.35 126.98 42.35ZM134.12 43V38.5H130.99L130.91 39.9C130.8 41.98 130.15 42.31 129.82 42.28L129.88 43.06C130.82 43.06 131.48 42.62 131.69 40.06L131.74 39.3H133.32V43H134.12ZM137.082 43C137.732 43 138.212 42.85 138.512 42.54C138.812 42.23 138.962 41.85 138.962 41.4C138.962 40.49 138.462 39.85 137.182 39.85H136.362V38.5H135.562V43H137.082ZM137.032 40.6C137.752 40.6 138.112 40.88 138.112 41.43C138.112 41.98 137.752 42.25 137.022 42.25H136.362V40.6H137.032ZM146.281 43V42.25H143.051C143.301 42.03 143.541 41.81 143.771 41.58C144.001 41.35 144.311 41.01 144.701 40.56C145.471 39.65 145.991 38.6 145.991 37.69C145.991 37.21 145.821 36.8 145.491 36.45C145.161 36.1 144.681 35.92 144.071 35.92C143.061 35.92 142.231 36.55 142.071 37.56L142.751 37.84C142.881 37.12 143.401 36.72 144.001 36.72C144.731 36.72 145.141 37.2 145.141 37.85C145.141 38.5 144.761 39.29 144.011 40.23C143.621 40.71 142.961 41.42 142.011 42.35V43H146.281ZM151.924 39.5C151.924 38.4 151.734 37.53 151.354 36.89C150.984 36.24 150.414 35.92 149.654 35.92C148.894 35.92 148.324 36.24 147.944 36.89C147.574 37.53 147.384 38.4 147.384 39.5C147.384 40.6 147.574 41.47 147.954 42.12C148.344 42.76 148.914 43.08 149.674 43.08C151.194 43.08 151.924 41.71 151.924 39.5ZM149.674 42.33C148.714 42.33 148.234 41.39 148.234 39.5C148.234 37.61 148.704 36.67 149.654 36.67C150.644 36.67 151.074 37.63 151.074 39.5C151.074 41.38 150.664 42.33 149.674 42.33ZM157.199 43V42.25H153.969C154.219 42.03 154.459 41.81 154.689 41.58C154.919 41.35 155.229 41.01 155.619 40.56C156.389 39.65 156.909 38.6 156.909 37.69C156.909 37.21 156.739 36.8 156.409 36.45C156.079 36.1 155.599 35.92 154.989 35.92C153.979 35.92 153.149 36.55 152.989 37.56L153.669 37.84C153.799 37.12 154.319 36.72 154.919 36.72C155.649 36.72 156.059 37.2 156.059 37.85C156.059 38.5 155.679 39.29 154.929 40.23C154.539 40.71 153.879 41.42 152.929 42.35V43H157.199ZM162.472 43V42.25H159.242C159.492 42.03 159.732 41.81 159.962 41.58C160.192 41.35 160.502 41.01 160.892 40.56C161.662 39.65 162.182 38.6 162.182 37.69C162.182 37.21 162.012 36.8 161.682 36.45C161.352 36.1 160.872 35.92 160.262 35.92C159.252 35.92 158.422 36.55 158.262 37.56L158.942 37.84C159.072 37.12 159.592 36.72 160.192 36.72C160.922 36.72 161.332 37.2 161.332 37.85C161.332 38.5 160.952 39.29 160.202 40.23C159.812 40.71 159.152 41.42 158.202 42.35V43H162.472ZM211.041 39.21L206.651 36.57V37.44L209.941 39.38L206.651 41.34V42.21L211.041 39.55V39.21Z" fill="#202F4E"/>
<path d="M55.53 113.8L53.04 120H53.92L56.5 113.52V113H52.3V113.8H55.53Z" fill="#202F4E"/>
<path d="M105.01 115.53C105.01 114.76 104.8 114.13 104.38 113.64C103.97 113.15 103.38 112.9 102.63 112.9C102.05 112.9 101.53 113.11 101.08 113.54C100.63 113.96 100.4 114.5 100.4 115.16C100.4 115.77 100.6 116.29 100.99 116.7C101.38 117.11 101.88 117.31 102.49 117.31C103.23 117.31 103.76 117.02 104.07 116.44C103.86 118.08 102.81 119.16 101.24 119.47L101.51 120.1C102.53 119.97 103.37 119.5 104.02 118.69C104.68 117.87 105.01 116.82 105.01 115.53ZM104.16 115.53C103.97 116.09 103.45 116.56 102.69 116.56C101.8 116.56 101.25 115.91 101.25 115.1C101.25 114.72 101.39 114.39 101.66 114.12C101.93 113.84 102.26 113.7 102.64 113.7C103.13 113.7 103.51 113.88 103.77 114.23C104.03 114.58 104.16 115.02 104.16 115.53Z" fill="#202F4E"/>
<path d="M78.85 116C78.55 116 78.29 115.89 78.06 115.66C77.83 115.43 77.72 115.16 77.72 114.85C77.72 114.17 78.25 113.7 78.96 113.7C79.67 113.7 80.23 114.14 80.23 114.85C80.23 115.16 80.12 115.43 79.89 115.66C79.67 115.89 79.41 116 79.11 116H78.85ZM79.1 116.8C79.86 116.8 80.44 117.28 80.45 118.04C80.45 118.8 79.86 119.3 78.97 119.3C78.12 119.3 77.5 118.77 77.5 118.04C77.5 117.68 77.63 117.38 77.9 117.15C78.17 116.92 78.5 116.8 78.88 116.8H79.1ZM76.65 118.19C76.65 118.77 76.87 119.23 77.32 119.58C77.77 119.93 78.33 120.1 78.98 120.1C79.63 120.1 80.18 119.92 80.63 119.57C81.08 119.22 81.3 118.74 81.3 118.13C81.3 117.22 80.72 116.54 79.93 116.41V116.38C80.64 116.1 81.08 115.42 81.08 114.73C81.08 114.19 80.88 113.75 80.47 113.41C80.06 113.07 79.56 112.9 78.97 112.9C78.38 112.9 77.88 113.07 77.47 113.41C77.07 113.75 76.87 114.19 76.87 114.73C76.87 115.49 77.34 116.18 77.97 116.39V116.42C77.18 116.65 76.65 117.34 76.65 118.19Z" fill="#202F4E"/>
<path d="M124.77 114.91L125.79 114.11V120H126.59V112.96H126.03L124.35 114.26L124.77 114.91ZM132.879 116.5C132.879 115.4 132.689 114.53 132.309 113.89C131.939 113.24 131.369 112.92 130.609 112.92C129.849 112.92 129.279 113.24 128.899 113.89C128.529 114.53 128.339 115.4 128.339 116.5C128.339 117.6 128.529 118.47 128.909 119.12C129.299 119.76 129.869 120.08 130.629 120.08C132.149 120.08 132.879 118.71 132.879 116.5ZM130.629 119.33C129.669 119.33 129.189 118.39 129.189 116.5C129.189 114.61 129.659 113.67 130.609 113.67C131.599 113.67 132.029 114.63 132.029 116.5C132.029 118.38 131.619 119.33 130.629 119.33Z" fill="#202F4E"/>
<path d="M174.77 114.91L175.79 114.11V120H176.59V112.96H176.03L174.35 114.26L174.77 114.91ZM182.509 120V119.25H179.279C179.529 119.03 179.769 118.81 179.999 118.58C180.229 118.35 180.539 118.01 180.929 117.56C181.699 116.65 182.219 115.6 182.219 114.69C182.219 114.21 182.049 113.8 181.719 113.45C181.389 113.1 180.909 112.92 180.299 112.92C179.289 112.92 178.459 113.55 178.299 114.56L178.979 114.84C179.109 114.12 179.629 113.72 180.229 113.72C180.959 113.72 181.369 114.2 181.369 114.85C181.369 115.5 180.989 116.29 180.239 117.23C179.849 117.71 179.189 118.42 178.239 119.35V120H182.509Z" fill="#202F4E"/>
<path d="M200.77 114.91L201.79 114.11V120H202.59V112.96H202.03L200.35 114.26L200.77 114.91ZM206.259 120.1C206.899 120.1 207.429 119.92 207.839 119.55C208.249 119.18 208.459 118.68 208.459 118.07C208.459 117.22 207.939 116.51 207.099 116.38V116.35C207.809 116.06 208.189 115.44 208.189 114.67C208.189 113.58 207.429 112.9 206.259 112.9C205.349 112.9 204.629 113.31 204.309 114.02L204.759 114.57C205.089 113.99 205.569 113.7 206.199 113.7C206.909 113.7 207.339 114.12 207.339 114.81C207.339 115.16 207.219 115.45 206.969 115.68C206.729 115.91 206.449 116.02 206.129 116.02H205.629V116.82H206.179C207.029 116.82 207.609 117.29 207.609 118.04C207.609 118.77 207.079 119.3 206.229 119.3C205.559 119.3 204.929 118.96 204.599 118.33L204.139 118.9C204.499 119.67 205.269 120.1 206.259 120.1Z" fill="#202F4E"/>
<path d="M148.77 114.91L149.79 114.11V120H150.59V112.96H150.03L148.35 114.26L148.77 114.91ZM152.559 114.91L153.579 114.11V120H154.379V112.96H153.819L152.139 114.26L152.559 114.91Z" fill="#202F4E"/>
<g opacity="0.2">
<path d="M55.53 193.8L53.04 200H53.92L56.5 193.52V193H52.3V193.8H55.53Z" fill="#202F4E"/>
<path d="M105.01 195.53C105.01 194.76 104.8 194.13 104.38 193.64C103.97 193.15 103.38 192.9 102.63 192.9C102.05 192.9 101.53 193.11 101.08 193.54C100.63 193.96 100.4 194.5 100.4 195.16C100.4 195.77 100.6 196.29 100.99 196.7C101.38 197.11 101.88 197.31 102.49 197.31C103.23 197.31 103.76 197.02 104.07 196.44C103.86 198.08 102.81 199.16 101.24 199.47L101.51 200.1C102.53 199.97 103.37 199.5 104.02 198.69C104.68 197.87 105.01 196.82 105.01 195.53ZM104.16 195.53C103.97 196.09 103.45 196.56 102.69 196.56C101.8 196.56 101.25 195.91 101.25 195.1C101.25 194.72 101.39 194.39 101.66 194.12C101.93 193.84 102.26 193.7 102.64 193.7C103.13 193.7 103.51 193.88 103.77 194.23C104.03 194.58 104.16 195.02 104.16 195.53Z" fill="#202F4E"/>
<path d="M78.85 196C78.55 196 78.29 195.89 78.06 195.66C77.83 195.43 77.72 195.16 77.72 194.85C77.72 194.17 78.25 193.7 78.96 193.7C79.67 193.7 80.23 194.14 80.23 194.85C80.23 195.16 80.12 195.43 79.89 195.66C79.67 195.89 79.41 196 79.11 196H78.85ZM79.1 196.8C79.86 196.8 80.44 197.28 80.45 198.04C80.45 198.8 79.86 199.3 78.97 199.3C78.12 199.3 77.5 198.77 77.5 198.04C77.5 197.68 77.63 197.38 77.9 197.15C78.17 196.92 78.5 196.8 78.88 196.8H79.1ZM76.65 198.19C76.65 198.77 76.87 199.23 77.32 199.58C77.77 199.93 78.33 200.1 78.98 200.1C79.63 200.1 80.18 199.92 80.63 199.57C81.08 199.22 81.3 198.74 81.3 198.13C81.3 197.22 80.72 196.54 79.93 196.41V196.38C80.64 196.1 81.08 195.42 81.08 194.73C81.08 194.19 80.88 193.75 80.47 193.41C80.06 193.07 79.56 192.9 78.97 192.9C78.38 192.9 77.88 193.07 77.47 193.41C77.07 193.75 76.87 194.19 76.87 194.73C76.87 195.49 77.34 196.18 77.97 196.39V196.42C77.18 196.65 76.65 197.34 76.65 198.19Z" fill="#202F4E"/>
<path d="M124.77 194.91L125.79 194.11V200H126.59V192.96H126.03L124.35 194.26L124.77 194.91ZM132.879 196.5C132.879 195.4 132.689 194.53 132.309 193.89C131.939 193.24 131.369 192.92 130.609 192.92C129.849 192.92 129.279 193.24 128.899 193.89C128.529 194.53 128.339 195.4 128.339 196.5C128.339 197.6 128.529 198.47 128.909 199.12C129.299 199.76 129.869 200.08 130.629 200.08C132.149 200.08 132.879 198.71 132.879 196.5ZM130.629 199.33C129.669 199.33 129.189 198.39 129.189 196.5C129.189 194.61 129.659 193.67 130.609 193.67C131.599 193.67 132.029 194.63 132.029 196.5C132.029 198.38 131.619 199.33 130.629 199.33Z" fill="#202F4E"/>
<path d="M174.77 194.91L175.79 194.11V200H176.59V192.96H176.03L174.35 194.26L174.77 194.91ZM182.509 200V199.25H179.279C179.529 199.03 179.769 198.81 179.999 198.58C180.229 198.35 180.539 198.01 180.929 197.56C181.699 196.65 182.219 195.6 182.219 194.69C182.219 194.21 182.049 193.8 181.719 193.45C181.389 193.1 180.909 192.92 180.299 192.92C179.289 192.92 178.459 193.55 178.299 194.56L178.979 194.84C179.109 194.12 179.629 193.72 180.229 193.72C180.959 193.72 181.369 194.2 181.369 194.85C181.369 195.5 180.989 196.29 180.239 197.23C179.849 197.71 179.189 198.42 178.239 199.35V200H182.509Z" fill="#202F4E"/>
<path d="M200.77 194.91L201.79 194.11V200H202.59V192.96H202.03L200.35 194.26L200.77 194.91ZM206.259 200.1C206.899 200.1 207.429 199.92 207.839 199.55C208.249 199.18 208.459 198.68 208.459 198.07C208.459 197.22 207.939 196.51 207.099 196.38V196.35C207.809 196.06 208.189 195.44 208.189 194.67C208.189 193.58 207.429 192.9 206.259 192.9C205.349 192.9 204.629 193.31 204.309 194.02L204.759 194.57C205.089 193.99 205.569 193.7 206.199 193.7C206.909 193.7 207.339 194.12 207.339 194.81C207.339 195.16 207.219 195.45 206.969 195.68C206.729 195.91 206.449 196.02 206.129 196.02H205.629V196.82H206.179C207.029 196.82 207.609 197.29 207.609 198.04C207.609 198.77 207.079 199.3 206.229 199.3C205.559 199.3 204.929 198.96 204.599 198.33L204.139 198.9C204.499 199.67 205.269 200.1 206.259 200.1Z" fill="#202F4E"/>
<path d="M148.77 194.91L149.79 194.11V200H150.59V192.96H150.03L148.35 194.26L148.77 194.91ZM152.559 194.91L153.579 194.11V200H154.379V192.96H153.819L152.139 194.26L152.559 194.91Z" fill="#202F4E"/>
</g>
<path d="M49.77 134.91L50.79 134.11V140H51.59V132.96H51.03L49.35 134.26L49.77 134.91ZM57.0191 140V138.25H57.9891V137.45H57.0191V135.5H56.2191V137.45H54.0391L56.8091 133H55.8891L52.9891 137.68V138.25H56.2191V140H57.0191Z" fill="#202F4E"/>
<path d="M100.77 134.91L101.79 134.11V140H102.59V132.96H102.03L100.35 134.26L100.77 134.91ZM104.289 137.52C104.289 138.25 104.509 138.86 104.939 139.36C105.369 139.85 105.969 140.1 106.719 140.1C107.289 140.1 107.799 139.89 108.229 139.47C108.659 139.04 108.879 138.5 108.879 137.84C108.879 137.21 108.689 136.69 108.309 136.29C107.939 135.89 107.459 135.69 106.879 135.69C106.109 135.69 105.559 136 105.229 136.62C105.379 135.8 105.709 135.12 106.229 134.58C106.759 134.04 107.349 133.68 108.019 133.51L107.689 132.9C106.889 133.09 106.089 133.61 105.409 134.38C104.739 135.14 104.289 136.29 104.289 137.52ZM105.139 137.52C105.329 136.95 105.859 136.44 106.609 136.44C107.519 136.44 108.029 137.05 108.029 137.9C108.029 138.28 107.899 138.61 107.649 138.89C107.399 139.16 107.089 139.3 106.709 139.3C106.209 139.3 105.819 139.13 105.549 138.79C105.279 138.45 105.139 138.03 105.139 137.52Z" fill="#202F4E"/>
<path d="M76.77 134.91L77.79 134.11V140H78.59V132.96H78.03L76.35 134.26L76.77 134.91ZM80.7791 136.52C81.0891 136.4 81.4491 136.34 81.8791 136.34C82.3891 136.34 82.7991 136.48 83.1091 136.76C83.4191 137.04 83.5791 137.39 83.5791 137.82C83.5791 138.25 83.4391 138.6 83.1691 138.88C82.8991 139.16 82.5691 139.3 82.1691 139.3C81.5691 139.3 80.9291 138.98 80.5991 138.45L80.1391 139.04C80.5391 139.73 81.3491 140.1 82.1491 140.1C82.7891 140.1 83.3291 139.89 83.7691 139.47C84.2091 139.05 84.4291 138.49 84.4291 137.79C84.4291 137.14 84.2191 136.61 83.8091 136.22C83.3991 135.82 82.8691 135.62 82.2191 135.62C82.0191 135.62 81.8291 135.64 81.6591 135.69L81.9191 133.8H84.3791V133H81.2191L80.7791 136.52Z" fill="#202F4E"/>
<path d="M124.77 134.91L125.79 134.11V140H126.59V132.96H126.03L124.35 134.26L124.77 134.91ZM131.319 133.8L128.829 140H129.709L132.289 133.52V133H128.089V133.8H131.319Z" fill="#202F4E"/>
<path d="M174.77 134.91L175.79 134.11V140H176.59V132.96H176.03L174.35 134.26L174.77 134.91ZM182.799 135.53C182.799 134.76 182.589 134.13 182.169 133.64C181.759 133.15 181.169 132.9 180.419 132.9C179.839 132.9 179.319 133.11 178.869 133.54C178.419 133.96 178.189 134.5 178.189 135.16C178.189 135.77 178.389 136.29 178.779 136.7C179.169 137.11 179.669 137.31 180.279 137.31C181.019 137.31 181.549 137.02 181.859 136.44C181.649 138.08 180.599 139.16 179.029 139.47L179.299 140.1C180.319 139.97 181.159 139.5 181.809 138.69C182.469 137.87 182.799 136.82 182.799 135.53ZM181.949 135.53C181.759 136.09 181.239 136.56 180.479 136.56C179.589 136.56 179.039 135.91 179.039 135.1C179.039 134.72 179.179 134.39 179.449 134.12C179.719 133.84 180.049 133.7 180.429 133.7C180.919 133.7 181.299 133.88 181.559 134.23C181.819 134.58 181.949 135.02 181.949 135.53Z" fill="#202F4E"/>
<path d="M204.72 140V139.25H201.49C201.74 139.03 201.98 138.81 202.21 138.58C202.44 138.35 202.75 138.01 203.14 137.56C203.91 136.65 204.43 135.6 204.43 134.69C204.43 134.21 204.26 133.8 203.93 133.45C203.6 133.1 203.12 132.92 202.51 132.92C201.5 132.92 200.67 133.55 200.51 134.56L201.19 134.84C201.32 134.12 201.84 133.72 202.44 133.72C203.17 133.72 203.58 134.2 203.58 134.85C203.58 135.5 203.2 136.29 202.45 137.23C202.06 137.71 201.4 138.42 200.45 139.35V140H204.72ZM210.363 136.5C210.363 135.4 210.173 134.53 209.793 133.89C209.423 133.24 208.853 132.92 208.093 132.92C207.333 132.92 206.763 133.24 206.383 133.89C206.013 134.53 205.823 135.4 205.823 136.5C205.823 137.6 206.013 138.47 206.393 139.12C206.783 139.76 207.353 140.08 208.113 140.08C209.633 140.08 210.363 138.71 210.363 136.5ZM208.113 139.33C207.153 139.33 206.673 138.39 206.673 136.5C206.673 134.61 207.143 133.67 208.093 133.67C209.083 133.67 209.513 134.63 209.513 136.5C209.513 138.38 209.103 139.33 208.113 139.33Z" fill="#202F4E"/>
<path d="M148.77 134.91L149.79 134.11V140H150.59V132.96H150.03L148.35 134.26L148.77 134.91ZM154.639 136C154.339 136 154.079 135.89 153.849 135.66C153.619 135.43 153.509 135.16 153.509 134.85C153.509 134.17 154.039 133.7 154.749 133.7C155.459 133.7 156.019 134.14 156.019 134.85C156.019 135.16 155.909 135.43 155.679 135.66C155.459 135.89 155.199 136 154.899 136H154.639ZM154.889 136.8C155.649 136.8 156.229 137.28 156.239 138.04C156.239 138.8 155.649 139.3 154.759 139.3C153.909 139.3 153.289 138.77 153.289 138.04C153.289 137.68 153.419 137.38 153.689 137.15C153.959 136.92 154.289 136.8 154.669 136.8H154.889ZM152.439 138.19C152.439 138.77 152.659 139.23 153.109 139.58C153.559 139.93 154.119 140.1 154.769 140.1C155.419 140.1 155.969 139.92 156.419 139.57C156.869 139.22 157.089 138.74 157.089 138.13C157.089 137.22 156.509 136.54 155.719 136.41V136.38C156.429 136.1 156.869 135.42 156.869 134.73C156.869 134.19 156.669 133.75 156.259 133.41C155.849 133.07 155.349 132.9 154.759 132.9C154.169 132.9 153.669 133.07 153.259 133.41C152.859 133.75 152.659 134.19 152.659 134.73C152.659 135.49 153.129 136.18 153.759 136.39V136.42C152.969 136.65 152.439 137.34 152.439 138.19Z" fill="#202F4E"/>
<path d="M53.72 160V159.25H50.49C50.74 159.03 50.98 158.81 51.21 158.58C51.44 158.35 51.75 158.01 52.14 157.56C52.91 156.65 53.43 155.6 53.43 154.69C53.43 154.21 53.26 153.8 52.93 153.45C52.6 153.1 52.12 152.92 51.51 152.92C50.5 152.92 49.67 153.55 49.51 154.56L50.19 154.84C50.32 154.12 50.84 153.72 51.44 153.72C52.17 153.72 52.58 154.2 52.58 154.85C52.58 155.5 52.2 156.29 51.45 157.23C51.06 157.71 50.4 158.42 49.45 159.35V160H53.72ZM55.0434 154.91L56.0634 154.11V160H56.8634V152.96H56.3034L54.6234 154.26L55.0434 154.91Z" fill="#202F4E"/>
<path d="M104.72 160V159.25H101.49C101.74 159.03 101.98 158.81 102.21 158.58C102.44 158.35 102.75 158.01 103.14 157.56C103.91 156.65 104.43 155.6 104.43 154.69C104.43 154.21 104.26 153.8 103.93 153.45C103.6 153.1 103.12 152.92 102.51 152.92C101.5 152.92 100.67 153.55 100.51 154.56L101.19 154.84C101.32 154.12 101.84 153.72 102.44 153.72C103.17 153.72 103.58 154.2 103.58 154.85C103.58 155.5 103.2 156.29 102.45 157.23C102.06 157.71 101.4 158.42 100.45 159.35V160H104.72ZM107.743 160.1C108.383 160.1 108.913 159.92 109.323 159.55C109.733 159.18 109.943 158.68 109.943 158.07C109.943 157.22 109.423 156.51 108.583 156.38V156.35C109.293 156.06 109.673 155.44 109.673 154.67C109.673 153.58 108.913 152.9 107.743 152.9C106.833 152.9 106.113 153.31 105.793 154.02L106.243 154.57C106.573 153.99 107.053 153.7 107.683 153.7C108.393 153.7 108.823 154.12 108.823 154.81C108.823 155.16 108.703 155.45 108.453 155.68C108.213 155.91 107.933 156.02 107.613 156.02H107.113V156.82H107.663C108.513 156.82 109.093 157.29 109.093 158.04C109.093 158.77 108.563 159.3 107.713 159.3C107.043 159.3 106.413 158.96 106.083 158.33L105.623 158.9C105.983 159.67 106.753 160.1 107.743 160.1Z" fill="#202F4E"/>
<path d="M80.72 160V159.25H77.49C77.74 159.03 77.98 158.81 78.21 158.58C78.44 158.35 78.75 158.01 79.14 157.56C79.91 156.65 80.43 155.6 80.43 154.69C80.43 154.21 80.26 153.8 79.93 153.45C79.6 153.1 79.12 152.92 78.51 152.92C77.5 152.92 76.67 153.55 76.51 154.56L77.19 154.84C77.32 154.12 77.84 153.72 78.44 153.72C79.17 153.72 79.58 154.2 79.58 154.85C79.58 155.5 79.2 156.29 78.45 157.23C78.06 157.71 77.4 158.42 76.45 159.35V160H80.72ZM85.9934 160V159.25H82.7634C83.0134 159.03 83.2534 158.81 83.4834 158.58C83.7134 158.35 84.0234 158.01 84.4134 157.56C85.1834 156.65 85.7034 155.6 85.7034 154.69C85.7034 154.21 85.5334 153.8 85.2034 153.45C84.8734 153.1 84.3934 152.92 83.7834 152.92C82.7734 152.92 81.9434 153.55 81.7834 154.56L82.4634 154.84C82.5934 154.12 83.1134 153.72 83.7134 153.72C84.4434 153.72 84.8534 154.2 84.8534 154.85C84.8534 155.5 84.4734 156.29 83.7234 157.23C83.3334 157.71 82.6734 158.42 81.7234 159.35V160H85.9934Z" fill="#202F4E"/>
<path d="M128.72 160V159.25H125.49C125.74 159.03 125.98 158.81 126.21 158.58C126.44 158.35 126.75 158.01 127.14 157.56C127.91 156.65 128.43 155.6 128.43 154.69C128.43 154.21 128.26 153.8 127.93 153.45C127.6 153.1 127.12 152.92 126.51 152.92C125.5 152.92 124.67 153.55 124.51 154.56L125.19 154.84C125.32 154.12 125.84 153.72 126.44 153.72C127.17 153.72 127.58 154.2 127.58 154.85C127.58 155.5 127.2 156.29 126.45 157.23C126.06 157.71 125.4 158.42 124.45 159.35V160H128.72ZM133.503 160V158.25H134.473V157.45H133.503V155.5H132.703V157.45H130.523L133.293 153H132.373L129.473 157.68V158.25H132.703V160H133.503Z" fill="#202F4E"/>
<path d="M178.72 160V159.25H175.49C175.74 159.03 175.98 158.81 176.21 158.58C176.44 158.35 176.75 158.01 177.14 157.56C177.91 156.65 178.43 155.6 178.43 154.69C178.43 154.21 178.26 153.8 177.93 153.45C177.6 153.1 177.12 152.92 176.51 152.92C175.5 152.92 174.67 153.55 174.51 154.56L175.19 154.84C175.32 154.12 175.84 153.72 176.44 153.72C177.17 153.72 177.58 154.2 177.58 154.85C177.58 155.5 177.2 156.29 176.45 157.23C176.06 157.71 175.4 158.42 174.45 159.35V160H178.72ZM179.773 157.52C179.773 158.25 179.993 158.86 180.423 159.36C180.853 159.85 181.453 160.1 182.203 160.1C182.773 160.1 183.283 159.89 183.713 159.47C184.143 159.04 184.363 158.5 184.363 157.84C184.363 157.21 184.173 156.69 183.793 156.29C183.423 155.89 182.943 155.69 182.363 155.69C181.593 155.69 181.043 156 180.713 156.62C180.863 155.8 181.193 155.12 181.713 154.58C182.243 154.04 182.833 153.68 183.503 153.51L183.173 152.9C182.373 153.09 181.573 153.61 180.893 154.38C180.223 155.14 179.773 156.29 179.773 157.52ZM180.623 157.52C180.813 156.95 181.343 156.44 182.093 156.44C183.003 156.44 183.513 157.05 183.513 157.9C183.513 158.28 183.383 158.61 183.133 158.89C182.883 159.16 182.573 159.3 182.193 159.3C181.693 159.3 181.303 159.13 181.033 158.79C180.763 158.45 180.623 158.03 180.623 157.52Z" fill="#202F4E"/>
<path d="M204.72 160V159.25H201.49C201.74 159.03 201.98 158.81 202.21 158.58C202.44 158.35 202.75 158.01 203.14 157.56C203.91 156.65 204.43 155.6 204.43 154.69C204.43 154.21 204.26 153.8 203.93 153.45C203.6 153.1 203.12 152.92 202.51 152.92C201.5 152.92 200.67 153.55 200.51 154.56L201.19 154.84C201.32 154.12 201.84 153.72 202.44 153.72C203.17 153.72 203.58 154.2 203.58 154.85C203.58 155.5 203.2 156.29 202.45 157.23C202.06 157.71 201.4 158.42 200.45 159.35V160H204.72ZM208.803 153.8L206.313 160H207.193L209.773 153.52V153H205.573V153.8H208.803Z" fill="#202F4E"/>
<path d="M152.72 160V159.25H149.49C149.74 159.03 149.98 158.81 150.21 158.58C150.44 158.35 150.75 158.01 151.14 157.56C151.91 156.65 152.43 155.6 152.43 154.69C152.43 154.21 152.26 153.8 151.93 153.45C151.6 153.1 151.12 152.92 150.51 152.92C149.5 152.92 148.67 153.55 148.51 154.56L149.19 154.84C149.32 154.12 149.84 153.72 150.44 153.72C151.17 153.72 151.58 154.2 151.58 154.85C151.58 155.5 151.2 156.29 150.45 157.23C150.06 157.71 149.4 158.42 148.45 159.35V160H152.72ZM154.263 156.52C154.573 156.4 154.933 156.34 155.363 156.34C155.873 156.34 156.283 156.48 156.593 156.76C156.903 157.04 157.063 157.39 157.063 157.82C157.063 158.25 156.923 158.6 156.653 158.88C156.383 159.16 156.053 159.3 155.653 159.3C155.053 159.3 154.413 158.98 154.083 158.45L153.623 159.04C154.023 159.73 154.833 160.1 155.633 160.1C156.273 160.1 156.813 159.89 157.253 159.47C157.693 159.05 157.913 158.49 157.913 157.79C157.913 157.14 157.703 156.61 157.293 156.22C156.883 155.82 156.353 155.62 155.703 155.62C155.503 155.62 155.313 155.64 155.143 155.69L155.403 153.8H157.863V153H154.703L154.263 156.52Z" fill="#202F4E"/>
<path d="M53.72 180V179.25H50.49C50.74 179.03 50.98 178.81 51.21 178.58C51.44 178.35 51.75 178.01 52.14 177.56C52.91 176.65 53.43 175.6 53.43 174.69C53.43 174.21 53.26 173.8 52.93 173.45C52.6 173.1 52.12 172.92 51.51 172.92C50.5 172.92 49.67 173.55 49.51 174.56L50.19 174.84C50.32 174.12 50.84 173.72 51.44 173.72C52.17 173.72 52.58 174.2 52.58 174.85C52.58 175.5 52.2 176.29 51.45 177.23C51.06 177.71 50.4 178.42 49.45 179.35V180H53.72ZM57.1234 176C56.8234 176 56.5634 175.89 56.3334 175.66C56.1034 175.43 55.9934 175.16 55.9934 174.85C55.9934 174.17 56.5234 173.7 57.2334 173.7C57.9434 173.7 58.5034 174.14 58.5034 174.85C58.5034 175.16 58.3934 175.43 58.1634 175.66C57.9434 175.89 57.6834 176 57.3834 176H57.1234ZM57.3734 176.8C58.1334 176.8 58.7134 177.28 58.7234 178.04C58.7234 178.8 58.1334 179.3 57.2434 179.3C56.3934 179.3 55.7734 178.77 55.7734 178.04C55.7734 177.68 55.9034 177.38 56.1734 177.15C56.4434 176.92 56.7734 176.8 57.1534 176.8H57.3734ZM54.9234 178.19C54.9234 178.77 55.1434 179.23 55.5934 179.58C56.0434 179.93 56.6034 180.1 57.2534 180.1C57.9034 180.1 58.4534 179.92 58.9034 179.57C59.3534 179.22 59.5734 178.74 59.5734 178.13C59.5734 177.22 58.9934 176.54 58.2034 176.41V176.38C58.9134 176.1 59.3534 175.42 59.3534 174.73C59.3534 174.19 59.1534 173.75 58.7434 173.41C58.3334 173.07 57.8334 172.9 57.2434 172.9C56.6534 172.9 56.1534 173.07 55.7434 173.41C55.3434 173.75 55.1434 174.19 55.1434 174.73C55.1434 175.49 55.6134 176.18 56.2434 176.39V176.42C55.4534 176.65 54.9234 177.34 54.9234 178.19Z" fill="#202F4E"/>
<path opacity="0.2" d="M106.72 180V179.25H103.49C103.74 179.03 103.98 178.81 104.21 178.58C104.44 178.35 104.75 178.01 105.14 177.56C105.91 176.65 106.43 175.6 106.43 174.69C106.43 174.21 106.26 173.8 105.93 173.45C105.6 173.1 105.12 172.92 104.51 172.92C103.5 172.92 102.67 173.55 102.51 174.56L103.19 174.84C103.32 174.12 103.84 173.72 104.44 173.72C105.17 173.72 105.58 174.2 105.58 174.85C105.58 175.5 105.2 176.29 104.45 177.23C104.06 177.71 103.4 178.42 102.45 179.35V180H106.72Z" fill="#202F4E"/>
<path opacity="0.2" d="M79.77 174.91L80.79 174.11V180H81.59V172.96H81.03L79.35 174.26L79.77 174.91Z" fill="#202F4E"/>
<path opacity="0.2" d="M128.47 180.1C129.11 180.1 129.64 179.92 130.05 179.55C130.46 179.18 130.67 178.68 130.67 178.07C130.67 177.22 130.15 176.51 129.31 176.38V176.35C130.02 176.06 130.4 175.44 130.4 174.67C130.4 173.58 129.64 172.9 128.47 172.9C127.56 172.9 126.84 173.31 126.52 174.02L126.97 174.57C127.3 173.99 127.78 173.7 128.41 173.7C129.12 173.7 129.55 174.12 129.55 174.81C129.55 175.16 129.43 175.45 129.18 175.68C128.94 175.91 128.66 176.02 128.34 176.02H127.84V176.82H128.39C129.24 176.82 129.82 177.29 129.82 178.04C129.82 178.77 129.29 179.3 128.44 179.3C127.77 179.3 127.14 178.96 126.81 178.33L126.35 178.9C126.71 179.67 127.48 180.1 128.47 180.1Z" fill="#202F4E"/>
<path opacity="0.2" d="M176.99 176.52C177.3 176.4 177.66 176.34 178.09 176.34C178.6 176.34 179.01 176.48 179.32 176.76C179.63 177.04 179.79 177.39 179.79 177.82C179.79 178.25 179.65 178.6 179.38 178.88C179.11 179.16 178.78 179.3 178.38 179.3C177.78 179.3 177.14 178.98 176.81 178.45L176.35 179.04C176.75 179.73 177.56 180.1 178.36 180.1C179 180.1 179.54 179.89 179.98 179.47C180.42 179.05 180.64 178.49 180.64 177.79C180.64 177.14 180.43 176.61 180.02 176.22C179.61 175.82 179.08 175.62 178.43 175.62C178.23 175.62 178.04 175.64 177.87 175.69L178.13 173.8H180.59V173H177.43L176.99 176.52Z" fill="#202F4E"/>
<path opacity="0.2" d="M202.5 177.52C202.5 178.25 202.72 178.86 203.15 179.36C203.58 179.85 204.18 180.1 204.93 180.1C205.5 180.1 206.01 179.89 206.44 179.47C206.87 179.04 207.09 178.5 207.09 177.84C207.09 177.21 206.9 176.69 206.52 176.29C206.15 175.89 205.67 175.69 205.09 175.69C204.32 175.69 203.77 176 203.44 176.62C203.59 175.8 203.92 175.12 204.44 174.58C204.97 174.04 205.56 173.68 206.23 173.51L205.9 172.9C205.1 173.09 204.3 173.61 203.62 174.38C202.95 175.14 202.5 176.29 202.5 177.52ZM203.35 177.52C203.54 176.95 204.07 176.44 204.82 176.44C205.73 176.44 206.24 177.05 206.24 177.9C206.24 178.28 206.11 178.61 205.86 178.89C205.61 179.16 205.3 179.3 204.92 179.3C204.42 179.3 204.03 179.13 203.76 178.79C203.49 178.45 203.35 178.03 203.35 177.52Z" fill="#202F4E"/>
<path opacity="0.2" d="M154.23 180V178.25H155.2V177.45H154.23V175.5H153.43V177.45H151.25L154.02 173H153.1L150.2 177.68V178.25H153.43V180H154.23Z" fill="#202F4E"/>
<g style="mix-blend-mode:multiply">
<rect x="30" y="126" width="204" height="20" fill="#E3F0F1"/>
</g>
<g style="mix-blend-mode:multiply">
<rect x="30" y="146" width="135" height="20" fill="#E3F0F1"/>
</g>
<g style="mix-blend-mode:multiply">
<rect x="165" y="106" width="69" height="20" fill="#E3F0F1"/>
</g>
</g>
<defs>
<filter id="filter0_d_156_6446" x="0" y="0" width="264" height="248" filterUnits="userSpaceOnUse" color-interpolation-filters="sRGB">
<feFlood flood-opacity="0" result="BackgroundImageFix"/>
<feColorMatrix in="SourceAlpha" type="matrix" values="0 0 0 0 0 0 0 0 0 0 0 0 0 0 0 0 0 0 127 0" result="hardAlpha"/>
<feOffset dy="4"/>
<feGaussianBlur stdDeviation="15"/>
<feComposite in2="hardAlpha" operator="out"/>
<feColorMatrix type="matrix" values="0 0 0 0 0 0 0 0 0 0 0 0 0 0 0 0 0 0 0.1 0"/>
<feBlend mode="normal" in2="BackgroundImageFix" result="effect1_dropShadow_156_6446"/>
<feBlend mode="normal" in="SourceGraphic" in2="effect1_dropShadow_156_6446" result="shape"/>
</filter>
</defs>
</svg>
