<svg width="9" height="9" viewBox="0 0 9 9" fill="none" xmlns="http://www.w3.org/2000/svg">
<path d="M8.36067 0.110636L4.7582 3.71311C4.61068 3.86063 4.37707 3.86063 4.2418 3.71311L0.639327 0.110636C0.491812 -0.0368788 0.2582 -0.0368788 0.122932 0.110636C-0.0245837 0.258152 -0.0245837 0.491764 0.122932 0.627032L3.72541 4.22951C3.87292 4.37702 3.87292 4.61063 3.72541 4.7459L0.110636 8.36067C-0.0368788 8.50819 -0.0368788 8.7418 0.110636 8.87707C0.258152 9.02458 0.491764 9.02458 0.627032 8.87707L4.22951 5.27459C4.37702 5.12708 4.61063 5.12708 4.7459 5.27459L8.36067 8.88936C8.50819 9.03688 8.7418 9.03688 8.87707 8.88936C9.02458 8.74185 9.02458 8.50824 8.87707 8.37297L5.28689 4.7582C5.13937 4.61068 5.13937 4.37707 5.28689 4.2418L8.88936 0.639327C9.03688 0.491812 9.03688 0.2582 8.88936 0.122932C8.74185 -0.0246694 8.50824 -0.0246694 8.36072 0.110582L8.36067 0.110636Z" fill="#202F4E"/>
</svg>
