<svg width="20" height="17" viewBox="0 0 20 17" fill="none" xmlns="http://www.w3.org/2000/svg">
<path d="M19.1001 3.42367H6.9001C6.8001 3.42367 6.6001 3.31668 6.6001 3.10271C6.6001 2.99572 6.7001 2.78174 6.9001 2.78174H19.2001C19.3001 2.78174 19.5001 2.88873 19.5001 3.10271C19.4001 3.31668 19.3001 3.42367 19.1001 3.42367Z" fill="white"/>
<path d="M19.1 3.5307H6.9C6.7 3.5307 6.5 3.31672 6.5 3.10274C6.5 2.88876 6.7 2.67477 6.9 2.67477H19.2C19.4 2.67477 19.6 2.88876 19.6 3.10274C19.5 3.31672 19.3 3.5307 19.1 3.5307ZM6.9 2.88876C6.8 2.88876 6.7 2.99575 6.7 3.10274C6.7 3.20973 6.8 3.31672 6.9 3.31672H19.2C19.3 3.31672 19.4 3.20973 19.4 3.10274C19.4 2.99575 19.3 2.88876 19.2 2.88876H6.9Z" fill="white"/>
<path d="M5.00008 3.42367H0.400097C0.300097 3.42367 0.100098 3.31668 0.100098 3.10271C0.100098 2.99572 0.200097 2.78174 0.400097 2.78174H5.00008C5.10008 2.78174 5.30008 2.88873 5.30008 3.10271C5.20008 3.31668 5.10008 3.42367 5.00008 3.42367Z" fill="white"/>
<path d="M4.99999 3.5307H0.4C0.2 3.5307 0 3.31672 0 3.10274C0 2.88876 0.2 2.67477 0.4 2.67477H4.99999C5.19999 2.67477 5.39999 2.88876 5.39999 3.10274C5.29999 3.31672 5.19999 3.5307 4.99999 3.5307ZM0.4 2.88876C0.3 2.88876 0.2 2.99575 0.2 3.10274C0.2 3.20973 0.3 3.31672 0.4 3.31672H4.99999C4.99999 3.31672 5.09999 3.20973 5.09999 3.10274C5.09999 2.99575 4.99999 2.88876 4.99999 2.88876H0.4Z" fill="white"/>
<path d="M19.1 8.45221H14.3C14.2 8.45221 14 8.34522 14 8.13124C14 8.02425 14.1 7.81027 14.3 7.81027H19.1C19.2 7.81027 19.4 7.91726 19.4 8.13124C19.4 8.34522 19.3 8.45221 19.1 8.45221Z" fill="white"/>
<path d="M19.1 8.55922H14.3C14.1 8.55922 14 8.34524 14 8.13126C14 7.91729 14.2 7.70331 14.4 7.70331H19.2C19.4 7.70331 19.6 7.91729 19.6 8.13126C19.5 8.34524 19.3 8.55922 19.1 8.55922ZM14.3 8.02427C14.2 8.02427 14.1 8.13126 14.1 8.23825C14.1 8.34524 14.2 8.45223 14.3 8.45223H19.1C19.2 8.45223 19.3 8.34524 19.3 8.23825C19.3 8.13126 19.2 8.02427 19.1 8.02427H14.3Z" fill="white"/>
<path d="M13.0001 8.45221H0.400097C0.300097 8.45221 0.100098 8.34522 0.100098 8.13124C0.100098 8.02425 0.200098 7.81027 0.400097 7.81027H13.0001C13.1001 7.81027 13.3001 7.91726 13.3001 8.13124C13.3001 8.34522 13.1001 8.45221 13.0001 8.45221Z" fill="white"/>
<path d="M13 8.55922H0.4C0.2 8.55922 0 8.34524 0 8.13126C0 7.91729 0.2 7.70331 0.4 7.70331H13C13.2 7.70331 13.4 7.91729 13.4 8.13126C13.4 8.34524 13.2 8.55922 13 8.55922ZM0.4 8.02427C0.3 8.02427 0.2 8.13126 0.2 8.23825C0.2 8.34524 0.3 8.45223 0.4 8.45223H13C13.1 8.45223 13.2 8.34524 13.2 8.23825C13.2 8.13126 13.1 8.02427 13 8.02427H0.4Z" fill="white"/>
<path d="M19.1 13.4807H6.3C6.2 13.4807 6 13.3737 6 13.1597C6 13.0528 6.1 12.8388 6.3 12.8388H19.2C19.3 12.8388 19.5 12.9458 19.5 13.1597C19.4 13.3737 19.3 13.4807 19.1 13.4807Z" fill="white"/>
<path d="M19.0999 13.5877H6.2999C6.0999 13.5877 5.8999 13.3737 5.8999 13.1597C5.8999 12.9458 6.0999 12.8388 6.2999 12.8388H19.1999C19.3999 12.8388 19.5999 13.0528 19.5999 13.2667C19.5999 13.4807 19.2999 13.5877 19.0999 13.5877ZM6.2999 13.0528C6.1999 13.0528 6.0999 13.1597 6.0999 13.2667C6.0999 13.3737 6.1999 13.4807 6.2999 13.4807H19.1999C19.2999 13.4807 19.3999 13.3737 19.3999 13.2667C19.3999 13.1597 19.2999 13.0528 19.1999 13.0528H6.2999Z" fill="white"/>
<path d="M5.00008 13.4807H0.400097C0.300097 13.4807 0.100098 13.3737 0.100098 13.1597C0.100098 13.0528 0.200097 12.8388 0.400097 12.8388H5.00008C5.10008 12.8388 5.30008 12.9458 5.30008 13.1597C5.20008 13.3737 5.10008 13.4807 5.00008 13.4807Z" fill="white"/>
<path d="M4.99999 13.5877H0.4C0.2 13.5877 0 13.3737 0 13.1597C0 12.9458 0.2 12.8388 0.4 12.8388H4.99999C5.19999 12.8388 5.39999 13.0528 5.39999 13.2667C5.39999 13.4807 5.19999 13.5877 4.99999 13.5877ZM0.4 13.0528C0.3 13.0528 0.2 13.1597 0.2 13.2667C0.2 13.3737 0.3 13.4807 0.4 13.4807H4.99999C5.09999 13.4807 5.19999 13.3737 5.19999 13.2667C5.19999 13.1597 5.09999 13.0528 4.99999 13.0528H0.4Z" fill="white"/>
<path d="M5.00018 5.67045C4.80019 5.67045 4.7002 5.56346 4.7002 5.34949V0.427963C4.7002 0.320974 4.80019 0.106995 5.00018 0.106995C5.10018 0.106995 5.30017 0.213984 5.30017 0.427963V5.34949C5.20018 5.56346 5.10018 5.67045 5.00018 5.67045Z" fill="white"/>
<path d="M5.00009 5.77746C4.80009 5.77746 4.6001 5.56348 4.6001 5.3495V0.42796C4.6001 0.21398 4.80009 0 5.00009 0C5.20009 0 5.40009 0.21398 5.40009 0.42796V5.3495C5.30009 5.56348 5.20009 5.77746 5.00009 5.77746ZM5.00009 0.21398C4.90009 0.21398 4.80009 0.32097 4.80009 0.42796V5.3495C4.80009 5.45649 4.90009 5.56348 5.00009 5.56348C5.10009 5.56348 5.10009 5.45649 5.10009 5.3495V0.42796C5.10009 0.32097 5.00009 0.21398 5.00009 0.21398Z" fill="white"/>
<path d="M5.00018 16.0484C4.90019 16.0484 4.7002 15.9415 4.7002 15.7275V10.699C4.7002 10.592 4.80019 10.378 5.00018 10.378C5.10018 10.378 5.30017 10.485 5.30017 10.699V15.7275C5.20018 15.9415 5.10018 16.0484 5.00018 16.0484Z" fill="white"/>
<path d="M5.00009 16.1555C4.80009 16.1555 4.6001 15.9415 4.6001 15.7275V10.699C4.6001 10.485 4.80009 10.271 5.00009 10.271C5.20009 10.271 5.40009 10.485 5.40009 10.699V15.7275C5.30009 15.9415 5.20009 16.1555 5.00009 16.1555ZM5.00009 10.592C4.90009 10.592 4.80009 10.699 4.80009 10.806V15.8345C4.80009 15.9415 4.90009 16.0485 5.00009 16.0485C5.10009 16.0485 5.20009 15.9415 5.20009 15.8345V10.806C5.10009 10.699 5.00009 10.592 5.00009 10.592Z" fill="white"/>
<path d="M14.3 10.699C14.2 10.699 14 10.592 14 10.378V5.3495C14 5.24251 14.1 5.02853 14.3 5.02853C14.4 5.02853 14.6 5.13552 14.6 5.3495V10.378C14.6 10.592 14.5 10.699 14.3 10.699Z" fill="white"/>
<path d="M14.2999 10.806C14.0999 10.806 13.8999 10.592 13.8999 10.378V5.3495C13.8999 5.13552 14.0999 4.92154 14.2999 4.92154C14.4999 4.92154 14.6999 5.13552 14.6999 5.3495V10.378C14.6999 10.592 14.4999 10.806 14.2999 10.806ZM14.2999 5.13552C14.1999 5.13552 14.0999 5.24251 14.0999 5.3495V10.378C14.0999 10.485 14.1999 10.592 14.2999 10.592C14.3999 10.592 14.4999 10.485 14.4999 10.378V5.3495C14.4999 5.24251 14.3999 5.13552 14.2999 5.13552Z" fill="white"/>
</svg>
