<svg width="22" height="19" viewBox="0 0 22 19" fill="none" xmlns="http://www.w3.org/2000/svg">
<path d="M15.2307 0.444824V3.10024C11.5197 4.1004 6.23074 6.7775 4.51274 12.4131C8.80608 8.41626 14.8767 8.85166 15.2307 8.8694V11.5248L22 5.98947L15.2307 0.444824ZM1.12811 2.24018C0.537461 2.24018 0 2.81038 0 3.4369V17.7989C0 18.4255 0.537511 18.9956 1.12811 18.9956H15.7948C16.3855 18.9956 16.923 18.4254 16.923 17.7989V11.6464L15.9182 12.4691L14.6665 13.4977V16.602H2.25617V4.63373H9.05212C10.7026 3.51293 12.4544 2.74242 14.0233 2.24002L1.12811 2.24018Z" fill="white"/>
</svg>
