<svg width="389" height="352" viewBox="0 0 389 352" fill="none" xmlns="http://www.w3.org/2000/svg">
<path d="M149 73.0001H239.499C239.499 73.0001 231.163 33.0454 193.611 33.0454C160.115 33.0454 149 73.0001 149 73.0001Z" fill="#7CAB87"/>
<path d="M195.188 0H193.236V33.0453H195.188V0Z" fill="black"/>
<path d="M114.058 176.289L63 210.454L113.294 285.666L164.352 251.501L114.058 176.289Z" fill="#F5F5F5"/>
<path d="M137.921 247.925L137.375 251.521L111.985 247.88L112.577 244.284L137.921 247.925Z" fill="#E0E0E0"/>
<path d="M125.181 235.135L128.821 235.681L124.771 260.67L121.131 260.124L125.181 235.135Z" fill="#E0E0E0"/>
<path d="M101.793 203.365C101.838 203.411 96.6966 206.915 90.3719 211.148C84.0017 215.381 78.86 218.795 78.8145 218.75C78.769 218.704 83.9107 215.199 90.2354 210.966C96.5601 206.733 101.747 203.32 101.793 203.365Z" fill="#7E9BFB"/>
<path d="M120.539 198.632C120.585 198.677 112.076 204.458 101.52 211.467C91.0089 218.522 82.4091 224.166 82.3636 224.121C82.3181 224.075 90.8269 218.295 101.383 211.285C111.94 204.276 120.539 198.586 120.539 198.632Z" fill="#7E9BFB"/>
<path d="M124.316 204.276C124.362 204.321 115.853 210.102 105.296 217.111C94.7855 224.166 86.1857 229.81 86.1402 229.765C86.0947 229.719 94.6035 223.939 105.16 216.929C115.716 209.874 124.271 204.23 124.316 204.276Z" fill="#7E9BFB"/>
<path d="M128.093 209.92C128.138 209.965 119.629 215.746 109.073 222.755C98.5622 229.81 89.9624 235.454 89.9169 235.409C89.8714 235.363 98.3802 229.583 108.937 222.573C119.493 215.518 128.047 209.874 128.093 209.92Z" fill="#7E9BFB"/>
<path d="M131.869 215.518C131.915 215.563 123.406 221.344 112.85 228.353C102.339 235.408 93.739 241.052 93.6935 241.007C93.648 240.961 102.157 235.181 112.713 228.171C123.224 221.162 131.824 215.472 131.869 215.518Z" fill="#7E9BFB"/>
<path d="M284.77 226.684L241.881 255.382L284.104 318.526L326.993 289.827L284.77 226.684Z" fill="#F5F5F5"/>
<path d="M304.821 286.842L304.366 289.891L283.026 286.796L283.526 283.792L304.821 286.842Z" fill="#5379F9"/>
<path d="M294.082 276.1L297.177 276.555L293.764 297.538L290.715 297.083L294.082 276.1Z" fill="#5379F9"/>
<path d="M274.471 249.427C274.517 249.473 270.194 252.431 264.87 255.982C259.547 259.532 255.179 262.399 255.133 262.354C255.088 262.308 259.41 259.35 264.734 255.8C270.058 252.204 274.426 249.382 274.471 249.427Z" fill="#E0E0E0"/>
<path d="M290.215 245.467C290.26 245.513 283.117 250.383 274.289 256.3C265.462 262.217 258.227 266.951 258.227 266.905C258.182 266.86 265.325 261.989 274.198 256.072C282.98 250.155 290.215 245.422 290.215 245.467Z" fill="#E0E0E0"/>
<path d="M293.4 250.201C293.445 250.247 286.302 255.117 277.474 261.034C268.647 266.951 261.412 271.685 261.412 271.639C261.367 271.594 268.511 266.723 277.383 260.806C286.165 254.889 293.354 250.155 293.4 250.201Z" fill="#E0E0E0"/>
<path d="M296.539 254.934C296.585 254.98 289.441 259.85 280.614 265.767C271.787 271.684 264.552 276.418 264.552 276.372C264.506 276.327 271.65 271.457 280.523 265.54C289.305 259.623 296.539 254.889 296.539 254.934Z" fill="#E0E0E0"/>
<path d="M299.725 259.668C299.77 259.714 292.626 264.584 283.799 270.501C274.972 276.418 267.737 281.152 267.737 281.106C267.692 281.061 274.835 276.191 283.708 270.274C292.49 264.356 299.679 259.577 299.725 259.668Z" fill="#E0E0E0"/>
<path d="M216.92 179.029L170.136 154L133.291 222.914L180.075 247.942L216.92 179.029Z" fill="#F5F5F5"/>
<path d="M172.047 226.396L169.09 227.443L161.582 206.597L164.539 205.595L172.047 226.396Z" fill="#A79A9A"/>
<path d="M176.597 211.467L177.689 214.471L157.032 221.526L155.94 218.567L176.597 211.467Z" fill="#A79A9A"/>
<path d="M191.34 180.744C191.294 180.835 186.562 178.331 180.738 175.236C174.914 172.141 170.227 169.547 170.273 169.456C170.318 169.364 175.05 171.868 180.874 174.963C186.653 178.058 191.34 180.652 191.34 180.744Z" fill="#A79A9A"/>
<path d="M202.533 193.124C202.488 193.215 194.661 189.073 185.015 183.884C175.369 178.741 167.542 174.508 167.588 174.417C167.633 174.325 175.46 178.467 185.106 183.656C194.798 188.8 202.579 193.033 202.533 193.124Z" fill="#A79A9A"/>
<path d="M199.803 198.267C199.758 198.358 191.931 194.216 182.285 189.027C172.639 183.884 164.858 179.606 164.858 179.56C164.903 179.469 172.73 183.611 182.376 188.8C192.022 193.943 199.803 198.222 199.803 198.267Z" fill="#A79A9A"/>
<path d="M197.027 203.41C196.982 203.501 189.156 199.359 179.509 194.17C169.863 189.027 162.082 184.749 162.082 184.703C162.128 184.612 169.954 188.754 179.6 193.943C189.292 199.132 197.073 203.365 197.027 203.41Z" fill="#A79A9A"/>
<path d="M194.252 208.599C194.206 208.69 186.38 204.548 176.734 199.359C167.087 194.216 159.307 189.938 159.307 189.892C159.352 189.801 167.178 193.943 176.825 199.132C186.517 204.275 194.297 208.508 194.252 208.599Z" fill="#A79A9A"/>
<path d="M85.4122 280.561C87.6418 280.652 89.6894 281.835 91.1454 283.519C92.6015 285.203 93.5115 287.297 94.0575 289.436C95.1495 293.578 94.467 298.448 93.284 302.59C88.8248 300.997 86.0492 296.218 84.7752 293.715C82.8641 289.664 81.7266 281.289 85.4122 280.561Z" fill="#E8505B"/>
<path d="M99.7907 307.551C98.3801 305.503 98.3346 302.681 99.4722 300.496C100.61 298.312 102.748 296.719 105.114 295.99C106.206 295.672 107.48 295.535 108.436 296.127C109.346 296.719 109.71 297.902 109.574 298.949C109.437 299.996 108.937 300.997 108.299 301.862C106.07 304.821 103.431 307.278 99.7907 307.551Z" fill="#E8505B"/>
<path d="M100.246 321.389C100.246 321.389 100.155 321.07 100.064 320.524C99.9272 319.932 99.7907 319.113 99.6087 318.157C99.2447 316.154 98.6987 313.332 99.1082 310.237C99.5177 307.142 100.746 304.457 102.066 302.909C102.703 302.09 103.294 301.544 103.749 301.18C103.977 300.997 104.159 300.861 104.295 300.815C104.432 300.724 104.477 300.679 104.477 300.724C104.523 300.77 103.431 301.453 102.202 303.091C100.974 304.684 99.7907 307.279 99.3812 310.328C98.9717 313.378 99.4722 316.2 99.7907 318.157C99.9727 319.158 100.064 319.978 100.155 320.524C100.246 321.07 100.291 321.389 100.246 321.389Z" fill="#263238"/>
<path d="M86.8683 286.842C86.8683 286.842 86.9593 286.933 87.0503 287.16C87.1868 287.434 87.3233 287.752 87.5053 288.162C87.9148 289.027 88.4608 290.301 89.1433 291.849C90.5084 294.989 92.2829 299.359 94.194 304.183C96.0596 309.054 97.6976 313.469 98.7897 316.7C99.3357 318.293 99.7907 319.613 100.064 320.524C100.2 320.933 100.291 321.298 100.382 321.571C100.473 321.798 100.473 321.935 100.473 321.935C100.473 321.935 100.428 321.798 100.337 321.571C100.246 321.298 100.109 320.979 99.9727 320.524C99.6542 319.613 99.1537 318.293 98.6077 316.746C97.4246 313.56 95.7866 309.099 93.921 304.274C92.0554 299.404 90.2809 295.035 88.9613 291.894C88.3243 290.347 87.8238 289.072 87.4143 288.162C87.2323 287.752 87.0958 287.388 87.0048 287.16C86.8683 286.978 86.8228 286.887 86.8683 286.842Z" fill="#263238"/>
<path d="M94.9675 312.24C92.3284 307.734 87.4143 304.684 82.1816 304.32C80.8621 304.229 79.2695 304.457 78.678 305.64C78.0865 306.824 78.86 308.235 79.77 309.236C83.5011 313.287 89.8714 314.698 95.013 312.65" fill="#E8505B"/>
<path d="M84.1837 307.87C84.1837 307.87 84.5022 307.87 85.0027 307.916C85.2757 307.916 85.5942 307.961 85.9582 308.007C86.3222 308.098 86.7772 308.098 87.2323 308.234C87.6873 308.371 88.2333 308.462 88.7338 308.644C89.2798 308.826 89.8258 309.054 90.4174 309.281C91.5549 309.827 92.7835 310.51 93.9665 311.375C95.104 312.285 96.1051 313.287 96.8786 314.288C97.2426 314.789 97.6066 315.289 97.9251 315.744C98.2436 316.2 98.4711 316.7 98.6987 317.11C98.9262 317.52 99.0627 317.929 99.2447 318.293C99.3812 318.657 99.5177 318.976 99.5632 319.204C99.6997 319.704 99.7907 319.977 99.7907 320.023C99.7452 320.068 99.4267 318.885 98.5166 317.246C98.2891 316.837 98.0616 316.382 97.7431 315.926C97.4701 315.471 97.1061 314.971 96.6966 314.47C95.9231 313.514 94.922 312.513 93.7845 311.648C92.6469 310.783 91.4184 310.1 90.3264 309.554C89.7348 309.281 89.1888 309.054 88.6883 308.917C88.1878 308.735 87.6873 308.598 87.1868 308.462C85.3667 307.961 84.1837 307.916 84.1837 307.87Z" fill="#263238"/>
<g style="mix-blend-mode:lighten" opacity="0.75">
<path d="M149.308 73L0 322H389L239.193 73H149.308Z" fill="url(#paint0_linear_218_808)"/>
</g>
<ellipse cx="180.5" cy="333" rx="80.5" ry="19" fill="#C9CBB4"/>
<path d="M152.492 240.074L136.385 322.822L134.292 333.655L241.721 333.109C246.544 333.063 250.821 328.785 252.368 322.458L271.433 244.352C272.616 239.528 270.023 234.521 266.383 234.521L157.679 234.658C155.222 234.612 153.129 236.842 152.492 240.074Z" fill="#E8505B"/>
<path d="M152.492 240.074L136.385 322.822L134.292 333.655L241.721 333.109C246.544 333.063 250.821 328.785 252.368 322.458L271.433 244.352C272.616 239.528 270.023 234.521 266.383 234.521L157.679 234.658C155.222 234.612 153.129 236.842 152.492 240.074Z" fill="#732713"/>
<path d="M231.392 317.224L220.016 225.554C219.561 221.776 216.558 219 213.009 219L188.074 219.091C186.209 219.091 184.48 219.865 183.16 221.276L171.33 233.884L101.985 234.248C97.7538 234.248 94.4777 238.299 95.0692 242.805L105.626 327.556C106.081 331.288 109.084 334.11 112.587 334.11L233.439 333.883C246.908 334.156 248.182 330.196 248.182 330.196C232.757 333.519 231.392 317.224 231.392 317.224Z" fill="#E74A21"/>
<g opacity="0.5">
<path opacity="0.5" d="M179.293 298.881L175.197 303.251L143.801 274.985L147.897 270.616L179.293 298.881Z" fill="white"/>
<path opacity="0.5" d="M173.514 269.66L178.019 273.711L149.58 304.206L145.075 300.155L173.514 269.66Z" fill="white"/>
</g>
<defs>
<linearGradient id="paint0_linear_218_808" x1="195" y1="21.5" x2="195" y2="362.5" gradientUnits="userSpaceOnUse">
<stop stop-color="#FFF964"/>
<stop offset="1" stop-color="#FFFCB7" stop-opacity="0"/>
</linearGradient>
</defs>
</svg>
